/* XPM */
static char *f69762abf1f04a6bcc3d218ebe1f807diUP7OwKjbWXndAsq[] = {
/* columns rows colors chars-per-pixel */
"40 40 114 2 ",
"   c #7FAF17",
".  c #76A31E",
"X  c #79A71D",
"o  c #7CAB1A",
"O  c #6D9926",
"+  c #6F9B29",
"@  c #719D22",
"#  c #719E2B",
"$  c #75A227",
"%  c #7AAA22",
"&  c #75A22E",
"*  c #7AA82B",
"=  c #7FB02E",
"-  c #76A431",
";  c #7AAA36",
":  c #7DAD3A",
">  c #7EB03C",
",  c #8BBE0E",
"<  c #83B315",
"1  c #87B912",
"2  c #8ABE13",
"3  c #81B11B",
"4  c #86B81A",
"5  c #8ABD1B",
"6  c #81B224",
"7  c #87B925",
"8  c #8ABE20",
"9  c #82B42D",
"0  c #80B237",
"q  c #85B833",
"w  c #80B33E",
"e  c #86BA38",
"r  c #89BE3E",
"t  c #8EC20B",
"y  c #91C609",
"u  c #93C809",
"i  c #8CC015",
"p  c #8EC31F",
"a  c #91C614",
"s  c #96CD14",
"d  c #90C51C",
"f  c #97CF1C",
"g  c #98CF19",
"h  c #99D11C",
"j  c #8FC424",
"k  c #8DC32F",
"l  c #91C724",
"z  c #93CA24",
"x  c #92C92F",
"c  c #9AD223",
"v  c #9AD32B",
"b  c #94CC31",
"n  c #94CC3D",
"m  c #9BD639",
"M  c #A1DC37",
"N  c #A2DF3C",
"B  c #A3E03E",
"V  c #83B641",
"C  c #84B843",
"Z  c #88BD45",
"A  c #89BF49",
"S  c #8DC344",
"D  c #8CC34C",
"F  c #91C94B",
"G  c #9AD443",
"H  c #9ED944",
"J  c #99D34B",
"K  c #9EDA49",
"L  c #8FC651",
"P  c #92CB55",
"I  c #94CE58",
"U  c #99D456",
"Y  c #9EDA55",
"T  c #97D15A",
"R  c #98D45D",
"E  c #9EDA5B",
"W  c #A0DD43",
"Q  c #A2DF4D",
"!  c #A1DE52",
"~  c #A4E142",
"^  c #A4E14D",
"/  c #A5E452",
"(  c #A8E752",
")  c #A9E954",
"_  c #ACED5D",
"`  c #9DDA63",
"'  c #A0DE67",
"]  c #A4E364",
"[  c #ACEE62",
"{  c #A4E46C",
"}  c #A9EB6B",
"|  c #AEF063",
" . c #AEF165",
".. c #B0F36C",
"X. c #A7E870",
"o. c #A8EA71",
"O. c #AAEC71",
"+. c #ABED74",
"@. c #ACEF76",
"#. c #AFF271",
"$. c #ADF077",
"%. c #AEF279",
"&. c #B2F773",
"*. c #B1F676",
"=. c #B3F875",
"-. c #B4F977",
";. c #B2F77D",
":. c #B5FA7B",
">. c #B3F87F",
",. c #B5FB7D",
"<. c #B6FC7F",
"1. c #B5FB82",
"2. c #B7FE83",
"3. c #B8FF85",
/* pixels */
"3.3.3.3.3.3.3.3.3.3.3.3.3.3.3.3.3.3.3.3.3.3.3.3.3.3.3.3.3.3.3.3.3.3.3.3.3.3.3.3.",
"3.3.3.3.3.3.3.3.3.3.3.3.3.3.3.3.3.3.3.3.3.3.3.3.3.3.3.3.3.3.3.3.3.3.3.3.3.3.3.3.",
"3.3.3.3.3.3.3.3.3.3.3.3.3.3.3.3.3.3.3.3.3.3.3.3.3.3.3.3.3.3.3.3.3.3.3.3.3.3.3.3.",
"3.3.3.3.3.3.3.3.3.3.3.3.3.3.3.3.3.3.3.3.3.3.3.3.3.3.3.3.3.3.3.3.3.3.3.3.3.3.3.3.",
"3.3.3.3.3.3.3.3.3.3.3.3.3.3.3.3.3.3.3.3.3.3.3.3.3.3.3.3.3.3.3.3.3.3.3.3.3.3.3.3.",
"3.3.3.3.3.3.3.3.3.3.3.3.3.3.3.3.3.3.3.3.3.3.3.3.3.3.3.3.3.3.3.3.3.3.3.3.3.3.3.3.",
"3.3.3.3.3.3.3.3.3.3.3.3.3.3.3.3.3.3.3.3.3.3.3.3.3.3.3.3.3.3.3.3.3.3.3.3.3.3.3.3.",
"3.3.3.3.3.3.3.3.3.3.3.3.3.3.3.3.3.3.3.3.3.3.3.3.3.3.3.3.3.3.3.3.3.3.3.3.3.3.3.3.",
"3.3.3.3.3.3.3.3.3.3.3.3.3.3.3.3.3.3.3.3.3.3.3.3.3.3.3.3.3.3.3.3.3.3.3.3.3.3.3.3.",
"3.3.3.3.3.3.3.3.3.3.3.3.3.3.3.3.3.3.3.3.3.3.3.3.3.3.3.3.3.3.3.3.3.3.3.3.3.3.3.3.",
"3.3.3.3.3.3.3.3.3.3.3.3.3.3.3.3.3.3.3.3.3.3.3.3.3.3.3.3.3.3.3.3.3.3.3.3.3.3.3.3.",
"3.3.3.3.3.3.3.3.3.3.3.3.3.3.3.3.3.3.3.3.3.3.3.3.3.3.3.3.3.3.3.3.3.3.3.3.3.3.3.3.",
"3.3.3.3.3.3.3.3.3.3.3.3.3.3.3.3.3.3.3.3.3.3.3.3.3.3.3.3.3.3.3.3.3.3.3.3.3.3.3.3.",
"3.3.3.3.3.3.3.3.3.3.3.3.3.3.3.3.3.3.3.3.3.3.3.3.3.3.3.3.3.3.3.3.3.3.3.3.3.3.3.3.",
"3.3.3.3.3.3.3.3.3.3.3.3.3.3.3.3.3.3.3.3.3.3.3.3.3.3.3.3.3.3.3.3.3.3.3.3.3.3.3.3.",
"3.3.3.3.3.3.3.3.3.3.3.3.3.3.3.3.3.3.3.3.3.3.3.3.3.3.3.3.3.3.3.3.3.3.3.3.3.3.3.3.",
"3.3.3.3.3.3.3.3.3.3.3.3.3.3.3.3.3.3.3.3.3.3.3.3.3.3.3.3.3.3.3.3.3.3.3.3.3.3.3.3.",
"3.3.3.3.3.3.3.3.3.3.3.3.3.3.3.3.3.3.3.3.3.3.3.3.3.3.3.3.3.3.3.3.3.3.3.3.3.3.3.3.",
"3.3.3.3.3.3.3.3.3.3.3.3.3.3.3.3.3.3.3.3.3.3.3.3.3.3.3.3.3.3.3.3.3.3.3.3.3.3.3.3.",
"3.3.3.3.3.3.3.3.3.3.3.3.3.3.3.3.3.3.3.3.3.3.3.3.3.3.3.3.3.3.3.3.3.3.3.3.3.3.3.3.",
"3.3.3.3.3.3.3.3.3.3.3.3.3.3.3.3.3.3.3.3.3.3.3.3.3.3.3.3.3.3.3.3.3.3.3.3.3.3.3.3.",
"3.3.3.3.3.3.3.3.3.3.3.3.3.3.3.3.3.3.3.3.3.3.3.3.3.3.3.3.3.3.3.3.3.3.3.3.3.3.3.3.",
"3.3.3.3.3.3.3.3.3.3.3.3.3.3.3.3.3.3.3.3.3.3.3.3.3.3.3.3.3.3.3.3.3.3.3.3.3.3.3.3.",
"3.3.3.3.3.3.3.3.3.3.3.3.3.3.3.3.3.3.3.3.2.3.3.3.3.3.3.3.3.3.3.3.3.3.3.3.2.%.3.3.",
"3.3.3.3.3.3.3.3.3.3.3.3.3.3.3.3.3.3.3.3.&.2.3.3.3.3.3.1.3.3.3.3.3.3.3.3.' 2.3.3.",
"3.3.3.3.3.o.` 1.3.3.#.1.3.3.3.3.3.3.3.3. .| 3.3.3.3.3.+.3.3.3.3.3.3.3.3.P 3.3.3.",
"3.3.%.3.3.3.' ; 2.:.[ { 3.3.3.2.3.3.3.3._ B 3.3.3.3.3.` +.3.3.3.2.3.3.$.P 3.3.3.",
"3.1.` 3.1.3.3.D X.^ 3.P 2.3.3.{ ;.3.3.3.B M 3.3.3.>.1.` I 3.3.>.@.3.3.R R 3.3.3.",
"3.` { 3.{ 3.3.{ G &.3.R ` 3.3.1.D 2.3.,.u ~ 3.3.3.' 3.D A ,.3.R 1.3.3.D ` 3.3.3.",
"3.w %.3.` 2.3.O.Q 3.3.' : 3.3.&.e o.3.~ u &.3.2.` o.>.# L ( 3.L 3.3.3.w ` 3.3.3.",
"1.O  .3.` R 3./ } 3.{ o.O o.~ [ ; r  .u k 3.:.,.; 2.D O R H [ D 3.3.:.* T ;.3.{ ",
"Y - :.N } C 3.b 2.R 1.3.@ i _ R D % u ^ w 1.) { - U . Z } F f D 3.&.K # P { ;.F ",
"n 2 ,.-.v & <.j ` { 3.,.t 4 2.; ` 1 h 3.> ! _ P + o 3 +./ V h K =.l A & C D ( n ",
"L < i P G < J m : 3.) s y @ F O H , u &.- a :.V @ p c ` ^ $ ~ v c * >.% O S s w ",
"& X u % O 2 3 b w M c u < O 9 O u X u ) @ u { # . h h D / X ! u < T :.7 O d m > ",
". O u v #   t 4 4 ~ h u 1 < < < u O y v o u & O   u u q W < Y u % *.^ 5 o u h 4 ",
"  O t g - @ u t c [ u u   o < , y @ t a < u D V 1 u u 6 5 , j u n ) 4 t t s K 7 ",
"< O t u u < y u b u u u @ o < t t @ t u < u ..F y u u ,   y t u x i t 1 y z T 0 ",
"t O y u 8 u y y t y u u @ o , y t O u u < u ^ ^ u u u u . u u u t u X l u 4 = t ",
"^ E ^ ^ ] Q ^ ^ ^ / ) ( E E ^ Q ^ ` ( ^ ! ( [ [ ^ ^ ^ ^ E ^ ^ ^ ^ ^ } _ ^ Q ^ ( "
};
