/* XPM */
static char *_576c7799374462ee50aefe75f0752caigF6qw5fW6luuCiq[] = {
/* columns rows colors chars-per-pixel */
"40 40 202 2 ",
"   c #1A3C07",
".  c #2E2D06",
"X  c #4C0E07",
"o  c #54160C",
"O  c #59150A",
"+  c #501E0F",
"@  c #6D0F07",
"#  c #7D0F0B",
"$  c #66170C",
"%  c #6C130A",
"&  c #721609",
"*  c #5D240C",
"=  c #4E2411",
"-  c #4F3411",
";  c #483319",
":  c #154E05",
">  c #1B5808",
",  c #254A07",
"<  c #244B13",
"1  c #275913",
"2  c #1F660C",
"3  c #1E6A08",
"4  c #1E7A0A",
"5  c #226B0A",
"6  c #23720A",
"7  c #266512",
"8  c #386B23",
"9  c #4E5C17",
"0  c #755A08",
"q  c #6A4815",
"w  c #757415",
"e  c #4D5A2D",
"r  c #4F6331",
"t  c #4C6E32",
"y  c #597736",
"u  c #6A6631",
"i  c #657C3E",
"p  c #860F0C",
"a  c #85110B",
"s  c #8B130B",
"d  c #94130D",
"f  c #9C120E",
"g  c #901C0B",
"h  c #A3150D",
"j  c #AE180B",
"k  c #B1160D",
"l  c #BD170E",
"z  c #BC180E",
"x  c #AA1310",
"c  c #B41211",
"v  c #BC1411",
"b  c #BD1910",
"n  c #8F340F",
"m  c #B93B1A",
"M  c #C31511",
"N  c #CD1513",
"B  c #C41A14",
"V  c #CD1B14",
"C  c #D51515",
"Z  c #DA1616",
"A  c #D51A16",
"S  c #D91816",
"D  c #D71E1D",
"F  c #D91D1D",
"G  c #CA2B15",
"H  c #D42215",
"J  c #D02F14",
"K  c #CD3214",
"L  c #C33119",
"P  c #D92726",
"I  c #D43532",
"U  c #D83533",
"Y  c #955619",
"T  c #AC4D1C",
"R  c #B3441B",
"E  c #A4541B",
"W  c #BA5811",
"Q  c #90740C",
"!  c #896C1D",
"~  c #96651E",
"^  c #9A631E",
"/  c #8F7F1C",
"(  c #977618",
")  c #AD670F",
"_  c #B76D0F",
"`  c #B3790E",
"'  c #877721",
"]  c #C74312",
"[  c #C54A11",
"{  c #D94744",
"}  c #DE5D5A",
"|  c #DA6B67",
" . c #DE726F",
".. c #DA7B76",
"X. c #25890D",
"o. c #258B0C",
"O. c #27930E",
"+. c #28960E",
"@. c #2A9B0F",
"#. c #2B9E10",
"$. c #6D961D",
"%. c #7FAF17",
"&. c #76A31E",
"*. c #79A51D",
"=. c #7CAB1A",
"-. c #55803C",
";. c #6D892B",
":. c #7A8723",
">. c #6F9425",
",. c #6D9926",
"<. c #719D22",
"1. c #719A29",
"2. c #769937",
"3. c #7BAA22",
"4. c #75A32E",
"5. c #78A62A",
"6. c #7FB02E",
"7. c #79A536",
"8. c #7EB03C",
"9. c #678543",
"0. c #6B8A46",
"q. c #6F954C",
"w. c #769D48",
"e. c #7C9F51",
"r. c #7AA454",
"t. c #7AA655",
"y. c #8E9410",
"u. c #AD850D",
"i. c #92A90D",
"p. c #8CBD0E",
"a. c #94B80A",
"s. c #84AC15",
"d. c #83B315",
"f. c #87B911",
"g. c #8ABC12",
"h. c #86B91B",
"j. c #828123",
"k. c #8A9D35",
"l. c #83B535",
"z. c #80B33E",
"x. c #8EC20B",
"c. c #92C509",
"v. c #93C808",
"b. c #8DC017",
"n. c #95CC14",
"m. c #99D11D",
"M. c #8FC424",
"N. c #93C924",
"B. c #92C82A",
"V. c #9AD221",
"C. c #9BD42B",
"Z. c #94CC31",
"A. c #94CC3D",
"S. c #9BD639",
"D. c #A2DE3A",
"F. c #84B843",
"G. c #8AAF57",
"H. c #88BD62",
"J. c #D8807A",
"K. c #8DC344",
"L. c #8CC34C",
"P. c #91C94B",
"I. c #9AD548",
"U. c #9EDA49",
"Y. c #8FC651",
"T. c #92CA54",
"R. c #9EDA55",
"E. c #97D15A",
"W. c #99D45D",
"Q. c #9EDA5B",
"!. c #A0DD43",
"~. c #A3DF4E",
"^. c #A1DE52",
"/. c #A4E243",
"(. c #A3E04D",
"). c #A5E452",
"_. c #AAEA58",
"`. c #95CD6B",
"'. c #9DDA63",
"]. c #99D368",
"[. c #A0DE67",
"{. c #ACED61",
"}. c #A4E36B",
"|. c #A7E769",
" X c #B0F36A",
".X c #A5E476",
"XX c #A7E477",
"oX c #AAEB7A",
"OX c #ADF077",
"+X c #AEF279",
"@X c #B3F775",
"#X c #B1F47D",
"$X c #B4FA7C",
"%X c #DC8681",
"&X c #D49189",
"*X c #D3948B",
"=X c #D69C94",
"-X c #DA9C95",
";X c #DAA59E",
":X c #DCB0A9",
">X c #B6FC83",
",X c #B8FF85",
/* pixels */
",X,X,X,X,X,X,X,X,X,X,X,X,X,X,X,X,X,X,X,X,X,X,X,X,X,X,X,X,X,X,X,X,X,X,X,X,X,X,X,X",
",X,X,X,X,X,X,X,X,X,X,X,X,X,X,X,X,X,X,X,X,X,X,X,X,X,X,X,X,X,X,X,X,X,X,X,X,X,X,X,X",
",X,X,X,X,X,X,X,X,X,X,X,X,X,X,X,X,X,X,X,X,X,X,X,X,X,X,X,X,X,X,X,X,X,X,X,X,X,X,X,X",
",X,X,X,X,X,X,X,X,X,X,X,X,X,X,X,X,X,X,X,X,X,X,X,X,X,X,X,X,X,X,X,X,X,X,X,X,X,X,X,X",
",X,X,X,X,X,X,X,X,X,X,X,X,X,X,X,X>Xr 1 y ,X].-.8 7 2 2 2 8 t r.>X,X,X,X,X,X,X,X,X",
",X,X,X,X,X,X,X,X,X,X,X,X,X,X,X,XXX  : < H.2 #.#.#.#.#.@.#.#.O.1 H.,X,X,X,X,X,X,X",
",X,X,X,X,X,X,X,X,X,X>X>X,X,X,X,X>X8 o.1 y #.@.+.O.o.o.X.O.#.o.> `.,X,X,X,X,X,X,X",
",X,X,X,X,X,X,X,X,X,X,X>X>Xr.0.9.r.r o.2 7 O.o.o.o.O.+.+.O.4 < `.,X,X,X,X,X,X,X,X",
",X,X,X,X,X,X,X,X,X,X`.e O p x x s X o.6 * % , > 2 4 6 3 : 8 XX,X,X,X,X,X,X,X,X,X",
",X,X,X,X,X,X,X,X>X9.O M Z Z Z Z Z M 5 > C Z C c f d d s @ - G.,X,X,X,X,X,X,X,X,X",
",X,X,X,X,X,X,X,Xy p Z Z Z Z Z M h Z , , Z Z C M C N M M v v % 0.>X,X,X,X,X,X,X,X",
",X,X,X,X,X,X,Xq.p Z Z Z Z Z Z Z h p - , Z M # f D C C U U N B % r.,X,X,X,X,X,X,X",
",X,X,X,X,X,XXXX C Z Z Z Z Z Z Z Z c O . a a N Z Z Z Z -X;X{ B M = oX,X,X,X,X,X,X",
",X,X,X,X,X,Xr v Z Z Z Z Z Z Z Z Z Z Z C Z Z Z Z Z Z Z %X=X..C v f 0.,X,X,X,X,X,X",
",X,X,X,X,XXXO Z Z Z Z Z Z Z Z Z Z Z Z Z Z Z Z Z Z Z Z U ..{ D M l = >X,X,X,X,X,X",
",X,X,X,X,Xr.d Z Z Z Z Z Z Z Z Z Z Z Z Z Z Z Z Z Z Z Z Z Z }  .V l % XX,X,X,X,X,X",
",X,X,X,X,Xe C Z Z Z F Z Z Z Z Z Z Z Z Z Z Z Z Z Z Z Z Z Z | :X{ l s w.,X,X,X,X,X",
",X,X,X,X,X; Z Z Z Z Z Z Z Z Z Z Z Z Z Z Z Z Z Z Z Z Z Z Z { -X| M h 9.,X,X,X,X,X",
",X,X,X,X,X+ Z Z Z Z Z Z Z Z Z Z Z Z Z Z Z Z Z Z Z Z Z Z Z P *XJ.M k i ,X,X,X,X,X",
",X,X,X,X,Xo Z Z Z Z Z Z Z Z Z Z Z Z Z Z Z Z Z Z Z Z Z Z Z P *X*XB k i ,X,X,X,X,X",
",X,X,X,X,Xo Z Z Z Z Z Z Z Z Z Z Z Z Z Z Z Z Z Z Z Z Z Z Z F &X-XB h 9.,X,X,X,X,X",
",X,X,X,X,X= Z Z Z Z Z Z Z Z Z Z Z Z Z Z Z Z Z Z Z Z Z Z Z F *X-XB a e.,X,X,X,X,X",
",X,X,X,X,X; Z Z Z Z Z Z Z Z Z Z Z Z Z Z Z Z Z Z Z Z Z Z Z F *X-XG % XX,X,X,X,X,X",
",X,X,X,X,Xr C Z Z Z Z Z Z Z Z Z Z Z Z Z Z Z Z Z Z Z Z Z Z P =X=Xv $ >X,X>X+X,X,X",
",X,X,X,X,Xr.d Z Z Z Z Z Z Z Z Z Z Z Z Z J Z Z Z Z Z Z A Z { ;X..j u ,X,X'.,X,X,X",
",X,X,X,X,X].q A Z Z J S Z Z S S Z Z Z Z ] ] Z Z Z Z Z G Z } :X{ s G.,X,XT.,X,X,X",
",X,XoX,X,X,Xy ' S H [ m Z Z Z S Z Z Z Z [ u.Z Z Z Z Z R L P I j * >X,XOXY.,X,X,X",
",X,X'.,X>X,XT.9 L _ Z E S Z Z L H Z Z Z ` u.Z Z Z D A R E B b g G.,X,XE.'.,X,X,X",
",XQ.}.,XXX,X,Xy ( K S T m Z Z D ^ Z Z H a.` Z Z C m Z ^ ! j j q +X,X,XL.].,X,X,X",
",Xz.#X,X'.,X>X].0 C S R ' Z Z J j.J Z ` v.J Z Z R L A >.Y ) & 7.,X,X,XF.'.,X,X>X",
",X>. X,X'.E.,X~.w.$ m L ,.L _ ] ' ( ] v.y.Z H H :.C ~ ,.Y Q k.L.,X>X$X5.E.+X>X}.",
"^.4.$XD.|.F.,XZ.,X2.& C <.g.[ T ^ s.v.W ! S W m :.E &.w n 2.m.Y.,X@XU.4.T.'.$XP.",
"A.g.>X$XC.4.$XM.'.}.r.* p.s.A j.T p.i.Z j.[ [ Y >.*.s.g w r.m./.@XN.L.4.t.P.(.S.",
"Y.d.b.T.I.%.I.S.8.,X_.n.v.,.^ >.) p.v.J :.i.L ! 5.%.y.;.(.5.D.C.m.5.,X3.,.K.n.l.",
"4.*.v.3.,.g.%.Z.8.D.V.v.d.,.$.$.p.=.v.0 3.v.n >.&.p.g.P.(.=.^.v.%.W.@XM.,.b.S.8.",
"*.,.v.C.1.=.x.f.h./.m.v.f.d.f.d.v.,.c.N.=.x.>.,.=.v.v.l.U.%.R.v.3.@X).%.=.v.m.b.",
"%.,.x.m.4.5.v.x.C._.v.v.d.*.d.p.c.5.x.x.%.v.L.F.p.v.v.3.b.x.B.c.A._.b.x.x.n.U.6.",
"d.,.x.v.v.%.c.v.Z.v.v.v.<.*.d.x.x.,.x.v.d.v. XP.v.v.x.x.=.x.x.v.Z.b.x.f.v.N.W.8.",
"x.,.x.v.h.v.v.c.x.v.v.v.5.=.p.x.x.,.v.v.f.v.(.(.v.v.v.c.*.v.v.v.x.v.*.N.v.%.6.x.",
"(.R.(.(.|.(.~.~.(.)._.).E.Q.(.(.(.'._.(.^.(.{.{.~.~.~./.Q.(.(.(.(.(.|.{.(.(.).)."
};
