/* XPM */
static char *e7abcdc109eb49568db74beb856d344a9h977VcVow99AShj[] = {
/* columns rows colors chars-per-pixel */
"40 40 178 2 ",
"   c #7E7D52",
".  c #906F3E",
"X  c #99743D",
"o  c #976647",
"O  c #9B6346",
"+  c #9A6C41",
"@  c #936A49",
"#  c #85774F",
"$  c #88744E",
"%  c #9D7D4A",
"&  c #7FAF17",
"*  c #76A31E",
"=  c #79A71D",
"-  c #7CAB1A",
";  c #778B2D",
":  c #7A892F",
">  c #6E9627",
",  c #6D9826",
"<  c #6F9B29",
"1  c #719D22",
"2  c #719229",
"3  c #719E2B",
"4  c #629C3F",
"5  c #75A227",
"6  c #7AAA22",
"7  c #75A32E",
"8  c #7AA82B",
"9  c #7FB02E",
"0  c #7BBA2A",
"q  c #76A331",
"w  c #7AAA36",
"e  c #7DAD3A",
"r  c #7DB135",
"t  c #77B830",
"y  c #7EB03C",
"u  c #5F995F",
"i  c #619F46",
"p  c #6E8C59",
"a  c #728957",
"s  c #61975E",
"d  c #5CA04F",
"f  c #5BA253",
"g  c #5EA955",
"h  c #57A35E",
"j  c #58A159",
"k  c #65AD4B",
"l  c #71A444",
"z  c #67AA53",
"x  c #68B05E",
"c  c #5B9D60",
"v  c #54A464",
"b  c #5AA664",
"n  c #5CAA66",
"m  c #63AD63",
"M  c #6AB163",
"N  c #63B269",
"B  c #69B76B",
"V  c #6EBB6C",
"C  c #72B563",
"Z  c #7CBB63",
"A  c #71BF6D",
"S  c #74C26E",
"D  c #79C670",
"F  c #7ECA71",
"G  c #8BBE0E",
"H  c #90BE0D",
"J  c #91AA1A",
"K  c #83B315",
"L  c #87B912",
"P  c #8BBC12",
"I  c #81B11B",
"U  c #86B81A",
"Y  c #8ABD1B",
"T  c #978B2D",
"R  c #879F21",
"E  c #959C23",
"W  c #828234",
"Q  c #918630",
"!  c #988431",
"~  c #8BA428",
"^  c #87B925",
"/  c #8ABE20",
"(  c #82B329",
")  c #9BA433",
"_  c #99AE36",
"`  c #80B237",
"'  c #85B833",
"]  c #80B33E",
"[  c #89BE3E",
"{  c #9CB134",
"}  c #8EC20B",
"|  c #92C509",
" . c #93C808",
".. c #8CC015",
"X. c #8EC31F",
"o. c #96CD14",
"O. c #90C51C",
"+. c #97CF1C",
"@. c #98CF19",
"#. c #99D11C",
"$. c #8FC424",
"%. c #91C724",
"&. c #93CA24",
"*. c #92C92F",
"=. c #9AD223",
"-. c #9BD42B",
";. c #94CC31",
":. c #94CC3D",
">. c #9BD639",
",. c #A0CD38",
"<. c #A2DE3A",
"1. c #A28955",
"2. c #82B540",
"3. c #84B843",
"4. c #88BD45",
"5. c #89BF49",
"6. c #99A152",
"7. c #A4B666",
"8. c #8DC344",
"9. c #8CC34C",
"0. c #91C94A",
"q. c #9AD443",
"w. c #9ED944",
"e. c #99D34B",
"r. c #9EDA49",
"t. c #8FC651",
"y. c #89C85D",
"u. c #92CB55",
"i. c #94CE58",
"p. c #99D456",
"a. c #9EDA55",
"s. c #96D15B",
"d. c #98D45D",
"f. c #9EDA5B",
"g. c #A0DD43",
"h. c #A2DF4D",
"j. c #A1DE52",
"k. c #A4E244",
"l. c #A3E04D",
"z. c #A5E452",
"x. c #A8E752",
"c. c #AAEA56",
"v. c #ACEC5D",
"b. c #84C063",
"n. c #8DC563",
"m. c #91C763",
"M. c #94C963",
"N. c #99CC63",
"B. c #8DD466",
"V. c #8FD86F",
"C. c #9DDA62",
"Z. c #81CC72",
"A. c #86D275",
"S. c #8AD576",
"D. c #8FDA77",
"F. c #92DD78",
"G. c #ACC868",
"H. c #A0DE67",
"J. c #9CE171",
"K. c #97E17A",
"L. c #9BE57B",
"P. c #9FE87C",
"I. c #A4E364",
"U. c #ACEE62",
"Y. c #A4E36C",
"T. c #A9EB6B",
"R. c #AFF267",
"E. c #A7E870",
"W. c #A9EB72",
"Q. c #A3EC7E",
"!. c #AFF37A",
"~. c #B2F673",
"^. c #B4F976",
"/. c #B1F67D",
"(. c #B4FA7C",
"). c #ACF481",
"_. c #B5FB83",
"`. c #B8FF85",
/* pixels */
"`.`.`.`.`.`.`.`.`.`.`.`.`.`.`.`.`.`.`.`.`.`.`.`.`.`.`.`.`.`.`.`.`.`.`.`.`.`.`.`.",
"`.`.`.`.`.`.`.`.`.`.`.`.`.`.`.`.`.`.`.`.`.`.`.`.`.`.`.`.`.`.`.`.`.`.`.`.`.`.`.`.",
"`.`.`.`.`.`.`.`.`.`.`.`.`.`.`.`.`.`.`.`.`.`.`.`.`.`.`.`.`.`.`.`.`.`.`.`.`.`.`.`.",
"`.`.`.`.`.`.`.`.`.`.`.`.`.`.`.`.`.`.`.`.`.`.`.`.`.`.`.`.`.`.`.`.`.`.`.`.`.`.`.`.",
"`.`.`.`.`.`.`.`.`.`.`.`.`.`.).F.F.L._.`.`.`.`.`.`.`.`.`.`.`.`.`.`.`.`.`.`.`.`.`.",
"`.`.`.`.`.`.`.`.`.`.`.`.).S v v v v b D.`.`.`.`._.K.F.P._.`.`.`.`.`.`.`.`.`.`.`.",
"`.`.`.`.`.`.`.`.`.`.`.).N v v v v v v v Z._._.F v v v v n F.`.`.`.`.`.`.`.`.`.`.",
"`.`.`.`.`.`.`.`.`.`.`.A v v v v v v v v v F N v v v v v v v Z.`.`.`.`.`.`.`.`.`.",
"`.`.`.`.`.`.`.`.`.`.F.v v v v v v v v v v v v v v v v v v v v F.`.`.`.`.`.`.`.`.",
"`.`.`.`.`.`.`.`.`.).b v v v v v v v v v v v v v v v v v v v v v V F._.`.`.`.`.`.",
"`.`.`.`.`.`.`.`.).N v v v b b v v v v v v v v v v v b v v v v v v v n F.`.`.`.`.",
"`.`.`.`.`._.F.A.n v v v v m.m.v v v v v v v v v v M N.C v v v v v v v v Z.`.`.`.",
"`.`.`.`.K.b v v v v v v v n.Z v v v v v v v v v v M N.M v v v v v v v v v F.`.`.",
"`.`.`.Q.v v v v v v v v v v v v v v v v v v v v v v v v v v v v v v v v v N `.`.",
"`.`.`.V v v v v v v v v v v v v v v v v v v v v v v v v v v v v v v v v v v `.`.",
"`.`.).v v v v v v v v v v v v v v v v v v v v v v v v v v v v v v v v v v v `.`.",
"`.`.F.v v v v v v v v v v v v v b b.M v v v v v v v v v v v v v v v v v v b `.`.",
"`.`.A.v v v v v v C n v v v v v M N.Z v v v v v C b v v v v v v v v v v v v _.`.",
"`.`.F.v v v v v M N.Z v v v v v v M v v v v v C N.C v v v v v v v v v v v v F `.",
"`.`.P.v v v v v n Z n v v v v v v v v v v v v m Z b v v v v m v v v v v v v v Q.",
"`.`._.b v v v v v v v v v v v v v v v v v v v v v v v v v Z N.M v v v v v v v A.",
"`.`.`.A.v v v v v v v v v v v v v v v v v v v v v v v v v C n.b v v v v v v v S.",
"`.`.`._.V v v v v v v v v v v v v v v v v v v v v v v v v v v v v v v v v v v L.",
"`.`.`.`._.Z.b v v v v v v M M.m v v v v v v v v v v v v v v v v v v v v v h N _.",
"`.`.`.`.`.`.`.).V v v v v Z N.m v c c v g v v v p a v v v v v v v v v v f v L.`.",
"`.`.`.`.`.W.C._.Q.v g v v v b v v   @ u k k v c @ u v j v v v v v v v v i F.`.`.",
"`.`.!.`.`.`.H.w _.V.k f v v v v v v @ @ l t v $ # v v d x D B b v v v M t.`.`.`.",
"`._.C.`._.`.`.9.E.k.D.i v v v f h v p O E 0 a O s v V y.i.`.`./.J.P.).d.d.`.`.`.",
"`.C.Y.`.Y.`.`.Y.q.~.`.s.z v v v 4 v V % | ~ o $ n y.`.9.5.(.`.d._.`.`.9.C.`.`.`.",
"`.] !.`.C._.`.W.h.`.`.H.e ).K.B.r Y.`.,.| X O 7.C.W.(.3 t.x.`.t.`.`.`.] C.`.`.`.",
"_., R.`.C.d.`.z.T.`.Y.W., W.k.U.w [ R. .R O + G.w _.9., d.w.U.9.`.`.^.8 s./.`.Y.",
"a.q ^.<.T.3.`.;._.d._.`.1 ..v.d.9.6  .) : O T 6.q p.* 4.T.0.+.9.`.~.r.3 u.Y./.0.",
":.P (.^.-.7 (.$.C.Y.`.(.} U _.w C.L #.1.; Q ! W < - I W.z.2.#.r.^.%.5.7 3.9.x.:.",
"t.K ..u.q.K e.>.e `.c.o.| 1 0., w.G  .X 2 P + : 1 X.=.C.l.5 k.-.=.8 (.6 , 8.o.] ",
"7 =  .6 , P I ;.] <.=. .K , ( ,  .=  .T 1  .. > * #.#.9.z.= j. .K s.^.^ , O.>.y ",
"* ,  .-.3 & } U U k.#. .L K K K  ., | J - | 2 > &  . .' g.K a. .6 ~.l.Y -  .#.U ",
"& , } @.q 1  .} =.U. . .& - K G | 1 } H K  .W : L  . .( Y G $. .:.c.U } } o.r.^ ",
"K , }  . .K |  .;. . . .1 - K } } 1 }  .K  .X W |  . .G & | }  .*...} L | &.s.` ",
"} , |  ./  .| | } |  . .1 - G | } ,  . .K  .{ _  . . . .*  . . .}  .= %. .U 9 } ",
"l.f.l.l.I.h.l.l.l.z.c.x.f.f.l.h.l.C.x.l.j.x.U.U.l.l.l.l.f.l.l.l.l.l.T.v.l.h.l.x."
};
