/* XPM */
static char *_c46e332802f4bc18a4be26912de49d3H6v744keqRMFWL0v[] = {
/* columns rows colors chars-per-pixel */
"40 40 101 2 ",
"   c #FFB400",
".  c #FFB504",
"X  c #FEB709",
"o  c #FFB70B",
"O  c #FEB80F",
"+  c #FEB912",
"@  c #FEBB16",
"#  c #FEBB17",
"$  c #FEBC1A",
"%  c #FEBD1E",
"&  c #FEBE21",
"*  c #FEBF25",
"=  c #FEC128",
"-  c #FEC029",
";  c #FEC22C",
":  c #FEC330",
">  c #FEC538",
",  c #FEC63C",
"<  c #FEC73F",
"1  c #FEC840",
"2  c #FEC943",
"3  c #FDCB4B",
"4  c #FDCB4C",
"5  c #FDCD50",
"6  c #FDCE55",
"7  c #FDCF58",
"8  c #FDD05A",
"9  c #FDD15D",
"0  c #FDD261",
"q  c #FDD365",
"w  c #FDD469",
"e  c #FDD66C",
"r  c #FDD770",
"t  c #FDD874",
"y  c #FDD978",
"u  c #FCDB7F",
"i  c #7BDFAC",
"p  c #71D9B3",
"a  c #2FB7DE",
"s  c #3EBFD4",
"d  c #3CBDD6",
"f  c #3FBDDC",
"g  c #16AAEF",
"h  c #1DAEEA",
"j  c #25B1E5",
"k  c #2AB4E2",
"l  c #32B4EF",
"z  c #36B5EF",
"x  c #39B7EF",
"c  c #3DB8EF",
"v  c #42BFDB",
"b  c #46C3CF",
"n  c #4BC6CC",
"m  c #52CAC7",
"M  c #55CBC5",
"N  c #57CCC4",
"B  c #40C0D3",
"V  c #7BD8C9",
"C  c #7ED8CD",
"Z  c #B8FF85",
"A  c #FCDC81",
"S  c #FCDE87",
"D  c #FCDF8A",
"F  c #FCE08C",
"G  c #FCE08E",
"H  c #FCE190",
"J  c #FCE292",
"K  c #FCE397",
"L  c #FCE499",
"P  c #FCE59D",
"I  c #C9FFA0",
"U  c #CEFFA8",
"Y  c #D1FFAD",
"T  c #D2FFAF",
"R  c #D3FFB0",
"E  c #D9FFBA",
"W  c #FCE6A1",
"Q  c #FCE7A5",
"!  c #FCE9A8",
"~  c #FCEAAC",
"^  c #FCEAAE",
"/  c #FCECB3",
"(  c #FBEDB7",
")  c #FCEDB7",
"_  c #FBEEBA",
"`  c #E2FFC7",
"'  c #E4FFCB",
"]  c #FBF4CE",
"[  c #EAFFD5",
"{  c #ECFFD8",
"}  c #FBF5D2",
"|  c #F0FFDF",
" . c #FBF8D9",
".. c #FBF9DE",
"X. c #F2FFE2",
"o. c #FBFAE1",
"O. c #FBFBE4",
"+. c #FBFCE6",
"@. c #FBFCE8",
"#. c #FBFDEC",
"$. c #FBFFF0",
/* pixels */
"Z Z Z Z Z Z Z Z Z Z Z Z Z Z Z Z Z Z Z Z Z Z Z Z Z Z Z Z Z Z Z Z Z Z Z Z Z Z Z Z ",
"Z Z Z Z Z Z Z Z Z Z Z Z Z Z Z Z Z Z Z Z Z Z Z Z Z Z Z Z Z Z Z Z Z Z Z Z Z Z Z Z ",
"Z Z Z Z Z Z Z Z Z Z Z Z Z Z Z Z Z Z Z Z Z Z Z Z Z Z Z Z Z Z Z Z Z Z Z Z Z Z Z Z ",
"Z Z Z Z Z Z Z Z Z Z Z Z Z Z Z Z Z Z Z Z Z Z Z Z Z Z Z Z Z Z Z Z Z Z Z Z Z Z Z Z ",
"p C ` ' [ [ [ [ [ [ [ [ [ [ [ [ [ [ [ [ [ [ [ [ [ [ [ [ [ [ [ { X.X.X.X.X.{ C p ",
"s x $.$.$.$.$.$.$.$.$.$.$.$.$.#.$.$.$.$.$.$.$.$.$.$.$.$.$.$.$.$.$.$.$.$.$.$.z s ",
"s l $.$.$.$.} w 7 P $.$.$.$.y = > ( #.$.$.} 1 _ $.$.$.r t $.$.$.$.t ~ $.$.$.l B ",
"s l $.$.$.@.$       A $.$.W   = + + O.$.$.A   6 $.$.$.> % $.$.$.$.& 2 $.$.$.l s ",
"s l $.$.$.P   D O.& = #.$.8 o @.^   P $.$.>   o @.$.$.4 % $.$.$.$.% > $.$.$.l s ",
"s l $.$.$.r   ] $.w o $.$., % @.o.  t $.O.o @   P $.$.8   #.$.$.$.> * $.$.$.l s ",
"s l $.$.$.8   #.$.@.} $.$., : $.#.  7 $.Q   F o 4 $.$.7   $.$.$.$., % $.$.$.l s ",
"s l $.$.$.8   $.Q y W $.$.* , $.$.# 4 $.9   ..7   ..$.t   o.$.$.$., % $.$.$.l d ",
"s l $.$.$.8   $.%     S $.% , $.$.% > $.% + y 4   H $.y   } $.$.$., % $.$.$.l s ",
"s l $.$.$.8   $...} + 4 #.% , $.$.% 2 }           1 $.y   } $.$.$.1 ; $.$.$.l s ",
"s l $.$.$.8   $.$.$.* , $.: : $. .  q L   K } } 5 . +.y   } $.$.$. .} $.$.$.l s ",
"s l $.$.$.u   ) $.$., > $.0 . w :   _ e   o.$.$.H   ^ y   , 8 ! $.L r $.$.$.l s ",
"d l $.$.#.} X o & #   5 $. .*   O F $.q % #.$.$.}   / ] % @   A $.A 6 $.$.$.l s ",
"s l $.$.$.@.] 5 , 4 r ..$.$.$.} @.$.$.#...$.$.$.$.$.$.$.#.$.$.#.$.$.$.$.$.$.l s ",
"s c $.$.$.$.#.$.$.$.$.$.$.$.$.$.$.$.$.$.#.$.$.$.$.$.$.$.$.#.$.$.$.$.$.$.$.$.l s ",
"k B I I I I R U T T U T T R R E E E E E T T T R U R R U U T T T U I I I I I v d ",
"k s Z Z Z Z Z Z Z Z Z Z Z Z Z Z Z Z Z Z Z Z Z Z Z Z Z Z Z Z Z Z Z Z Z Z Z Z s k ",
"k B Z Z Z Z Z Z Z Z Z Z Z Z Z Z Z Z Z Z Z Z Z Z Z Z Z Z Z Z Z Z Z Z Z Z Z Z s k ",
"k s Z Z Z Z Z Z Z Z Z Z Z Z Z Z Z Z Z Z Z Z Z Z Z Z Z Z Z Z Z Z Z Z Z Z Z Z s k ",
"k s Z Z Z Z Z Z Z Z Z Z Z Z Z Z Z Z Z Z Z Z Z Z Z Z Z Z Z Z Z Z Z Z Z Z Z Z s k ",
"k s Z Z Z Z Z Z Z Z Z Z Z Z Z Z Z Z Z Z Z Z Z Z Z Z Z Z Z Z Z Z Z Z Z Z Z Z s k ",
"k s Z Z Z Z Z Z Z Z Z Z Z Z Z Z Z Z Z Z Z Z Z Z Z Z Z Z Z Z Z Z Z Z Z Z Z Z s k ",
"k s Z Z Z Z Z Z Z Z Z Z Z Z Z Z Z Z Z Z Z Z Z Z Z Z Z Z Z Z Z Z Z Z Z Z Z Z s k ",
"k s Z Z Z Z Z Z Z Z Z Z Z Z Z Z Z Z Z Z Z Z Z Z Z Z Z Z Z Z Z Z Z Z Z Z Z Z s k ",
"k s Z Z Z Z Z Z Z Z Z Z Z Z Z Z Z Z Z Z Z Z Z Z Z Z Z Z Z Z Z Z Z Z Z Z Z Z B k ",
"k s Z Z Z Z Z Z Z Z Z Z Z Z Z Z Z Z Z Z Z Z Z Z Z Z Z Z Z Z Z Z Z Z Z Z Z Z s k ",
"k s Z Z Z Z Z Z Z Z Z Z Z Z Z Z Z Z Z Z Z Z Z Z Z Z Z Z Z Z Z Z Z Z Z Z Z Z B k ",
"k n Z Z Z Z Z Z Z Z Z Z Z Z Z Z Z Z Z Z Z Z Z Z Z Z Z Z Z Z Z Z Z Z Z Z Z Z B k ",
"j m Z Z Z Z Z Z Z Z Z Z Z Z Z Z Z Z Z Z Z Z Z Z Z Z Z Z Z Z Z Z Z Z Z Z Z Z m k ",
"g m Z Z Z Z Z Z Z Z Z Z Z Z Z Z Z Z Z Z Z Z Z Z Z Z Z Z Z Z Z Z Z Z Z Z Z Z m h ",
"g m Z Z Z Z Z Z Z Z Z Z Z Z Z Z Z Z Z Z Z Z Z Z Z Z Z Z Z Z Z Z Z Z Z Z Z Z M g ",
"g m Z Z Z Z Z Z Z Z Z Z Z Z Z Z Z Z Z Z Z Z Z Z Z Z Z Z Z Z Z Z Z Z Z Z Z Z m g ",
"g m Z Z Z Z Z Z Z Z Z Z Z Z Z Z Z Z Z Z Z Z Z Z Z Z Z Z Z Z Z Z Z Z Z Z Z Z M g ",
"g N Z Z Z Z Z Z Z Z Z Z Z Z Z Z Z Z Z Z Z Z Z Z Z Z Z Z Z Z Z Z Z Z Z Z Z Z N g ",
"B i Z Z Z Z Z Z Z Z Z Z Z Z Z Z Z Z Z Z Z Z Z Z Z Z Z Z Z Z Z Z Z Z Z Z Z Z i B ",
"Z Z Z Z Z Z Z Z Z Z Z Z Z Z Z Z Z Z Z Z Z Z Z Z Z Z Z Z Z Z Z Z Z Z Z Z Z Z Z Z "
};
