/* XPM */
static char *_8ab03ad8050417ea96213e2292854da7Q1Rraw1A8D8PG6i[] = {
/* columns rows colors chars-per-pixel */
"64 64 222 2 ",
"   c #0D0D0D",
".  c #100F0F",
"X  c #11100F",
"o  c #141413",
"O  c #161817",
"+  c #171A19",
"@  c #1A1D1C",
"#  c #231D18",
"$  c #1E201E",
"%  c #23211E",
"&  c #28221C",
"*  c #232422",
"=  c #2C2C29",
"-  c #342F29",
";  c #3A352C",
":  c #2F3130",
">  c #363837",
",  c #4A3C37",
"<  c #4D4438",
"1  c #56473E",
"2  c #655136",
"3  c #24345F",
"4  c #023C6D",
"5  c #0F3B6A",
"6  c #0B3C6D",
"7  c #51274B",
"8  c #432D54",
"9  c #692F4E",
"0  c #114978",
"q  c #234B73",
"w  c #395878",
"e  c #434444",
"r  c #4C4C4C",
"t  c #5C4842",
"y  c #5E5043",
"u  c #575757",
"i  c #624D45",
"p  c #6A564A",
"a  c #715C4C",
"s  c #6B5B51",
"d  c #6C635B",
"f  c #776552",
"g  c #4A4F73",
"h  c #636363",
"j  c #6C6D6C",
"k  c #6F7070",
"l  c #777877",
"z  c #AF0C1E",
"x  c #B20C1F",
"c  c #801A37",
"v  c #B20D20",
"b  c #A51025",
"n  c #B41122",
"m  c #B81B2E",
"M  c #982038",
"N  c #BC242D",
"B  c #BC2835",
"V  c #C73C3D",
"C  c #B75C3F",
"Z  c #822842",
"A  c #BF3344",
"S  c #C13E4F",
"D  c #9B7948",
"F  c #826E59",
"G  c #876C59",
"H  c #8D745D",
"J  c #92775F",
"K  c #BD6E4C",
"L  c #A77F4C",
"P  c #9A7C63",
"I  c #C64B44",
"U  c #CC5051",
"Y  c #D5635A",
"T  c #E47E56",
"R  c #CB5361",
"E  c #DB7966",
"W  c #D46F71",
"Q  c #AF854E",
"!  c #B6894F",
"~  c #B58A51",
"^  c #B98E53",
"/  c #BB9155",
"(  c #BC945C",
")  c #9F826B",
"_  c #91817C",
"`  c #A7886D",
"'  c #BE9863",
"]  c #A98971",
"[  c #AD9173",
"{  c #B99779",
"}  c #D08C54",
"|  c #EF8C58",
" . c #C99D68",
".. c #C49A78",
"X. c #EC8F6A",
"o. c #EA9368",
"O. c #F39C7B",
"+. c #C7A06C",
"@. c #D2A36D",
"#. c #C6A47A",
"$. c #D7AA76",
"%. c #F9A163",
"&. c #F8AA77",
"*. c #EAB17D",
"=. c #2B5A84",
"-. c #466A8F",
";. c #5B7D9D",
":. c #667E96",
">. c #997D94",
",. c #6985A3",
"<. c #8A8A89",
"1. c #9D948D",
"2. c #999998",
"3. c #B08F93",
"4. c #B6A89B",
"5. c #9D9EB2",
"6. c #9CA7B4",
"7. c #A3A3A3",
"8. c #AAAAAA",
"9. c #A2ABB5",
"0. c #B4B5B5",
"q. c #B7B9B9",
"w. c #BCBCBC",
"e. c #CF9B8B",
"r. c #CBA883",
"t. c #D9A988",
"y. c #DAB388",
"u. c #CAAF92",
"i. c #D8B995",
"p. c #ECA788",
"a. c #F7AC8C",
"s. c #E6B687",
"d. c #F2B486",
"f. c #FCBD8C",
"g. c #FEAE90",
"h. c #E7BD95",
"j. c #FEB392",
"k. c #F4BC94",
"l. c #FDBB95",
"z. c #FDBD9A",
"x. c #D1AAA6",
"c. c #C8B5B7",
"v. c #FABFA1",
"b. c #DCC09A",
"n. c #EBC39C",
"m. c #FDC394",
"M. c #F4C69C",
"N. c #FDC59B",
"B. c #F5C89C",
"V. c #FECA9E",
"C. c #DAC3A6",
"Z. c #DACABA",
"A. c #EAC5A6",
"S. c #F6C7A5",
"D. c #FDCCA2",
"F. c #FDCEA9",
"G. c #FDD0A3",
"H. c #FDD1AC",
"J. c #E2CBB9",
"K. c #FDCDB6",
"L. c #E7D2B9",
"P. c #FDD5B3",
"I. c #F6D5B8",
"U. c #FDD6B9",
"Y. c #FDDBBE",
"T. c #9AB0C5",
"R. c #BFC0C0",
"E. c #B9C6D4",
"W. c #C4C4C4",
"Q. c #CACBCB",
"!. c #D9CDC4",
"~. c #C9D1D8",
"^. c #D4D0D1",
"/. c #D5D5D5",
"(. c #DAD7D5",
"). c #DDDDDC",
"_. c #DEDEDE",
"`. c #E8D9C8",
"'. c #F8DAC6",
"]. c #FDDDC4",
"[. c #FCDCC9",
"{. c #E3DED8",
"}. c #EDE1CE",
"|. c #FCE2CC",
" X c #ECE2D3",
".X c #EBE5DC",
"XX c #F4E4D4",
"oX c #FEE5D3",
"OX c #FAE7D8",
"+X c #F5E9DE",
"@X c #FEEADC",
"#X c #CED7E0",
"$X c #DCDFE2",
"%X c #DFE1E4",
"&X c #E1E1E1",
"*X c #E4E4E4",
"=X c #E5E6E6",
"-X c #E6E7E7",
";X c #ECE9E6",
":X c #EAEAEA",
">X c #ECECEC",
",X c #EEEEEE",
"<X c #F5EDE4",
"1X c #FDEEE1",
"2X c #F2EEEB",
"3X c #FEEFE8",
"4X c #FEF1E6",
"5X c #F4F0EC",
"6X c #FEF4EB",
"7X c #EFF2F4",
"8X c #F1F1F1",
"9X c gray95",
"0X c #F3F3F3",
"qX c #F4F5F5",
"wX c #F7F7F7",
"eX c #FCF7F2",
"rX c #FCF9F5",
"tX c #F6F7F8",
"yX c #F9F9F9",
"uX c #FAFAFA",
"iX c #FEFDFD",
"pX c white",
/* pixels */
"pXpXpXpXpXpXpXpXpXpXpXpXpXpXpXpXpXpXpXpXpXpXpXpXpXpXpXpXpXpXpXpXpXpXpXpXpXpXpXpXpXpXpXpXpXpXpXpXpXpXpXpXpXpXpXpXpXpXpXpXpXpXpXpX",
"pXpXpXpXpXpXpXpXpXpXpXpXpXpXpXpXpXpXpXpXpXpXpXpXpXpXpXpXpXpXpXpXpXpXpXpXpXpXpXpXpXpXpXpXpXpXpXpXpXpXpXpXpXpXpXpXpXpXpXpXpXpXpXpX",
"pXpXpXpXpXpXpXpXpXpXpXpXpXpXpXpXpXpXpXpXpXpXpXpXpXpXpXpXpXpXpXpXpXpXpXpXpXpXpXpXpXpXpXpXpXpXpXpXpXpXpXpXpXpXpXpXpXpXpXpXpXpXpXpX",
"pXpXpXpXpXpXpXpXpXpXpXpXpXpXpXpXpXpXpXpXpXpXpXpXpXpXpXpXpXpXpXpXpXpXpXpXpXpXpXyXqXqXqXpXpXpXpXpXpXpXpXpXpXpXpXpXpXpXpXpXpXpXpXpX",
"pXpXpXpXpXpXpXpXpXpXpXpXpXpXpXpXpXpXpXpXpXpXpXpXpXpXpXpXpXpXpXpXpXpXpXpXpX0X=X_._.&X_._.:XyXpXpXpXpXpXpXpXpXpXpXpXpXpXpXpXpXpXpX",
"pXpXpXpXpXpXpXpXpXpXpXpXpXpXpXpXpXpXpXpXpXpXpXpXpXpXpXpXpXpXpXpXpXpXpXpX:X_.:X0X0X0X0X,X=X_.,XpXpXpXpXpXpXpXpXpXpXpXpXpXpXpXpXpX",
"pXpXpXpXpXpXpXpXpXpXpXpXpXpXpXpXpXpXpXpXpXpXpXpXpXpXpXpXpXpX,X=X&X=X,X:X&X0XqXqX0X0X0X0X0X0X_.,XpXpXpXpXpXpXpXpXpXpXpXpXpXpXpXpX",
"pXpXpXpXpXpXpXpXpXpXpXpXpXpXpXpXpXpXpXpXpXpXpXpXpXpXpXpX0X_.&X:X,X:X=X&X0X0XyXyXqXqX0X0X0X0X0X(.yXpXpXpXpXpXpXpXpXpXpXpXpXpXpXpX",
"pXpXpXpXpXpXpXpXpXpXpXpXpXpXpXpXpXpXpXpXpXpXpXpXpXpXpX0X_.,X0X0X0X0X0X0X0X0XpXpXyXqXqX0X0X0X0X,X&XpXpXpXpXpXpXpXpXpXpXpXpXpXpXpX",
"pXpXpXpXpXpXpXpXpXpXpXpXpXpXpXpXpXpXpXpXpXpXpXpXpXpXpX&X,X0XqX:XQ.Q.0X0X0XqXpXpXpXyXyXqX0X0X0X0X(.yXpXpXpXpXpXpXpXpXpXpXpXpXpXpX",
"pXpXpXpXpXpXpXpXpXpXpXpXpXpXpXpXpXpXpXpXpXpXpXpXpXpX0X&X,Xq.h e u 8.qXyXyXpXpXpXpXpXpXyXqX0X0X0X&X0XpXpXpXpXpXpXpXpXpXpXpXpXpXpX",
"pXpXpXpXpXpXpXpXpXpXpXpXpXpXpXpXpXpXpXpXpXpXyXpXpXpX=X2.r = <./._.yXpXyXqX,X=XqXpXpXpXpXyX0X0X0X=X,XpXpXpXpXpXpXpXpXpXpXpXpXpXpX",
"pXpXpXpXpXpXpXpXpXpXpXpXpXpXpXpXpXpXpXpXyX2.q.pXyXW.u @ > w.&Xw.0.Q.Q.W.w.q.q.:XpXpXpXpXqX0X0X0X=X0XpXpXpXpXpXpXpXpXpXpXpXpXpXpX",
"pXpXpXpXpXpXpXpXpXpXpXpXpXpXpXpXpXpXpXpXw.* 8.qX2.= @ u (.qXR.w.W./.:X,X^.q.q.(._.:XpX,X,X0X0X:X/.=X0XyXpXpXpXpXpXpXpXpXpXpXpXpX",
"pXpXpXpXpXpXpXpXpXpXpXpXpXpXpXpXpXpXpX0Xr . l h $ @ k ,XpXyX=Xq.2.<.w.qX0XR.0.0.q._.W.e 8.qX=X_.=X=X&X_.0XpXpXpXpXpXpXpXpXpXpXpX",
"pXpXpXpXpXpXpXpXpXpXpXpXpXpXpXpXpXpXpXW.+   o o @ = w.Q.8.h *     o + j &XqX:X:X=X<.* : _.0X0X0X0X0XqX0X&X=XpXpXpXpXpXpXpXpXpXpX",
"pXpXpXpXpXpXpXpXpXpXpXpXpXpXpXpXpXpXpXl         @ @ + + O         O @ @ * e u e o + + k 0X0X0X0XqXqX0X0X0X&X:XpXpXpXpXpXpXpXpXpX",
"pXpXpXpXpXpXpXpXpXpXpXpXpXpXpXpXpXpXqXe         @ @ @ @ @         o @ @ + .       + @ w.0X0X0XqXyXqXqX0X0X0X_.yXpXpXpXpXpXpXpXpX",
"pXpXpXpXpXpXpXpXpXpXpXpXpXpXpXpXpXpX7.@         % @ @ @ @         o + @ +         @ e =X0X0X0XyXyXqXqX0X0X0X:X=XpXpXpXpXpXpXpXpX",
"pXpXpXpXpXpXpXpXpXpXpXpXpXpXpXpXpX_.> O     # J [ @ @ + p ;       o + @ +         O l Q.Q.,X0XpXyXyXqXqX0X0X0X(.pXpXpXpXpXpXpXpX",
"pXpXpXpXpXpXpXpXpXpXpXpXpXpXpXpXpX2.@ O   = #.N.B.< @ + F r.&     & a @ +         + * * e :XyXpXpXyXqXqX0X0X0X(.yXpXpXpXpXpXpXpX",
"pXpXpXpXpXpXpXpXpXpXpXpXpXpXpXpXpXu @ O # #.V.V.V.[ @ + F D.{ o   o #.F @         * j 2.w.yXpXpXpXyXyXqX0X0X0X_.yXpXpXpXpXpXpXpX",
"pXpXpXpXpXpXpXpXpXpXpXpXpXpXpXpX`.: @ + J V.N.V.D.B.< + f D.V.] o   H M.F .     + w./.q.w.0XpXpXpXpXyX0X0X0X0X_.qXpXpXpXpXpXpXpX",
"pXpXpXpXpXpXpXpXpXpXpXpXpXpXpXL.Q % @ ; h.V.V.D.V.V.{ $ f V.V.V.{ & 1 B.B.f     7.yX&X_.,XpXpXpXpXqX0X0X0X0X0X(.yXpXpXpXpXpXpXpX",
"pXpXpXpXpXpXpXpXpXpXpXpXpXpX X^ L * @ F D.D.V.V.N.V.V.G p D.V.V.V.h.H s.N.V.H   h e : < C.qXqXqX0X0X0X0X0XqX0X_.pXpXpXpXpXpXpXpX",
"pXpXpXpXpXpXpXpXpXpXpXpXpXeX#./ L * @ { D.V.V.V.V.V.V.M.{ D.V.V.V.D.V.V.V.N.B.P X @ @ 2 (  X0X0X0X0X0X0X=X(.(.(.,XyXpXpXpXpXpXpX",
"pXpXpXpXpXpXpXpXpXpXpXyX,XZ.^ ~ ~ * = i.V.V.V.M.` B.V.V.V.D.D.V.V.V.y...V.N.N.N.G @ % D ^ i.qX0X0XqX0X&X_.,X0X,X=X_.qXpXpXpXpXpX",
"pXpXpXpXpXpXpXpXpXpX0X_.=Xu./ ^ / - , h.N.N.N.S.1.s [ n.V.m.m.V.h.P d u.V.N.l.l.r.@ ; ~ ~ +.2X0XqXqX0X_.0X0X0X0X0X,X_.yXpXpXpXpX",
"pXpXpXpXpXpXpXpXpXqX_.,X2X+.^  .s.y 1 k.l.z.z.@XyXQ.<.F k.f.d.t.d 7.(.yXU.l.j.j.t.$ J $./ /  X0XqXyX0X=XqX0X0X0X0X0X=X:XpXpXpXpX",
"pXpXpXpXpXpXpXpXpX&X:X0X;X' ~ *.V.` p l.j.j.z.yXw.u 0X'.N.N.m.B.<XQ.u :XOXj.j.j.p.- t.N. .^ `.qXyXyXqX:XqXqX0X0X0X0X,X&XpXpXpXpX",
"pXpXpXpXpXpXpXpXyX_.0X0X;X' ^ d.N.t.G j.j.g.j.3X,XQ.yXU.V.D.D.V.OX0XQ.yX'.g.g.g.a.a k.V.&.d.`.yXpXyXyX0X,XqX0X0X0X0X0X&XpXpXpXpX",
"pXpXpXpXpXpXpXpX0X&X0X0X,X' Q s.N.z.t.j.g.g.g.z.oX@XU.V.N.p.V.D.D.[.@XK.O.X.g.g.a.t.K.].[.@XeX6XeXpXpXyXyXqX0X0X0X0X,X=XpXpXpXpX",
"pXpXpXpXpXpXpXpX,X&X0X0X0Xr.! @.V.N.z.j.g.g.g.j.j.l.N.V.V.z.D.V.V.N.&.T X.O.g.g.K.6XeX6X6X4X1X1X4XpXpXyXqX0X0X0X0XqX&X0XpXpXpXpX",
"pXpXpXpXpXpXpXpXqX&X0X0X0XZ.! ~ @.d.d.j.g.g.j.j.[.@X[.Y.U.P.P.U.].|.@Xv.j.j.j.[.4X1X1X4X4X4X4X6XpXpXyXqX0X0X0X0X0X,X&XpXpXpXpXpX",
"pXpXpXpXpXpXpXpXyX_.0X0X0X,X .^ ~ ^ / p.j.j.j.j.'.yXpXpXpXyXyXpXpXpXqXF.l.l.K.yX6XeXrXeX6X4X1X@XeXqX0X0X0X0X0X0X0X_.qXpXpXpXpXpX",
"pXpXpXpXpXpXpXpXpX&X,X0X0X0X`./ Q ! ! E z.l.l.l.S.$X$X%X=X=X:X-X%X%X{.S.N.D.6XyX+XC.r.s.D.D.V.D.2X0X0X0X0X0X0X0X0X_.yXpXpXpXpXpX",
"pXpXpXpXpXpXpXpXqX_._.0X0X0X0XL.( ~ C V k.N.N.N.V.@XtX0X0X7X0X0XqXqX[.V.V.F.oXh.( ^ ^ y.D.V.V.H.0X0X0X0XqX0X0X0X0X=X=XpXpXpXpXpX",
"pXpXpXpXpXpXpX=X_.:X_.&X0X0X0X0X{.#.I o.&.V.V.V.V.D.oX6XrXyXyXrX4XY.D.D.V.V.a.K ~ ( C.P.V.V.D.[.qXqXqXqXqX0X0X0X0X0X_.yXpXpXpXpX",
"pXpXpXpXpXpX=X&X0X0X0X&X=X0X0X0X0X2Xp.m.%.&.m.V.V.V.V.D.H.P.P.H.V.V.D.V.V.p.B K i..X5XH.D.|.4XeXpXpXpXyXyXqX0X0X0X0X_.qXpXpXpXpX",
"pXpXpXpXpXqX(.0X0X0X0X0X0X0X0X0X0X0XF.D.f.%.%.&.a.V.G.D.V.V.D.D.D.V.N.p.U n x x.tX0X<XD.@XyX4XeXpXpXpXpXqX0X0X0X0XqX&X0XpXpXpXpX",
"pXpXpXpXpX=X=X0X0X0X0X0X0X0XqX;X{.~.S.D.V.m.&.| v m V U E E E E Y I N x x v x 9 ,.E.XXH.1X@X4XyXyXyXyXqX0X0X0X:X_.(./.:XpXpXpXpX",
"pXpXpXpXpX=X,X0X0XqX0X0X0X0X_._.,X9.A.V.m.N.V.k.n v v x v I } N n v v v x b 7 4 w 4.D.D.D.D.OX0X0X0XqXqXqX0X(.&X,X0X,X&X&XyXpXpX",
"pXpXpXpXpX=X,X0X0X0X0X0X0X&X(.yXyXyXU.V.m.m.V.m.n v z z A W o.I B m n v c 3 4 w s.m.N.N.D.D.`.0X0XqXyXyXqX&X:X0X0X0X0X0X=X:XpXpX",
"pXpXpXpXpX:X=X0X0X0X0X0X0X(.,XpXqXyX].V.m.m.V.B.Z b v v W e.3.W R S M 8 6 4 4 2.f.f.m.V.U.[.!.0X0XyXpXyXqX=X0X0X0X0X0X0X0X_.yXpX",
"pXpXpXpXpXqX_.0X0X0X0X0X0XI.Z.{.pXqXoXV.N.m.V.V.q 3 8 9 c.E.T.5.>.g 5 4 4 4 -.(.U.D.Y.].=X!.S.<X0XqXpXyXqX=X0X0X0X0X0X0X0X=X,XpX",
"pXpXpXpXpXpX&X:X0X0X0X0X<XD.V.A.(.qX4XD.V.V.V.V.w =.-.T.7X=X~.;.0 4 4 4 4 4 :.0X0X0XeX{.J.V.N.OX0XqXpXpXyX:X:X0X0X0X0X0X0X=X,XpX",
"pXpXpXpXpXpXyX_.,X0X0X0X<XD.V.V.S.Z..XH.V.D.V.H.Q.0XpXpXpXpX#X,.,.,.,.,.,.;.6.=XyX;X!.A.V.V.V.+XqXpXpXpXyXqX:X,X0X0X0X0X0X&X0XpX",
"pXpXyXpXpXpXpXqX/.0X0X0X2XF.V.V.V.V.J.I.V.V.D.4X1XpXpXpXpXpXyXqXqXqXqXqXqXqXqX{.(.J.V.V.V.H.@XyXpXpXpXpXpXyXqX0X0X0X0X0X,X_.pXpX",
"pX:X/.,XyXpXpX=X&X0X0X0X0X].V.V.V.V.].+XD.V.|.eXeXpXyXyXyXqX0X0X0X0X0X0X0X0X0X0XqXY.V.V.H.4X1XeXpXpXpXpXpXyX0X0X0X0X0X,X(.qXpXpX",
"pX,X&X=X(.(._.=X0X0X0X0X0X+XD.V.V.V.U.2XH.V.U.].|.0X0X0X0X0X0X0X0X0X0X0X0X0X0X0X0XP.V.D.@X6XrXpXpXpXpXyXqX0X0X0X0X0X0X:X=XpXpXpX",
"pXqX_.0X0X0X0X0X0X0X0X0X0X0XP.V.V.V.P.0X].V.V.V.D.U.OX0X0X0X0X0X,X0X0X0X0X0X0X0X0XF.V.F.4X4XtXqXqXqX,X=X0X0X0X0X0X0X0X=X:XpXpXpX",
"pXpX&X:X0X0X0X0X0X0X0X0X0X0X|.V.V.D.H.0XXXN.m.m.N.D.D.[.0X0X0X0X(.,X0X0X0X0X0X0X2XD.D.D.H.+X0X0X0X0X_.=X0X0X0X0X0X0X0X_.qXpXpXpX",
"pXpXqX_.:X0X0X0X0X0X0X0X0X:Xx.P ` r.n.5X|.N.f.N.f.m.V.P.0X0X,X_.(.,X0X0X0X0X:X_.`.i.{ ) ] Z.0X0X,X_._.0X0X0X0X0X0X0X&X=XpXpXpXpX",
"pXpXpXqX_.&X=X:X=X&X_._./._ p , G 1 a c.`.m.m.N.m.m.D.{.&X_.&X0X,X&X_.&X_._.=XqX3.t i i t s 4.&X_.,X_.&X,X,X0X,X=X_.:XpXpXpXpXpX",
"pXpXpXpXpX0X:X:X,XqXpXyXI.V.D.B.[ r.D.C.XXV.m.f.f.m.D.;X,XqXpXpXpXpXyXqXqXpXpX<Xh.D.] r.D.D.M.OXpXpXpX0X=X_._.&X:XqXpXpXpXpXpXpX",
"pXpXpXpXpXpXpXpXpXpXpX<X@.@.$.$.s.$.*.y.4XF.V.V.D.D.P.rXpXpXpXpXpXpXpXpXpXpXpXXX@.*.$.s.s.$. .b.pXpXpXpXpXpXpXpXpXpXpXpXpXpXpXpX",
"pXpXpXpXpXpXpXpXpXpXpXpX6X+XXX`.`.XX<XyXpXeXoX|.|.OXrXpXpXpXpXpXpXpXpXpXpXpXpXpX<X.X X`.}.XX5XyXpXpXpXpXpXpXpXpXpXpXpXpXpXpXpXpX",
"pXpXpXpXpXpXpXpXpXpXpXpXpXpXpXpXpXpXpXpXpXpXpXpXpXpXpXpXpXpXpXpXpXpXpXpXpXpXpXpXpXpXpXpXpXpXpXpXpXpXpXpXpXpXpXpXpXpXpXpXpXpXpXpX",
"pXpXpXpXpXpXpXpXpXpXpXpXpXpXpXpXpXpXpXpXpXpXpXpXpXpXpXpXpXpXpXpXpXpXpXpXpXpXpXpXpXpXpXpXpXpXpXpXpXpXpXpXpXpXpXpXpXpXpXpXpXpXpXpX",
"pXpXpXpXpXpXpXpXpXpXpXpXpXpXpXpXpXpXpXpXpXpXpXpXpXpXpXpXpXpXpXpXpXpXpXpXpXpXpXpXpXpXpXpXpXpXpXpXpXpXpXpXpXpXpXpXpXpXpXpXpXpXpXpX",
"pXpXpXpXpXpXpXpXpXpXpXpXpXpXpXpXpXpXpXpXpXpXpXpXpXpXpXpXpXpXpXpXpXpXpXpXpXpXpXpXpXpXpXpXpXpXpXpXpXpXpXpXpXpXpXpXpXpXpXpXpXpXpXpX",
"pXpXpXpXpXpXpXpXpXpXpXpXpXpXpXpXpXpXpXpXpXpXpXpXpXpXpXpXpXpXpXpXpXpXpXpXpXpXpXpXpXpXpXpXpXpXpXpXpXpXpXpXpXpXpXpXpXpXpXpXpXpXpXpX",
"pXpXpXpXpXpXpXpXpXpXpXpXpXpXpXpXpXpXpXpXpXpXpXpXpXpXpXpXpXpXpXpXpXpXpXpXpXpXpXpXpXpXpXpXpXpXpXpXpXpXpXpXpXpXpXpXpXpXpXpXpXpXpXpX",
"pXpXpXpXpXpXpXpXpXpXpXpXpXpXpXpXpXpXpXpXpXpXpXpXpXpXpXpXpXpXpXpXpXpXpXpXpXpXpXpXpXpXpXpXpXpXpXpXpXpXpXpXpXpXpXpXpXpXpXpXpXpXpXpX"
};
