/* XPM */
static char *_bc944228cd04977e72117cf7eb6b0c4HnhvHwoMWZIFWPoN[] = {
/* columns rows colors chars-per-pixel */
"64 64 207 2 ",
"   c #010101",
".  c #070809",
"X  c #0A0B0C",
"o  c #0E0F11",
"O  c #0F1012",
"+  c #131416",
"@  c #151619",
"#  c #17181A",
"$  c #191A1C",
"%  c #1E221E",
"&  c #1D1E21",
"*  c #1F2322",
"=  c #222326",
"-  c #2C2C2D",
";  c #332924",
":  c #262A37",
">  c #2C2E33",
",  c #2A2E39",
"<  c #2D313C",
"1  c #323233",
"2  c #303D34",
"3  c #363639",
"4  c #35383C",
"5  c #3A3A3C",
"6  c #68171B",
"7  c #44352D",
"8  c #742724",
"9  c #39463A",
"0  c #323541",
"q  c #353944",
"w  c #383C47",
"e  c #3D4241",
"r  c #3D414C",
"t  c #414246",
"y  c #4A4B4B",
"u  c #524B43",
"i  c #52594B",
"p  c #444953",
"a  c #454A55",
"s  c #4B4D55",
"d  c #4D525D",
"f  c #525253",
"g  c #55565A",
"h  c #58595B",
"j  c #715C49",
"k  c #546E48",
"l  c #4F5560",
"z  c #515661",
"x  c #555A65",
"c  c #5C5E65",
"v  c #595E69",
"b  c #5D626D",
"n  c #5E6571",
"m  c #636364",
"M  c #68686B",
"N  c #6B6C6C",
"B  c #6A7C6E",
"V  c #606671",
"C  c #636974",
"Z  c #6A6D74",
"A  c #686E7A",
"S  c #6D777B",
"D  c #727372",
"F  c #73757D",
"G  c #7A7A7B",
"H  c #957858",
"J  c #AF7355",
"K  c #8E7363",
"L  c #BA7962",
"P  c #628549",
"I  c #658A4B",
"U  c #6A8D4E",
"Y  c #698D51",
"T  c #6D9352",
"R  c #6F9853",
"E  c #729A55",
"W  c #74995A",
"Q  c #7DA05D",
"!  c #768E70",
"~  c #93825F",
"^  c #8E985B",
"/  c #B58945",
"(  c #AF8A53",
")  c #AA945F",
"_  c #938A74",
"`  c #AA8667",
"'  c #AF946B",
"]  c #B69A64",
"[  c #A68476",
"{  c #87A466",
"}  c #88A278",
"|  c #BFA16D",
" . c #B7A474",
".. c #CD995D",
"X. c #CC8D68",
"o. c #D2997A",
"O. c #CEA270",
"+. c #D4AC77",
"@. c #E9A77B",
"#. c #EDB07C",
"$. c #6F7681",
"%. c #757B85",
"&. c #7A7E87",
"*. c #7D838E",
"=. c #828282",
"-. c #84858A",
";. c #878889",
":. c #838994",
">. c #8A8D93",
",. c #8D9299",
"<. c #93959B",
"1. c #999A9A",
"2. c #AF9D8A",
"3. c #A49D98",
"4. c #91B28D",
"5. c #ABBC8D",
"6. c #B4A49A",
"7. c #A0B694",
"8. c #959AA2",
"9. c #999BA1",
"0. c #9EA1A7",
"q. c #A3A4A5",
"w. c #A4A6AC",
"e. c #A6A9AE",
"r. c #ACACAE",
"t. c #B3B0AC",
"y. c #A8ACB2",
"u. c #B2B2B3",
"i. c #B1B5BB",
"p. c #B7B8BB",
"a. c #B9BABB",
"s. c #C2A589",
"d. c #D8AA8A",
"f. c #CCB888",
"g. c #DBB68A",
"h. c #C4A89A",
"j. c #E8AC85",
"k. c #F7AC83",
"l. c #E9B688",
"z. c #FBB986",
"x. c #F2B08A",
"c. c #F9B388",
"v. c #FCBC8B",
"b. c #EDBF91",
"n. c #FDB493",
"m. c #F6BA94",
"M. c #FBBD93",
"N. c #C4B9AE",
"B. c #94C18F",
"V. c #A7C394",
"C. c #B0C89F",
"Z. c #C6C297",
"A. c #DBC69B",
"S. c #ECC396",
"D. c #FDC294",
"F. c #F4C599",
"G. c #FDC59B",
"H. c #FDC99D",
"J. c #D9C6A8",
"K. c #D9CBB7",
"L. c #C1D3B4",
"P. c #E9C3A7",
"I. c #FCCBA2",
"U. c #F9CDA8",
"Y. c #FED1AA",
"T. c #EACDB2",
"R. c #E0D5B6",
"E. c #FCD7B7",
"W. c #FBD7B8",
"Q. c #B6BAC0",
"!. c #BEBFC2",
"~. c #BEC0C4",
"^. c #C3C3C4",
"/. c #C4C8C9",
"(. c #C7C8CC",
"). c #CBCBCB",
"_. c #C8D5C4",
"`. c #D4D1CE",
"'. c #C4CCD2",
"]. c #CACDD2",
"[. c #CED0D4",
"{. c #CED4D9",
"}. c #D2D3D4",
"|. c #D3D5D9",
" X c #D3D9DD",
".X c #DADBDC",
"XX c #E7DCCB",
"oX c #FBDDC2",
"OX c #DEE5D7",
"+X c #FEE1C7",
"@X c #FDE3CC",
"#X c #E9E4D6",
"$X c #F9EADD",
"%X c #D7DCE1",
"&X c #DCDEE1",
"*X c #DDE2E5",
"=X c #E3E4E4",
"-X c #E4E6E8",
";X c #EBEBEC",
":X c #F8EFE4",
">X c #FAF2E9",
",X c #EEEFF0",
"<X c #EFF0F2",
"1X c #F4F4F5",
"2X c #FAF8F5",
"3X c #F7F7F8",
"4X c #FFFFFF",
/* pixels */
"4X4X4X4X4X4X4X4X4X4X4X4X4X4X4X4X4X4X4X4X4X4X4X4X4X4X4X4X4X4X4X4X4X4X4X4X4X4X4X4X4X4X4X4X4X4X4X4X4X4X4X4X4X4X4X4X4X4X4X4X4X4X4X4X",
"4X4X4X4X4X4X4X4X4X4X4X4X4X4X4X4X4X4X4X4X4X4X4X4X4X4X4X4X4X4X4X4X4X4X4X4X4X4X4X4X4X4X4X4X4X4X4X4X4X4X4X4X4X4X4X4X4X4X4X4X4X4X4X4X",
"4X4X4X4X4X4X4X4X4X4X4X4X4X4X4X4X4X4X4X4X4X4X4X4X4X4X4X4X4X4X4X4X4X4X4X4X4X4X4X4X4X4X4X4X4X4X4X4X4X4X4X4X4X4X4X4X4X4X4X4X4X4X4X4X",
"4X4X4X4X4X4X4X4X4X4X4X4X4X4X4X4X4X4X4X4X4X4X4X4X4X4X;X).q.;.N Z >.p..X1X4X4X4X4X4X4X4X4X4X4X4X4X4X4X4X4X4X4X4X4X4X4X4X4X4X4X4X4X",
"4X4X4X4X4X4X4X4X4X4X4X4X4X4X4X4X4X4X4X4X4X4X4X4X-X;.t = # @ # # @ # > h u.1X4X4X4X4X4X4X4X4X4X4X4X4X4X4X4X4X4X4X4X4X4X4X4X4X4X4X",
"3XQ.8.w..X3X4X4X4X4X4X4X4X4X4X4X4X4X4X4X4X4X4X).e # @ @ @ @ @ @ @ @ # @ & G 1X4X4X4X4X4X4X4X4X4X4X4X4X4X4X4X4X4X4X4X4X4X4X4X4X4X",
"4X~.b b V >.-X4X4X4X4X4X4X4X4X4X4X4X4X4X4X4X.X> # @ @ + @ @ @ @ @ @ @ @ # $ G 3X4X4X4X4X4X4X4X4X4X4X4X4X4X4X4X4X4X4X4X4X4X4X4X4X",
"4X4X^.p w x b [.4X4X4X4X4X4X4X4X4X4X4X4X4X1Xm # @ @ @ @ @ @ @ @ @ @ @ @ @ @ & p.4X4X4X4X4X4X4X4X4X4X4X4X4X4X4X4X4X4X4X4X4X4X4X4X",
"4X4X4X.Xc , p z i.3X4X4X4X4X4X4X4X4X4X4X4X^.# # @ @ @ @ # @ @ @ @ @ @ @ @ @ @ y 3X4X4X4X4X4X4X4X4X4X4X4X4X4X4X4X4X4X4X4X4X4X4X4X",
"4X4X4X4X;XF , r d 9.3X4X4X4X4X4X4X4X4X4X3XN @ @ @ @ @ @ @ @ @ @ @ @ @ @ @ @ @ # ).4X4X4X4X4X4X4X4X4X4X4X4X4X4X4X4X4X4X4X4X4X4X4X",
"4X4X4X4X4X,X>.< 0 v >.,X4X4X4X4X4X4X4X4X-X5 @ @ @ @ @ @ @ @ @ @ @ @ @ @ @ @ # @ ;.4X4X4X4X4X4X4X4X4X4X4X4X4X4X4X4X4X4X4X4X4X4X4X",
"4X4X4X4X4X4X3Xe.w 0 z &.=X4X4X4X4X4X4X4X|.= @ + @ + @ @ @ @ @ @ @ @ @ @ @ @ + @ f 1X4X4X4X4X4X4X4X4X4X4X4X4X4X4X4X4X4X4X4X4X4X4X",
"4X4X4X4X4X4X4X4Xp.r < l F |.4X4X4X4X4X4Xu.# @ @ + @ @ @ @ @ @ @ @ @ @ @ @ @ @ @ > ;X4X4X4X4X4X4X4X4X4X4X4X4X4X4X4X4X4X4X4X4X4X4X",
"4X4X4X4X4X4X4X4X4X(.s < a Z [.4X4X4X4X1Xm @ o o @ @ + @ @ @ @ + @ @ @ @ + @ + + # ).).}.1X4X4X4X4X4X4X4X4X4X4X4X4X4X4X4X4X4X4X4X",
"4X4X4X4X4X4X4X4X4X4X|.g < a x (.4X4X4X-X5 X X + @ + @ @ @ @ @ @ @ @ @ @ @ @ + . O - # & <.4X4X4X4X4X4X4X4X4X4X4X4X4X4X4X4X4X4X4X",
"4X4X4X4X4X4X4X4X4X4X4X;XZ < r v a.3X4X1Xs X o + @ @ @ @ @ @ @ @ @ @ @ @ @ @ @ + + # & m ;X4X4X4X4X4X4X4X4X4X4X4X4X4X4X4X4X4X4X4X",
"4X4X4X4X4X4X4X4X4X4X4X4X<XF , r d y.3X=X5 + X O @ @ @ @ @ @ @ @ @ @ @ @ @ @ + X @ @ 5 ).4X4X4X4X4X4X4X4X4X4X4X4X4X4X4X4X4X4X4X4X",
"4X4X4X4X4X4X4X4X4X4X4X4X4X1X-., w b w.3X1.2 $ + + + @ @ @ @ @ # @ @ @ @ + + + * i * @ 1 }.4X4X4X4X4X4X4X4X4X4X4X4X4X4X4X4X4X4X4X",
"4X4X4X4X4X4X4X4X4X4X4X4X4X4X1X>.< w z w.R.Z.} J K N - e 1 ; ; ; 7 f 5 y =.H ` 4.A.2.M *.-X4X4X4X4X4X4X4X4X4X4X4X4X4X4X4X4X4X4X4X",
"4X4X4X4X4X4X4X4X4X4X4X4X4X4X4X1X<.q w v [ A.5.c.k.h.3.h.j.j.@.j.j.P.6.6.d.k.b.B.H.U.>X4X4X4X4X4X4X4X4X4X4X4X4X4X4X4X4X4X4X4X4X4X",
"4X4X4X4X4X4X4X4X4X4X4X4X4X4X4X4X3X9.q w x _ 5.j.x.k.j.x.M.H.c.G.H.M.j.j.n.n.m.7.D.G.>X4X4X4X4X4X4X4X4X4X4X4X4X4X4X4X4X4X4X4X4X4X",
"4X4X4X4X4X4X4X4X4X4X4X4X4X4X4X4X4X3Xw.w q v ~ ] O.c.k.v.G.H.c.H.H.G.M.n.n.n.m.5.M.I.2X4X4X4X4X4X4X4X4X4X4X4X4X4X4X4X4X4X4X4X4X4X",
"4X4X4X4X4X4X4X4X4X4X4X4X4X4X4X4X4X4X4Xe.w i ) ] c.G.H.v.M.H.D.H.H.G.l...x.n.n.l.#.S.2X4X4X4X4X4X3X3X3X1X1X1X1X;X-X.X].!.u.p.[.4X",
"4X4X4X4X4X4X4X4X4X4X4X4X4X4X4X4X4X4X4X4Xt.) ] F.G.z.D.G.@.x.M.M.@.j.g./ ` [ [ ~ ~ H 3.0.<.<.-.-.&.F Z V x d s w 0 , , 0 z %.|.4X",
"4X4X4X4X4X4X4X4X4X4X4X4X4X4X4X4X4X4X4X:X .] S.H.z.D.v.G.g.P.X.d.d.f.K./ 5 : : : : : , , , , , , < < 0 w w w r p a d b $.8.&X4X4X",
"4X4X4X4X4X4X4X4X4X4X4X4X4X4X4X4X4X4X4X2XJ.b.H.v.D.I.v.z.l.#XJ.#XXXJ.K./ N n n b b b b b V C A S $.%.*.*.:.,.8.0.e.i.].-X3X4X4X4X",
"4X4X4X4X4X4X4X4X4X4X4X4X4X4X4X4X4X4X4X4X2XU.D.G.H.v.D.G.z.I.U.W.W.W.l./ s.N.].}.|.|.|.|.|..X&X=X;X,X1X1X1X1X1X3X4X4X4X4X4X4X4X4X",
"4X4X4X4X4X4X4X4X4X4X4X4X4X4X4X4X4X4X4X4X=XU.H.H.v.D.G.v.D.v.D.Y.Y.Y.P.| N.).[.{.3X4X4X4X4X4X4X4X4X4X4X4X4X4X4X4X4X4X4X4X4X4X4X4X",
"4X4X4X4X4X4X4X4X4X4X4X4X4X4X4X4X4X4X4X,XK.D.G.H.G.G.v.G.H.2.$X@X@X>XoXd.( +.@X&X%X4X4X4X4X4X4X4X4X4X4X4X4X4X4X4X4X4X4X4X4X4X4X4X",
"4X4X4X4X4X4X4X4X4X4X4X4X4X4X4X4X4X4X4X%XXXH.v.D.H.D.G.H.' j F.G.v.D.X.8 8 / S.:X'.3X4X4X4X4X4X4X4X4X4X4X4X4X4X4X4X4X4X4X4X4X4X4X",
"4X4X4X4X4X4X4X4X4X4X4X4X4X4X4X4X4X4X4X X#XI.H.D.v.D.H.T.u d.D.z.v.G.o.8 6 J H.+X'.3X4X4X4X4X4X4X4X4X4X4X4X4X4X4X4X4X4X4X4X4X4X4X",
"4X4X4X4X4X4X4X4X4X4X4X4X4X4X4X4X4X4X4X*X.X+XH.H.H.D.E.2XK.b.v.G.v.H.H.L J F.I.oX'.3X4X4X4X4X4X4X4X4X4X4X4X4X4X4X4X4X4X4X4X4X4X4X",
"4X4X4X4X4X4X4X4X4X4X4X4X4X4X4X4X4X4X4X3X].-X$XW.E.J.=X@Xv.D.z.H.D.v.H.G.v.I.I.).*X4X4X4X4X4X4X4X4X4X4X4X4X4X4X4X4X4X4X4X4X4X4X4X",
"4X4X4X4X4X4X4X4X4X4X4X4X4X4X4X4X4X4X4X4X3X X].[./..XXXD.v.G.D.v.H.v.G.H.D.T.`.-X4X4X4X4X4X4X4X4X4X4X4X4X4X4X4X4X4X4X4X4X4X4X4X4X",
"4X4X4X4X4X4X4X4X4X4X4X4X4X4X4X4X4X4X4X4X4X4X-X X1XXX] +.H.v.H.v.D.H.H.W.>X|.3X4X4X4X4X4X4X4X4X4X4X4X4X4X4X4X4X4X4X4X4X4X4X4X4X4X",
"4X4X4X4X4X4X4X4X4X4X4X4X4X4X4X4X4X4X4X4X4X4X=X_.OXOX .] l.G.v.H.G.H.S.#XOX/.1X4X4X4X4X4X4X4X4X4X4X4X4X4X4X4X4X4X4X4X4X4X4X4X4X4X",
"4X4X4X4X4X4X4X4X4X4X4X4X4X4X4X4X4X4X4X4X4X4XC.W Y ! D ) ] b.D.H.F. .Q W Y W _.4X4X4X4X4X4X4X4X4X4X4X4X4X4X4X4X4X4X4X4X4X4X4X4X4X",
"4X4X4X4X4X4X4X4X4X4X4X4X4X4X4X4X4X4X4X4X4X4XV.R B n w u ) | g.f.{ I E E I E L.4X4X4X4X4X4X4X4X4X4X4X4X4X4X4X4X4X4X4X4X4X4X4X4X4X",
"4X4X4X4X4X4X4X4X4X4X4X4X4X4X4X4X4X4X4X4X4X4X7.S x < < i ^ ) U E E I R E I E L.4X4X4X4X4X4X4X4X4X4X4X4X4X4X4X4X4X4X4X4X4X4X4X4X4X",
"4X4X4X4X4X4X4X4X4X4X4X4X4X4X4X4X4X4X4X4X4X[.&.a , 4 k I E W I E E I R R I R V.4X4X4X4X4X4X4X4X4X4X4X4X4X4X4X4X4X4X4X4X4X4X4X4X4X",
"4X4X4X4X4X4X4X4X4X4X4X4X4X4X4X4X4X4X4X3Xi.A w , e Y E U E E I E E I R E I R { 3X4X4X4X4X4X4X4X4X4X4X4X4X4X4X4X4X4X4X4X4X4X4X4X4X",
"4X4X4X4X4X4X4X4X4X4X4X4X4X4X4X4X4X4X<Xw.n 0 , 9 I T U P T T P T T P U T P I W <X4X4X4X4X4X4X4X4X4X4X4X4X4X4X4X4X4X4X4X4X4X4X4X4X",
"4X4X4X4X4X4X4X4X4X4X4X4X4X4X4X4X4X=X,.x < : & $ % % % % % % % % * % % % % $ - =X4X4X4X4X4X4X4X4X4X4X4X4X4X4X4X4X4X4X4X4X4X4X4X4X",
"4X4X4X4X4X4X4X4X4X4X4X4X4X4X4X4X|.:.d < s 4 @ @ @ X X O + @ @ + X . X + @ @ # q.4X4X4X4X4X4X4X4X4X4X4X4X4X4X4X4X4X4X4X4X4X4X4X4X",
"4X4X4X4X4X4X4X4X4X4X4X4X4X4X4X].&.p < b !.3 @ + @ + O X X + @ + X + @ @ @ @ @ g 4X4X4X4X4X4X4X4X4X4X4X4X4X4X4X4X4X4X4X4X4X4X4X4X",
"4X4X4X4X4X4X4X4X4X4X4X4X4X3X!.$.w < %.;Xu.# @ @ @ @ + + + @ @ @ o X X O + @ @ * -X4X4X4X4X4X4X4X4X4X4X4X4X4X4X4X4X4X4X4X4X4X4X4X",
"4X4X4X4X4X4X4X4X4X4X4X4X1Xy.C w < >.1X3XM # @ @ O . . X + # = @ @ + o X + @ @ # 0.4X4X4X4X4X4X4X4X4X4X4X4X4X4X4X4X4X4X4X4X4X4X4X",
"4X4X4X4X4X4X4X4X4X4X4X1X0.v < < q.3X4X=X3 @ @ @ + + @ @ @ 1 p.# @ @ @ @ @ @ @ # g 1X4X4X4X4X4X4X4X4X4X4X4X4X4X4X4X4X4X4X4X4X4X4X",
"4X4X4X4X4X4X4X4X4X4X;X<.x < w !.4X4X4X^.& @ + @ + @ @ @ # -.3Xg @ @ @ + + @ @ # > ;X4X4X4X4X4X4X4X4X4X4X4X4X4X4X4X4X4X4X4X4X4X4X",
"4X4X4X4X4X4X4X4X4X;X,.z < s }.4X4X4X4Xr.@ @ @ + @ + @ @ - }.4Xa.# @ @ + + @ + @ & -X4X4X4X4X4X4X4X4X4X4X4X4X4X4X4X4X4X4X4X4X4X4X",
"4X4X4X4X4X4X4X4X1X8.x < c |.4X4X4X4X4Xr.@ @ @ @ @ @ @ # N 3X4X3Xt # @ @ @ @ @ @ $ =X4X4X4X4X4X4X4X4X4X4X4X4X4X4X4X4X4X4X4X4X4X4X",
"4X4X4X4X4X4X4X4Xi.V 0 C &X4X4X4X4X4X4X).= @ @ + @ @ # = !.4X4X4X1.# @ @ @ @ @ # 3 1X4X4X4X4X4X4X4X4X4X4X4X4X4X4X4X4X4X4X4X4X4X4X",
"4X4X4X4X4X4X4X;X&.w F ;X4X4X4X4X4X4X4X=X3 # @ @ @ @ # c 1X4X4X4X-X1 @ @ @ @ @ # f 1X4X4X4X4X4X4X4X4X4X4X4X4X4X4X4X4X4X4X4X4X4X4X",
"4X4X4X4X4X4X4X(.C -.1X4X4X4X4X4X4X4X4X1Xy @ @ @ @ @ 1 }.4X4X4X4X4Xq.= @ @ @ @ @ G 4X4X4X4X4X4X4X4X4X4X4X4X4X4X4X4X4X4X4X4X4X4X4X",
"4X4X4X4X4X4X4X/.e.3X4X4X4X4X4X4X4X4X4X-X-   . X + 1 ~.4X4X4X4X4X4X3X<.= + X . . y 1X4X4X4X4X4X4X4X4X4X4X4X4X4X4X4X4X4X4X4X4X4X4X",
"4X4X4X4X4X4X4X4X4X4X4X4X4X4X4X4X4X4X4X^.X         r.4X4X4X4X4X4X4X4X4XG         # ;X4X4X4X4X4X4X4X4X4X4X4X4X4X4X4X4X4X4X4X4X4X4X",
"4X4X4X4X4X4X4X4X4X4X4X4X4X4X4X4X4X4X4X=.        + =X4X4X4X4X4X4X4X4X4Xp.X         r.4X4X4X4X4X4X4X4X4X4X4X4X4X4X4X4X4X4X4X4X4X4X",
"4X4X4X4X4X4X4X4X4X4X4X4X4X4X4X4X.Xy - +         f 3X4X4X4X4X4X4X4X4X4X;X1         $ - M ;X4X4X4X4X4X4X4X4X4X4X4X4X4X4X4X4X4X4X4X",
"4X4X4X4X4X4X4X4X4X4X4X4X4X4X4X4XD               1.4X4X4X4X4X4X4X4X4X4X4XM             . q.4X4X4X4X4X4X4X4X4X4X4X4X4X4X4X4X4X4X4X",
"4X4X4X4X4X4X4X4X4X4X4X4X4X4X4X3Xy               q.4X4X4X4X4X4X4X4X4X4X4XD               =.4X4X4X4X4X4X4X4X4X4X4X4X4X4X4X4X4X4X4X",
"4X4X4X4X4X4X4X4X4X4X4X4X4X4X4X4XN           . . u.4X4X4X4X4X4X4X4X4X4X4XG   .         . 1.4X4X4X4X4X4X4X4X4X4X4X4X4X4X4X4X4X4X4X",
"4X4X4X4X4X4X4X4X4X4X4X4X4X4X4X4X.Xf y y f D =.M ;X4X4X4X4X4X4X4X4X4X4X4X}.m <.m f y t N ;X4X4X4X4X4X4X4X4X4X4X4X4X4X4X4X4X4X4X4X",
"4X4X4X4X4X4X4X4X4X4X4X4X4X4X4X4X4X4X4X4X4X4X4X4X4X4X4X4X4X4X4X4X4X4X4X4X4X4X4X4X4X4X4X4X4X4X4X4X4X4X4X4X4X4X4X4X4X4X4X4X4X4X4X4X",
"4X4X4X4X4X4X4X4X4X4X4X4X4X4X4X4X4X4X4X4X4X4X4X4X4X4X4X4X4X4X4X4X4X4X4X4X4X4X4X4X4X4X4X4X4X4X4X4X4X4X4X4X4X4X4X4X4X4X4X4X4X4X4X4X"
};
