/* XPM */
static char *_b7284b43e8f479bd18417acb0cf3e4dWGigRJ2s3SxFhlj0[] = {
/* columns rows colors chars-per-pixel */
"64 64 229 2 ",
"   c #261D17",
".  c #292019",
"X  c #0D244D",
"o  c #1F2C4F",
"O  c #1A2D54",
"+  c #1C3157",
"@  c #3A3D4D",
"#  c #2B3658",
"$  c #063969",
"%  c #1E3763",
"&  c #3D4150",
"*  c #05416E",
"=  c #054573",
"-  c #06497B",
";  c #354B62",
":  c #4A4557",
">  c #7B5D4A",
",  c #7D634F",
"<  c #5B5B6D",
"1  c #5B647D",
"2  c #776563",
"3  c #7B7E7A",
"4  c #E7760E",
"5  c #E36A16",
"6  c #E57412",
"7  c #E77614",
"8  c #E67814",
"9  c #EC7D13",
"0  c #E67B1A",
"q  c #E87D1D",
"w  c #E56F2B",
"e  c #E67E23",
"r  c #E87F25",
"t  c #E97939",
"y  c #906C4F",
"u  c #9B7959",
"i  c #8B7A6C",
"p  c #EF8114",
"a  c #ED821B",
"s  c #F08315",
"d  c #F0861A",
"f  c #F2891C",
"g  c #EB8425",
"h  c #E7822B",
"j  c #E8822B",
"k  c #F08722",
"l  c #F38C24",
"z  c #F18D2A",
"x  c #F59025",
"c  c #F69429",
"v  c #F8972C",
"b  c #F8992D",
"n  c #EB8A35",
"m  c #EC8D3B",
"M  c #F28D31",
"N  c #EF933C",
"B  c #F39437",
"V  c #B4844D",
"C  c #B9874F",
"Z  c #AD8257",
"A  c #BF8C54",
"S  c #9C8569",
"D  c #AF8B6C",
"F  c #B99574",
"G  c #CD965E",
"H  c #EB854C",
"J  c #EE9445",
"K  c #EF9A4F",
"L  c #F29845",
"P  c #F39D4B",
"I  c #ED8D53",
"U  c #ED9C57",
"Y  c #F49D58",
"T  c #F1A053",
"R  c #F5A356",
"E  c #CB9965",
"W  c #CC9D6A",
"Q  c #C59A7A",
"!  c #DB9171",
"~  c #F19C65",
"^  c #E89172",
"/  c #D4A26E",
"(  c #C8A07A",
")  c #DAAA7B",
"_  c #EEA766",
"`  c #F2A463",
"'  c #F6AA68",
"]  c #E2AF7E",
"[  c #F5AA76",
"{  c #F8B77A",
"}  c #FBB47E",
"|  c #074E83",
" . c #0A538A",
".. c #0B5E9A",
"X. c #125B95",
"o. c #0D619B",
"O. c #17659D",
"+. c #3C6A8E",
"@. c #126CAA",
"#. c #146EAB",
"$. c #0D70B5",
"%. c #1376BA",
"&. c #1777B8",
"*. c #1B7ABD",
"=. c #2976AC",
"-. c #397EAD",
";. c #227CBB",
":. c #4E7492",
">. c #6C7B98",
",. c #227FC0",
"<. c #3B89BF",
"1. c #7E8788",
"2. c #4587B3",
"3. c #528CB4",
"4. c #5891B9",
"5. c #6E92B0",
"6. c #2482C1",
"7. c #2C86C4",
"8. c #378CC7",
"9. c #3F91CA",
"0. c #418DC3",
"q. c #4996CB",
"w. c #559ED0",
"e. c #5BA3D4",
"r. c #68AAD7",
"t. c #73AFDA",
"y. c #7AB6DE",
"u. c #898C8B",
"i. c #859098",
"p. c #AF998C",
"a. c #94A9B2",
"s. c #93A9B6",
"d. c #ACADA7",
"f. c #B6B4AB",
"g. c #E69181",
"h. c #D9AC89",
"j. c #EBA48A",
"k. c #F1AC8A",
"l. c #E7B689",
"z. c #FAB683",
"x. c #FABC85",
"c. c #F8B489",
"v. c #FCBE8E",
"b. c #E8BC95",
"n. c #FEB494",
"m. c #F3BB96",
"M. c #F5BD95",
"N. c #FEBB96",
"B. c #FEBC99",
"V. c #C5B8A6",
"C. c #DFC19F",
"Z. c #F7C18C",
"A. c #FAC18E",
"S. c #EAC59F",
"D. c #F5C296",
"F. c #FBC393",
"G. c #FDC59B",
"H. c #F6C89D",
"J. c #FDC99D",
"K. c #D4C6B8",
"L. c #EAC7A3",
"P. c #F6CBA5",
"I. c #FDCCA2",
"U. c #FBD0A5",
"Y. c #FCD1A9",
"T. c #E2CCB5",
"R. c #F7CBB1",
"E. c #FBD6B4",
"W. c #FAD8B9",
"Q. c #FCDBBE",
"!. c #EBE6B8",
"~. c #98B4C5",
"^. c #88B8DB",
"/. c #97BED7",
"(. c #B4BCCB",
"). c #87BDE2",
"_. c #9DC3D9",
"`. c #BBC7CC",
"'. c #B6CCD8",
"]. c #B7D2D8",
"[. c #8EC0E4",
"{. c #93C3E4",
"}. c #9AC8E6",
"|. c #9ECCE6",
" X c #9FD1EF",
".X c #A4CDE6",
"XX c #A1CEE9",
"oX c #AFD4E0",
"OX c #A5D2EC",
"+X c #ABD4ED",
"@X c #B6D7EC",
"#X c #BEDDF2",
"$X c #C2C7C8",
"%X c #CDD6D0",
"&X c #F5DBC7",
"*X c #FBDDC2",
"=X c #E7DCD0",
"-X c #FCE2CB",
";X c #F7E8CB",
":X c #E6E8DE",
">X c #FCE6D4",
",X c #FCE9D7",
"<X c #F4E7DA",
"1X c #FCEBDC",
"2X c #CBDCEA",
"3X c #C3DEF0",
"4X c #D2E1EA",
"5X c #C6E4F5",
"6X c #CCE3F3",
"7X c #DCECF6",
"8X c #D9ECF9",
"9X c #ECECEB",
"0X c #F6EDE2",
"qX c #FDEEE2",
"wX c #FEF1E5",
"eX c #FCF8E7",
"rX c #FDF4EC",
"tX c #E5EBF1",
"yX c #E4F2FB",
"uX c #ECF5FB",
"iX c #EFF8FD",
"pX c #F5F5F5",
"aX c #FEF7F1",
"sX c #FEF9F5",
"dX c #F1F6FA",
"fX c #F5FAFC",
"gX c #FFFDFD",
"hX c #FFFEFD",
"jX c white",
/* pixels */
"jXjXjXjXjXjXjXjXjXjXjXjXjXjXjXjXjXjXjXjXjXjXjXjXjXjXjXjXjXjXsX-XF.` U _ W.jXjXjXjXjXjXjXjXjXjXjXjXjXjXjXjXjXjXjXjXjXjXjXjXjXjXjX",
"jXjXjXjXjXjXjXjXjXjXjXjXjXjXjXjXjXjXjXjXjXjXjXjXjXjXjXjXjXrX{ z 9 7 U P.1XjXjXjXjXjXjXjXjXjXjXjXjXjXjXjXjXjXjXjXjXjXjXjXjXjXjXjX",
"jXjXjXjXjXjXjXjXjXjXjXjXjXjXjXjXjXjXjXjXjXjXjXjXjXjXjXjXsX{ a p k x.qXjXjXjXjXjXjXjXjXjXjXjXjXjXjXjXjXjXjXjXjXjXjXjXjXjXjXjXjXjX",
"jXjXjXjXjXjXjXjXjXjXjXjXjXjXjXjXjXjXjXjXjXjXjXjXjXjXjXjXQ.z 9 9 ' *X&X*X-X1XsXjXjXjXjXjXjXjXjXjXjXjXjXjXjXjXjXjXjXjXjXjXjXjXjXjX",
"jXjXjXjXjXjXjXjXjXjXjXjXjXjXjXjXjXjXjXjXjXjXjXjXjXjXjXjXJ.a 9 9 z n j r h m U F.,XsXjXjXjXjXjXjXjXjXjXjXjXjXjXjXjXjXjXjXjXjXjXjX",
"jXjXjXjXjXjXjXjXjXjXjXjXjXjXjXjXjXjXjXjXjXjXjXjXjXjXrXE.T 9 9 p p 8 6 6 6 8 8 a M x.1XjXjXjXjXjXjXjXjXjXjXjXjXjXjXjXjXjXjXjXjXjX",
"jXjXjXjXjXjXjXjXjXjXjXjXjXjXjXjXjXjXjXjXjXjXjXjXjXqX_ q 8 9 9 p p 8 6 6 8 8 6 9 p a L *XjXjXjXjXjXjXjXjXjXjXjXjXjXjXjXjXjXjXjXjX",
"jXjXjXjXjXjXjXjXjXjXjXjXjXjXjXjXjXjXjXjXjXjXjXjX>XK 0 8 8 p 9 9 9 8 6 6 8 6 6 9 p p p M E.jXjXjXjXjXjXjXjXjXjXjXjXjXjXjXjXjXjXjX",
"jXjXjXjXjXjXjXjXjXjXjXjXjXjXjXjXjXjXjXjXjXjXjX1XJ 8 8 8 8 p 9 9 9 8 6 6 6 8 8 9 9 p p p n -XjXjXjXjXjXjXjXjXjXjXjXjXjXjXjXjXjXjX",
"jXjXjXjXjXjXjXjXjXjXjXjXjXjXjXjXjXjXjXjXjXjXrX` 0 8 8 8 7 9 9 p 9 8 6 6 6 6 8 9 9 p p p 8 K 1XjXjXjXjXjXjXjXjXjXjXjXjXjXjXjXjXjX",
"jXjXjXjXjXjXjXjXjXjXjXjXjXjXjXjXjXjXjXjXjXjXY.q 8 8 8 4 8 p p p p 9 6 8 a a 8 p f f p l 9 6 { aXjXjXjXjXjXjXjXjXjXjXjXjXjXjXjXjX",
"jXjXjXjXjXjXjXjXjXjXjXjXjXjXjXjXjXjXjXjXjXaXP 8 8 8 8 n 8 p 9 p f 9 6 8 c c a 9 c v x v l 8 q D.jXjXjXjXjXjXjXjXjXjXjXjXjXjXjXjX",
"jXjXjXjXjXjXjXjXjXjXjXjXjXjXjXjXjXjXjXjXjX*Xk 8 8 6 J F.P 9 9 p R N 6 6 k b c p l v b v b l 8 j P.jXjXjXjXjXjXjXjXjXjXjXjXjXjXjX",
"jXjXjXjXjXjXjXjXjXjXjXjXjXjXjXjXjXjXjXjXjXZ.a 8 6 8 { J.F.N 9 p L F.m 4 8 c b l s c b b b v a 8 h P.jXjXjXjXjXjXjXjXjXjXjXjXjXjX",
"jXjXjXjXjXjXjXjXjXjXjXjXjXjXjXjXjXjXjXjXjX' 9 8 6 n G.J.J.x.M p z F.Z.m 8 a b c p f v b l c c 8 6 j G.rXjXjXjXjXjXjXjXjXjXjXjXjX",
"jXjXjXjXjXjXjXjXjXjXjXjXjXjXjXjXjXjXjXjXrXP 9 8 8 ` I.J.J.J.x.z p { J.F.m 8 a x p p d x 9 8 a 8 6 8 a { wXjXjXjXjXjXjXjXjXjXjXjX",
"jXjXjXjXjXjXjXjXjXjXjXjXjXjXjXjXjXjXjXjXqXN 9 8 0 x.J.J.J.J.J.{ z L J.J.Z.m 4 p p 9 9 9 8 6 6 6 8 8 9 a P E.sXjXjXjXjXjXjXjXjXjX",
"jXjXjXjXjXjXjXjXjXjXjXjXjXjXjXjXjXjXjXjX1XB p 8 g G.I.J.J.J.J.J.x.L Z.J.J.F.J p p p 9 9 8 6 6 6 8 8 9 p p k ' -XjXjXjXjXjXjXjXjX",
"jXjXjXjXjXjXjXjXjXjXjXjXjXjXjXjXjXjXjXjX,XB p 4 n I.J.J.l.( J.J.J.v.F.I.J.( l.R p p p s 8 6 6 6 8 8 p p p p d { rXjXjXjXjXjXjXjX",
"jXjXjXjXjXjXjXjXjXjXjXjXjXjXjXjXjXjXjXjX1XR ' P K I.G.G.D.F u l.J.J.J.b.Z D M.G.R d p p 8 6 8 8 8 8 9 a k P Y.rXjXjXjXjXjXjXjXjX",
"jXjXjXjXjXjXjXjXjXjXjXjXjXjXjXjXjXjXjXjXwXI.I.G.N.G.G.G.m.F Q b.J.J.J.b.h.F b.G.G.' f p 8 6 6 8 g n P { E.aXjXjXjXjXjXjXjXjXjXjX",
"jXjXjXjXjXjXjXjXjXjXjXjXjXjXjXjXjXjXjXjX>XI.G.G.G.B.B.B.D . S J.J.J.G.I.u   Q B.N.B.[ d 8 8 8 0 D.>XwXjXjXjXjXjXjXjXjXjXjXjXjXjX",
"jXjXuXfXjXjXjXjXjXjXjXjXjXjXjXjXjXjXjXjX>XI.G.G.B.B.B.B.Q , h.J.J.J.J.I.Q > h.n.n.n.z.f 9 8 8 8 ` rXjXjXjXjXjXjXjXjXjXjXjXjXjXjX",
"jXyXr.y.6XjXjXjXjXjXjXjXjXjXjXjXjXjXjXjXrXE.G.B.B.n.n.n.B.B.G.G.J.G.G.I.G.B.N.n.n.n.} d 9 6 6 8 q E.jXjXjXjXjXjXjXjXjXjXjXjXjXjX",
"jXyXe.6.8.t.6XfXjXjXjXjXjXjXjXjXjXjXjXjXjXaXJ.J ~ B.n.n.B.B.G.G.J.M.G.I.G.N.N.n.n.n.Y 9 9 6 6 6 8 K wXjXjXjXjXjXjXjXjXjXjXjXjXjX",
"jXjXuX}.q.*.,.y.6XfXjXjXjXjXjXjXjXjXjXjXjXjX1Xm j n.N.B.N.B.G.G.J.U.J.G.G.B.N.n.n.c.M 9 8 8 6 8 8 0 Z.jXjXjXjXjXjXjXjXjXjXjXjXjX",
"jXjXjXjXyX+Xq.*.7.t.6XfXjXjXjXjXjXjXjXjXjXjXjXW.j K N.B.B.G.J.k.^ j.! M.G.G.B.B.B.Y 9 9 a e e e e m Z.aXjXjXjXjXjXjXjXjXjXjXjXjX",
"jXjXjXjXjXjXuXXXq.6.7.t.3XdXjXjXjXjXjXjXjXjXjXjXE.m ` B.G.G.G.J.k.g.m.J.G.G.G.B.` a p s P.1X>X>X1XrXsXjXjXjXjXjXjXjXjXjXjXjXjXjX",
"jXjXjXjXjXjXjXjXuX+Xw.*.6.r.#XjXjXfXdXjXjXjXjXjXjX,X[ Y { J.J.I.I.J.J.J.I.G.} L 9 9 s s W.jXjXjXjXjXjXjXjXjXjXjXjXjXjXjXjXjXjXjX",
"jXjXjXjXjXjXjXjXjXjXyX+Xw.6.7.r./.q.0.[.dXjXjXjXjXjXrX&Xi 2 ( l.F.F.v.' K n 0 9 9 s p s Y.jXjXjXjXjXjXjXjXjXjXjXjXjXjXjXjXjXjXjX",
"jXjXjXjXjXjXjXjXjXjXjXjXfX+Xe.&.= =  .#.{.jXjXjXjXjXjX(.% X @ y G [ } K j r q p s s s s U.jXjXjXjXjXjXjXjXjXjXjXjXjXjXjXjXjXjXjX",
"jXjXjXjXjXjXjXjXjXjXjXjXjXjXuX^.@.o.- = 4.uXjXjXjXjXpX:.X X X o y G M.J.I.Q.Q.Y.I.G.F.J.1XjXjXjXjXjXjXjXjXjXjXjXjXjXjXjXjXjXjXjX",
"jXjXjXjXjXjXjXjXjXjXjXjXjXjXjX6X7.%.$.| X.e.@XuXjXjX4X% X X X o : y E G.I.S.<XjXjXjXjXjXjXjXjXjXjXjXjXjXjXjXjXjXjXjXjXjXjXjXjXjX",
"jXjXjXjXjXjXjXjXjXjXjXjXjXjXjXfX{.7.;.e.r.*.,.w.+XfX(.+ X X # p.b.D Z / J.] F %XjXjXjXjXjXjXjXjXjXjXjXjXjXjXjXjXjXjXjXjXjXjXjXjX",
"jXjXjXjXjXjXjXjXjXjXjXjXjXjXjXjXfX7X7XuXuX#Xe.6.6.e.5.O X o p.H.J.H.l.E l.] u 1 tXjXjXjXjXjXjXjXjXjXjXjXjXjXjXjXjXjXjXjXjXjXjXjX",
"jXjXjXjXjXjXjXjXjXjXjXjXjXjXjXjXjXjXjXjXjXjXfX@Xe.6.%.X.$ < J.J.I.J.J.D.c./ , + s.jXjXjXjXjXjXjXjXjXjXjXjXjXjXjXjXjXjXjXjXjXjXjX",
"jXjXjXjXjXjXjXjXjXjXjXjXjXjXjXjXjXjXjXjXjXjXjXjXuX3Xr.&.$.-.d.S.I.I.I.I.J.) : X >.dXjXjXjXjXjXjXjXjXjXjXjXjXjXjXjXjXjXjXjXjXjXjX",
"jXjXjXjXjXjXjXjXjXjXjXjXjXjXjXjXjXjXjXjXjXjXjXjXjXjXtX+.X.$.%.3.d.L.I.J.J.J.p.@ >.fXjXjXjXjXjXjXjXjXjXjXjXjXjXjXjXjXjXjXjXjXjXjX",
"jXjXjXjXjXjXjXjXjXjXjXjXjXjXjXjXjXjXjXjXjXjXjXjXjXjXfX5.X $  .$.%.2.a.L.J.H.S.h.K.jXjXjXjXjXjXjXjXjXjXjXjXjXjXjXjXjXjXjXjXjXjXjX",
"jXjXjXjXjXjXjXjXjXjXjXjXjXjXjXjXjXjXjXjXjXjXjXjXjXjXjX$X: @ & ; +.&.%.2.i.:.=.5.C.-XsXjXjXjXjXjXjXjXjXjXjXjXjXjXjXjXjXjXjXjXjXjX",
"jXjXjXjXjXjXjXjXjXjXjXjXjXjXjXjXjXjXjXjXjXjXjXjXjXjXjX0XW V A V V S :.#.- $ = ..5.P.Q.rXjXjXjXjXjXjXjXjXjXjXjXjXjXjXjXjXjXjXjXjX",
"jXjXjXjXjXjXjXjXjXjXjXjXjXjXjXjXjXjXjXjXjXjXjXjXjXjXjX0XW V A C V A V i @.o.| * +.C.J.Y.Q.>XaXjXjXjXjXjXjXjXjXjXjXjXjXjXjXjXjXjX",
"jXjXjXjXjXjXjXjXjXjXjXjXjXjXjXjXjXjXjXjXjXjXjXjXjXjXjX1X) E / W W / E F -.$.%... .d.J.G.J.J.W.jXjXjXjXjXjXjXjXjXjXjXjXjXjXjXjXjX",
"jXjXjXjXjXjXjXjXjXjXjXjXjXjXjXjXjXjXjXjXjXjXjXjXjXjXjX>XJ.J.J.J.J.J.J.J.V.3.8.r.^.f.G.v.F.F.I.aXjXjXjXjXjXjXjXjXjXjXjXjXjXjXjXjX",
"jXjXjXjXjXjXjXjXjXjXjXjXjXjXjXjXjXjXjXjXjXjXjXjXjXjXjX=XT.T.T.T.T.T.T.T.T.K.4XdXpX*XF.F.v.A.P.tXjXjXjXjXjXjXjXjXjXjXjXjXjXjXjXjX",
"jXjXjXjXjXjXjXjXjXjXjXjXjXjXjXjXjXjXjXjXjXjXjXjXjXjX9Xu.i._.1.3 a.~.3 3 ~.s.d.pXjXsX-XI.G.v.d.9.{.yXjXjXjXjXjXjXjXjXjXjXjXjXjXjX",
"jXjXjXjXjXjXjXjXjXjXjXjXjXjXjXjXjXjXjXjXjXjXjXjXjXjX:Xs.~..Xs.a.~._.a.a._./.s.2XjXjXjXrXwX1X_.8.,.q.[.7XfXjXjXjXjXjXjXjXjXjXjXjX",
"jXjXjXjXjXjXjXjXjXjXjXjXjXjXjXjXjXjXjXjXjXjXjXjXjXjX!.oXOXXXOXOXOX|.OX+XOXXXOX+X6XfXjXjXjXjXjX7X).9.%.8.{.7XjXjXjXjXjXjXjXjXjXjX",
"jXjXjXjXjXjXjXjXjXjXjXjXjXjXjXjXjXjXjXjXjXjXjXjXjXeX%XOXOX|.XXOXOX|.|.OXOXXX|.XXOX5XfXjXjXjXjXjXjX7X{.8.&.8.^.7XfX8X#XuXjXjXjXjX",
"jXjXjXjXjXjXjXjXjXjXjXjXjXjXjXjXjXjXjXjXjXjXjXjXjX;X].OXOXXX}.OXOXOXXXXXOXOXOXXXXXOX5XjXjXjXjXjXjXjXfX7X).9.;.9.4.=.;.w.7XjXjXjX",
"jXjXjXjXjXjXjXjXjXjXjXjXjXjXjXjXjXjXjXjXjXjXjXjXaX!.oXOX XOXXXXXOXOXOXOXOXOXOXOXOXOX5XfXjXjXjXjXjXjXjXjXjX7X{.<.- $ = o.).fXjXjX",
"jXjXjXjXjXjXjXjXjXjXjXjXjXjXjXjXjXjXjXjXjXjXjXjXdX%X'.$XK.$X'.+X+X+X].$X$X`.'.'.3X8XfXjXjXjXjXjXjXjXjXjXjXjXjX.X;.@. .* 5.uXjXjX",
"jXjXjXjXjXjXjXjXjXjXjXjXjXjXjXjXjXjXjXjXjXjXjXjXsXP.z.} } } M.9XyXiXW.z.} } z.z.-XjXjXjXjXjXjXjXjXjXjXjXjXjXjX7Xq.%.%.O.~.fXjXjX",
"jXjXjXjXjXjXjXjXjXjXjXjXjXjXjXjXjXjXjXjXjXjXjXjXrXI.G.G.G.G.Q.jXjXjXwXI.J.G.F.F.*XjXjXjXjXjXjXjXjXjXjXjXjXjXjXjX6Xr.r.XXdXjXjXjX",
"jXjXjXjXjXjXjXjXjXjXjXjXjXjXjXjXjXjXjXjXjXjXjXjX,XJ.J.J.J.Y.rXjXjXjXjX*XJ.J.J.J.E.sXjXjXjXjXjXjXjXjXjXjXjXjXjXjXjXdXdXfXjXjXjXjX",
"jXjXjXjXjXjXjXjXjXjXjXjXjXjXjXjXjXjXjXjXjXjXjXjX*XJ.G.J.J.*XjXjXjXjXjXwXI.J.J.J.I.rXjXjXjXjXjXjXjXjXjXjXjXjXjXjXjXjXjXjXjXjXjXjX",
"jXjXjXjXjXjXjXjXjXjXjXjXjXjXjXjXjXjXjXjXjXjXjXjXE.J.J.J.I.wXjXjXjXjXjXjXQ.J.J.J.J.1XjXjXjXjXjXjXjXjXjXjXjXjXjXjXjXjXjXjXjXjXjXjX",
"jXjXjXjXjXjXjXjXjXjXjXjXjXjXjXjXjXjXjXjXjXjXjXrXY.J.J.J.Q.sXjXjXjXjXjXjX1XI.I.J.J.-XjXjXjXjXjXjXjXjXjXjXjXjXjXjXjXjXjXjXjXjXjXjX",
"jXjXjXjXjXjXjXjXjXjXjXjXjXjXjXjXjXjXjXjXjXjXjX1XI.J.J.I.1XjXjXjXjXjXjXjXsXQ.J.J.J.E.jXjXjXjXjXjXjXjXjXjXjXjXjXjXjXjXjXjXjXjXjXjX",
"jXjXjXjXjXjXjXjXjXjXjXjXjXjXjXjXjXjXjXjXjXjXjX-XJ.J.J.E.sXjXjXjXjXjXjXjXjX1XI.J.J.I.rXjXjXjXjXjXjXjXjXjXjXjXjXjXjXjXjXjXjXjXjXjX",
"jXjXjXjXjXjXjXjXjXjXjXjXjXjXjXjXjXjXjXjXjXjXaXE.I.I.I.,XjXjXjXjXjXjXjXjXjXsXE.I.I.I.1XjXjXjXjXjXjXjXjXjXjXjXjXjXjXjXjXjXjXjXjXjX",
"jXjXjXjXjXjXjXjXjXjXjXjXjXjXjXjXjXjXjXjXjXjX>XH H I M.aXjXjXjXjXjXjXjXjXjXjX*X~ H t k.jXjXjXjXjXjXjXjXjXjXjXjXjXjXjXjXjXjXjXjXjX",
"jXjXjXjXjXjXjXjXjXjXjXjXjXjXjXjXjXjXjXjXjXjXR.t [ ~ R.jXjXjXjXjXjXjXjXjXjXjXqX[ ~ ~ I aXjXjXjXjXjXjXjXjXjXjXjXjXjXjXjXjXjXjXjXjX",
"jXjXjXjXjXjXjXjXjXjXjXjXjXjXjXjXjXjXjXjXjXjX[ 5 w ~ qXjXjXjXjXjXjXjXjXjXjXjXjXP.t w w &XjXjXjXjXjXjXjXjXjXjXjXjXjXjXjXjXjXjXjXjX"
};
