/* XPM */
static char *e6be906fe1b34866a7b4ac99e429aae9NA8X6I3mgHG8EX1X[] = {
/* columns rows colors chars-per-pixel */
"64 64 217 2 ",
"   c #02152C",
".  c #04182F",
"X  c #061B33",
"o  c #091E36",
"O  c #121D30",
"+  c #0B2133",
"@  c #0C233D",
"#  c #14263C",
"$  c #2D363D",
"%  c #20443E",
"&  c #0E2641",
"*  c #0F2843",
"=  c #102742",
"-  c #122A44",
";  c #182D45",
":  c #1B3C42",
">  c #1B324C",
",  c #283648",
"<  c #3C3840",
"1  c #223952",
"2  c #283C53",
"3  c #1F4344",
"4  c #2B4853",
"5  c #37495E",
"6  c #326547",
"7  c #3C7546",
"8  c #354A62",
"9  c #3A4E65",
"0  c #3E5268",
"q  c #4E4B4E",
"w  c #655A42",
"e  c #61575F",
"r  c #407E47",
"t  c #75694D",
"y  c #43576D",
"u  c #485C72",
"i  c #4E6277",
"p  c #546579",
"a  c #676164",
"s  c #796B69",
"d  c #B82245",
"f  c #B92345",
"g  c #BD2A4B",
"h  c #BF304E",
"j  c #D42A59",
"k  c #C53856",
"l  c #D23E62",
"z  c #F0386E",
"x  c #8B705E",
"c  c #B44360",
"v  c #887368",
"b  c #977965",
"n  c #A37F69",
"m  c #C94A5B",
"M  c #CE4667",
"N  c #D8486B",
"B  c #D55C67",
"V  c #D4516F",
"C  c #F7487C",
"Z  c #EC5474",
"A  c #DB7573",
"S  c #EE6C7D",
"D  c #E6777A",
"F  c #4B8B49",
"G  c #699353",
"H  c #8A8556",
"J  c #AF9B57",
"K  c #B39D59",
"L  c #B5A55A",
"P  c #BAA65D",
"I  c #BEAE5D",
"U  c #BFB05E",
"Y  c #979072",
"T  c #AE8E6A",
"R  c #B9977D",
"E  c #BCA662",
"W  c #B5A273",
"Q  c #C0AF5E",
"!  c #C1B15F",
"~  c #D38E72",
"^  c #E5877B",
"/  c #C4A569",
"(  c #C3B361",
")  c #CBBC65",
"_  c #C8B868",
"`  c #CDBE6A",
"'  c #CEAD73",
"]  c #DBA879",
"[  c #CABD75",
"{  c #D9B77B",
"}  c #CEC067",
"|  c #D1C26D",
" . c #CFC075",
".. c #D4C573",
"X. c #D7C979",
"o. c #DDCD7B",
"O. c #5D6F81",
"+. c #697888",
"@. c #6F7F91",
"#. c #DD5D81",
"$. c #F64D81",
"%. c #F84E84",
"&. c #F75787",
"*. c #F95086",
"=. c #F95288",
"-. c #F95E90",
";. c #E4668A",
":. c #E76A8E",
">. c #F1728F",
",. c #E76C90",
"<. c #E86D91",
"1. c #FA6695",
"2. c #EB7699",
"3. c #798898",
"4. c #9F968F",
"5. c #828F9D",
"6. c #BC9F88",
"7. c #B4A980",
"8. c #8B98A7",
"9. c #929FAD",
"0. c #93A0AE",
"q. c #9EA9B5",
"w. c #AAB3BE",
"e. c #C19C83",
"r. c #F68883",
"t. c #EC9388",
"y. c #F89587",
"u. c #EE8294",
"i. c #CDA98A",
"p. c #D1A988",
"a. c #D9B587",
"s. c #EBA888",
"d. c #FBA58C",
"f. c #F4AA8C",
"g. c #FCAB8E",
"h. c #E4BB88",
"j. c #F9BB8B",
"k. c #F6A895",
"l. c #FDAD91",
"z. c #E7BC94",
"x. c #F5B795",
"c. c #FEB394",
"v. c #FDBB96",
"b. c #FDBC99",
"n. c #F48DAC",
"m. c #F3A6B7",
"M. c #D8CB84",
"N. c #DCD195",
"B. c #DDD396",
"V. c #E0D081",
"C. c #EBC196",
"Z. c #FCC395",
"A. c #F5C598",
"S. c #F4C49B",
"D. c #FDC49B",
"F. c #FDC99E",
"G. c #E2D79A",
"H. c #FBC7A5",
"J. c #FDCCA1",
"K. c #E3DAAE",
"L. c #FED2AC",
"P. c #FBD8B8",
"I. c #ECE1AE",
"U. c #EAE2B2",
"Y. c #ECE5BD",
"T. c #AEB8C2",
"R. c #B5BCC5",
"E. c #FE95C2",
"W. c #FE9AC5",
"Q. c #FE9FC8",
"!. c #F8AAC2",
"~. c #FEA4CB",
"^. c #FEAACE",
"/. c #F9B5CA",
"(. c #FDADD0",
"). c #FDB4D4",
"_. c #FEBCD5",
"`. c #BBC2CA",
"'. c #C9CACE",
"]. c #C5CBD2",
"[. c #CACFD5",
"{. c #CCD1D8",
"}. c #D4D9DD",
"|. c #FCCECF",
" X c #FDDDC3",
".X c #FADBC8",
"XX c #FCC8DB",
"oX c #EBE5C3",
"OX c #ECE7CB",
"+X c #F5E8C8",
"@X c #EFEBD2",
"#X c #FEEBDA",
"$X c #F6F3DB",
"%X c #D8DCE2",
"&X c #FECBE1",
"*X c #FDD5E6",
"=X c #FDDBE8",
"-X c #FEDEEC",
";X c #E4E7EB",
":X c #E9EBEE",
">X c #FDE1ED",
",X c #F6F3E2",
"<X c #F9F5E3",
"1X c #F7F6EC",
"2X c #FDF5EC",
"3X c #ECEFF1",
"4X c #FEE6F1",
"5X c #FEECF3",
"6X c #EEF0F3",
"7X c #F3F4F5",
"8X c #FEF2F6",
"9X c #FDFBF5",
"0X c #F5F7F8",
"qX c #FEF4F9",
"wX c #F7F8F9",
"eX c #FEFDFA",
"rX c white",
/* pixels */
"rXrXrXrXrXrXrXrXrXrXrXrXrXrXrXrXrXrXrXrXrXrXrXrXrXrXrXrXrXrXrXrXrXrXrXrXrXrXrXrXrXrXrXrXrXrXrXrXrXrXrXrXrXrXrXrXrXrXrXrXrXrXrXrX",
"rXrXrXrXrXrXrXrXrXrXrXrXrXrXrXrXrXrXrXrXrXeX1XrXrXrXrXrXrXrXrXrXrXrXrXrXrXrXrXrXrXrXrXrXrXrXrXrXrXrXrXrXrXrXrXrXrXrXrXrXrXrXrXrX",
"rXrXrXrXrXrXrXrXrXrXrXrXrXrXrXrXrXrXrXrXrX$XG.9XrXrXrXrXrXrXrXrXrXrXrXrXrXrXeXeXrXrXrXrXrXrXrXrXrXrXrXrXrXrXrXrXrXrXrXrXrXrXrXrX",
"rXrXrXrXrXrXrXrXrXrXrXrXrXrXrXrXrXrXrXrXrXOXX.$XrXrXrXrXrXrXrXrXrXrXrXrXrXeX+X@XrXrXrXrXrXrXrXrXrXrXrXrXrXrXrXrXrXrXrXrXrXrXrXrX",
"rXrXrXrXrXrXrXrXrXrXrXrXrXrXrXrXrXrXrXrXrXOX| M.,XeXrXrXrXrXrXrXrXrXrXrX9XY. .+XrXrXrXrXrXrXrXrXrXrXrXrXrXrXrXrXrXrXrXrXrXrXrXrX",
"rXrXrXrXrXrXrXrXrXrXrXrXrXrXrXrXrXrXrXrXrX$X..` X.Y.$X$X@X@X$X,X1X1X,X+XG.` [ ,XrXrXrXrXrXrXrXrXrXrXrXrXrXrXrXrXrXrXrXrXrXrXrXrX",
"rXrXrXrXrXrXrXrXrXrXrXrXrXrXrXrXrXrXrXrXrX9XM.` ` ` .._ ( ( _ [ X.M.X.} ` ` Y.eXrXrXrXrXrXrXrXrXrXrXrXrXrXrXrXrXrXrXrXrXrXrXrXrX",
"rXrXrXrXrXrXrXrXrXrXrXrXrXrXrXrXrXeX1XoXB.M.| ` ` ` _ ! ! I ! I _ ` } ` | I.1XrXrXrXrXrXrXrXrXrXrXrXrXrXrXrXrXrXrXrXrXrXrXrXrXrX",
"rXrXrXrXrXrXrXrXrXrXrXrXrXrXrXrXeXoXM.( ) ` ` ` ` ` ( ! ! I ( ! _ ` ` ` } M.B.$XrXrXrXrXrXrXrXrXrXrXrXrXrXrXrXrXrXrXrXrXrXrXrXrX",
"rXrXrXrXrXrXrXrXrXrXrXrXrXrXrXeXK._ I ! ) ) ` ` ) ` _ I ! ! ( ( _ ) ` ` ` ( ! [ oXeXrXrXrXrXrXrXrXrXrXrXrXrXrXrXrXrXrXrXrXrXrXrX",
"rXrXrXrXrXrXrXrXrXrXrXrXrXrXrXOX_ ( ! I ! ) _ ( ) ` _ ! ( ( ( ( _ ) ` ) ` ( ! ( _ oXeXrXrXrXrXrXrXrXrXrXrXrXrXrXrXrXrXrXrXrXrXrX",
"rXrXrXrXrXrXrXrXrXrXrXrXrXrX9XB.( ! U ! ! ! P L ( } ) ( ( ( ( ( _ ` ` ) ) ( ! ! ( [ oXrXrXrXrXrXrXrXrXrXrXrXrXrXrXrXrXrXrXrXrXrX",
"rXrXrXrXrXrXrXrXrXrXrXrXrXrX<X` ( I ! ! ! E h.' I ` ) ( ! ! ( ( ) ` ` ` ` ) ( ( ( ( M.<XrXrXrXrXrXrXrXrXrXrXrXrXrXrXrXrXrXrXrXrX",
"rXrXrXrXrXrXrXrXrXrXrXrXrXrX+X) ( ( ( I E C.F.h.L ` ) ! ! ( | ..` ` ..X.| ....( ( ( ) G.9XrXrXrXrXrXrXrXrXrXrXrXrXrXrXrXrXrXrXrX",
"rXrXrXrXrXrXrXrXrXrXrXeX9X<XB.) ( ! I E C.F.F.A.E ( _ ! ! ( ..V.X.` X.V.o.o.o...( ( ) | Y.eXrXrXrXrXrXrXrXrXrXrXrXrXrXrXrXrXrXrX",
"rXrXrXrXrXrXrXrXrXrXrX,XB.X.` ) ( ( P a.J.C.z.F.' I _ ! ! U ` o.o.| | o.o.o.o.o.| ( ) ` ..+XeXrXrXrXrXrXrXrXrXrXrXrXrXrXrXrXrXrX",
"rXrXrXrXrXrXrXrXrX8X/.n.D ] ` ) / D S >.^ x x R h.L _ ! ! ( ( ..o.X.` ..o.o.o.o.o.) _ ` ` ..U.9XrXrXrXrXrXrXrXrXrXrXrXrXrXrXrXrX",
"rXrXrXrXrXrXrXrXqXm.-.*.%.*.^ ~ &.%.*.%.C A p.b z./ ! ! ! ! ! ( o.o.| ` ..o.X...o...) | X.B.oXeXrXrXrXrXrXrXrXrXrXrXrXrXrXrXrXrX",
"rXrXrXrXrXrXrXrX*X1.*.%.*.%.%.*.%.%.*.*.C c T b C.a.L Q I I I ! ` ..` _ ) | ` ! ` ` ) G.<XeXrXrXrXrXrXrXrXrXrXrXrXrXrXrXrXrXrXrX",
"rXrXrXrXrXrXrXrXXX-.%.%.%.%.%.%.%.%.%.%.C N n p.R C.E L ! I I I ( ` ` ) ) ( ! ( ! ! _ X.<XrXrXrXrXrX>X&X-XrXrXrXrXrXrXrXrXrXrXrX",
"rXrXrXrXrXrXrXrX&X1.*.%.*.%.*.=.*.%.%.%.z V T b b F.h.K I U I I _ _ ` ) _ ! Q ! ! ! _ ` Y.rXrXrXrX5X~.W.~.-XqX4X5XrXrXrXrXrXrXrX",
"rXrXrXrXrXrXrXrX5X1.*.*.=.=.*.*.%.%.%.C z N ~ a.A.F.F.{ K I I I ( P ! ) ) _ ( I I Q ) ` G.rXrXrXrX>XW.E.E.^.).~.^.4XrXrXrXrXrXrX",
"rXrXrXrXrXrXrXrXrX/.-.=.=.=.*.%.%.%.%.z z j j B b.F.F.F.' K P ( _ P / I ) _ ! ( ! ! _ ` M.9XrXrXrX8X^.E.E.E.E.W.Q.*XrXrXrXrXrXrX",
"rXrXrXrXrXrXrXrXrXqX!.-.=.*.*.*.%.*.C z j l B D v.F.J.F.F.{ K L _ P ] ' P ( Q ( L L ( } | oXeXrXrXrX*XQ.E.E.E.W.(.8XrXrXrXrXrXrX",
"rXrXrXrXeXrXrX5X5XrXqX!.1.%.*.*.*.C C S y.d.v.D.F.F.F.F.F.F.h./ P L ] d.~ K I L / ' P ( ( [ OXrXrXrXeX_.E.E.E.~.>XrXrXrXrXrXrXrX",
"rXrXrX5XXX*X-X~.~.5XrXrX_.1.*.*.C Z r.y.y.y.c.v.D.v.f.F.F.F.F.b.] E ~ r.r.~ J E x.D.z.a.a.K.1XrXrXrXrX5X~.E.(.4XrXrXrXrXrXrXrXrX",
"rXrXrX&XE.W.Q.E.Q.5XrXrXeX>Xn.$.>.y.r.r.r.r.c.v.D.x.s.F.F.F.Z.v.c.g.^ y.y.y.K ] v.D.F.F.L.9XrXrXrXrXrXrX=X&X5XrXrXrXrXrXrXrXrXrX",
"rXrXrX5X(.W.E.E.(.8XrXrXrXrX5XXX|.d.y.y.y.d.c.f.^ f.A.D.D.Z.x.s.^ g.d.d.d.d.] f.v.b.D.F. XrXrXrXrXrXrXrXrXeXrXrXrXrXrXrXrXrXrXrX",
"rXrXrXrX4X^.E.W.&XrXrXrXrXrXrXrX.Xc.l.g.l.l.c.t.g k m m m m k g k g.l.g.g.g.l.c.b.D.F.L.2XrXrXrXrXrXrXrXrXrXrXrXrXrXrXrXrXrXrXrX",
"rXrXrXrXrX5X).).qXrXrXrXrXrXrXqX|.k.l.c.c.l.y.t.k g l M g d d d B v.c.c.c.c.c.v.j.{ { I.9XrXrXrXrXrXrXrXrXrXrXrXrXrXrXrXrXrXrXrX",
"rXrXrXrXrXrXqXqXrXrXrXrXrXrX8X!.2.,.u.d.k.u.,.,.;.#.,.<.V g d d ^ D.b.b.b.v.b.b.{ ! _ B.9XrXrXrXrXrXrXrXrXrXrXrXrXrXrXrXrXrXrXrX",
"rXrXrXrXrXrXrXrXrXrXrXrXrXrX/.,.:.,.,.,.<.,.,.,.,.<.,.,.,.k d g f.F.F.D.D.D.D.A.` ( G.+X9XrXrXrXrXrXrXrXrXrXrXrXrXrXrXrXrXrXrXrX",
"rXrXrXrXrXrXrXrXrXrXrXrXrX5Xn.:.:.:.:.,.,.,.,.u.k.:.V V :.M d B F.F.F.F.J.F.F.R H W }.7XrXrXrXrXrXrXrXrXrXrXrXrXrXrXrXrXrXrXrXrX",
"rXrXrXrXrXrXrXrXrXrXrXrXrX=X2.:.,.2.m.k.u.,.u.b.J.t.g g M k h f.J.F.F.F.J.J.i., & > 9 O.9.`.3XrXrXrXrXrXrXrXrXrXrXrXrXrXrXrXrXrX",
"rXrXrXrXrXrXrXrXrXrXrXrXrX5Xn.,.,.m.8X XH.x.b.F.F.Z.B d d g D F.J.J.F.F.F.i.q & @ & = = > 2 0 @.q.}.:XwXrXrXrXrXrXrXrXrXrXrXrXrX",
"rXrXrXrXrXrXrXrXrXrXrXrXrXrXXXn.!.8XrXeX#XP.J.F.F.D.Z.A B ^ A.A.z.A.J.A.R < @ & @ & & & & & @ & & 1 p 0.{.wXrXrXrX9XrXrXrXrXrXrX",
"rXrXrXrXrXrXrXrXrXrXrXrXrXrXrX8XqXrXrXrX0Xw.v i.C.C.p.z.a.R i.e.R a.7.e #   @ @ @ & & & & @ @ & & & & ; 4 +.'.+XP.P.2XrXrXrXrXrX",
"rXrXrXrXrXrXrXrXrXrXrXrXrXrXrXrXrXrXrX%X3.1 @ ; q e q v s s Y R ] G 7 @ @ X X @ & = = = * & & & & & @ & = & s J.F.L.<XrXrXrXrXrX",
"rXrXrXrXrXrXrXrXrXrXrXrXrXrXrXrXrXwXR.y @ @ & & @ @ @ X X # r G G F 7 & @ X o @ 2 p u 8 > = & & & & @ = - & a Z.Z.j.L.#XrXrXrXrX",
"rXrXrXrXrXrXrXrXrXrXrXrXrXrXrXrX3X8.1 = @ @ @ & @ = > @ X @ : 7 - 3 6 & @ . @ & i %X:X;X}.].w.8.3.p y 8 2 1 Y F.j.j.F.L.2XrXrXrX",
"rXrXrXrXrXrXrXrXrXrXrXrXrXrXrX:X3.; & & @ & & & 5 3.8.; X @ @ % : : 3 o   $ q = 1 ].eXrXrXrXrXrXrXeX0X%X].R.P.L.Z.j.D. XeXrXrXrX",
"rXrXrXrXrXrXrXrXrXrXrXrXrXeX:X+.; & & & & ; 9 8.}.0X7Xi X   X X + X @ X o q w & # 3.wXrXrXrXrXrXrXrXrXrXrXrXeX2X#X+X#X2XrXrXrXrX",
"rXrXrXrXrXrXrXrXrXrXrX2X#X+X4.& = & = > y 9.;XwXrXrXeXq.@ @ @ & @ o   . @ & , , & 5 %XrXrXrXrXrXrXrXrXrXrXrXrXrXrXrXrXrXrXrXrXrX",
"rXrXrXrXrXrXrXrXrXrXqX+XJ.J.6.& & ; i T.:XrXrXrXrXrXrXR.- & @ & & & @ X X @ t w & ; 3.eXrXrXrXrXrXrXrXrXrXrXrXrXrXrXrXrXrXrXrXrX",
"rXrXrXrXrXrXrXrXrXrXeX XZ.Z.z.s u w.:XrXrXrXrXrXrXrXwX9.& & & & & & & @ o X # , $ & 8 %XrXrXrXrXrXrXrXrXrXrXrXrXrXrXrXrXrXrXrXrX",
"rXrXrXrXrXrXrXrXrXrX2XJ.j.j.D..X7XrXrXrXrXrXrXrXrXrXwX8.- & & & & & @ & & X . w w & = 8.wXrXrXrXrXrXrXrXrXrXrXrXrXrXrXrXrXrXrXrX",
"rXrXrXrXrXrXrXrXrXrX#XJ.Z.v. X9XrXrXrXrXrXrXrXrXrXrXeXq.- & & & & & X @ @ @ X O # @ @ p 3XrXrXrXrXrXrXrXrXrXrXrXrXrXrXrXrXrXrXrX",
"rXrXrXrXrXrXrXrXrXrXqX#X X#X9XrXrXrXrXrXrXrXrXrXrXrXrX].1 & @ & & & X X & & & X X X X 8.wXrXrXrXrXrXrXrXrXrXrXrXrXrXrXrXrXrXrXrX",
"rXrXrXrXrXrXrXrXrXrXrXrXrXrXrXrXrXrXrXrXrXrXrXrXrXrXrX:Xi & & & & & @ X & & & @ @ & ; w.rXrXrXrXrXrXrXrXrXrXrXrXrXrXrXrXrXrXrXrX",
"rXrXrXrXrXrXrXrXrXrXrXrXrXrXrXrXrXrX8X5XeX5X*X8XrXrXrXeXq.> = & & & @ X @ & & @ & - 8 %XrXrXrXrXrXrXrXrXrXrXrXrXrXrXrXrXrXrXrXrX",
"rXrXrXrXrXrXrXrXrXrXrXrXrXrXrXrXrX8X).~.XX^.W.*XrXrXrXrX3Xp & & @ & & X o @ & & & 4 q.eXrXrXrXrXrXrXrXrXrXrXrXrXrXrXrXrXrXrXrXrX",
"rXrXrXrXrXrXrXrXrXrXrXrXrXrXrXrXrXqX).E.W.W.Q.>XrXrXrXrXrX`.> & & & & @ . X X o i {.0XrXrXrXrXrXrXrXrXrXrXrXrXrXrXrXrXrXrXrXrXrX",
"rXrXrXrXrXrXrXrXrXrXrXrXrXrXrXrXrXrX4X(.W.W.).qXrXrXrXrXrX7X3.; * & & @ . . X . 2 [.eXrXrXrXrXrXrXrXrXrXrXrXrXrXrXrXrXrXrXrXrXrX",
"rXrXrXrXrXrXrXrXrXrXrXrXrXrXrXrXrXrXrX5X).Q.-XrXrXrXrXrXrXrX;Xu & @ o .   X * & & p 6XrXrXrXrXrXrXrXrXrXrXrXrXrXrXrXrXrXrXrXrXrX",
"rXrXrXrXrXrXrXrXrXrXrXrXrXrXrXrXrXrXrXrX8X4XeXrXrXrXrXrXrXrXrX].;       # @ & & & > 5.0XrXrXrXrXrXrXrXrXrXrXrXrXrXrXrXrXrXrXrXrX",
"rXrXrXrXrXrXrXrXrXrXrXrXrXrXrXrXrXrXrXrXrXrXrXrXrXrXrXrXrXrXrX7X5       5.+.- & & = 1 T.wXrXrXrXrXrXrXrXrXrXrXrXrXrXrXrXrXrXrXrX",
"rXrXrXrXrXrXrXrXrXrXrXrXrXrXrXrXrXrXrXrXrXrXrXrXrXrXrXrXrXrXrX7Xp .   o R.:X3.> = & = 8 }.rXrXrXrXrXrXrXrXrXrXrXrXrXrXrXrXrXrXrX",
"rXrXrXrXrXrXrXrXrXrXrXrXrXrXrXrXrXrXrXrXrXrXrXrXrXrXrXrXrXrXrX0X3.. . 5 ;XeXeX3.> & & = p 3XrXrXrXrXrXrXrXrXrXrXrXrXrXrXrXrXrXrX",
"rXrXrXrXrXrXrXrXrXrXrXrXrXrXrXrXrXrXrXrXrXrXrXrXrXrXrXrXrXrXrXrX`.; , w.eXrXrX7Xq.2 & = ; 3.7XrXrXrXrXrXrXrXrXrXrXrXrXrXrXrXrXrX",
"rXrXrXrXrXrXrXrXrXrXrXrXrXrXrXrXrXrXrXrXrXrXrXrXrXrXrXrXrXrXrXrX0XR.[.wXrXrXrXrXwXR.y ; @ 2 }.rXrXrXrXrXrXrXrXrXrXrXrXrXrXrXrXrX",
"rXrXrXrXrXrXrXrXrXrXrXrXrXrXrXrXrXrXrXrXrXrXrXrXrXrXrXrXrXrXrXrXrXrXrXrXrXrXrXrXrXrX;Xp X @ ].rXrXrXrXrXrXrXrXrXrXrXrXrXrXrXrXrX",
"rXrXrXrXrXrXrXrXrXrXrXrXrXrXrXrXrXrXrXrXrXrXrXrXrXrXrXrXrXrXrXrXrXrXrXrXrXrXrXrXrXrXrX`.; @ ].rXrXrXrXrXrXrXrXrXrXrXrXrXrXrXrXrX",
"rXrXrXrXrXrXrXrXrXrXrXrXrXrXrXrXrXrXrXrXrXrXrXrXrXrXrXrXrXrXrXrXrXrXrXrXrXrXrXrXrXrXrXrX8.+.:XrXrXrXrXrXrXrXrXrXrXrXrXrXrXrXrXrX",
"rXrXrXrXrXrXrXrXrXrXrXrXrXrXrXrXrXrXrXrXrXrXrXrXrXrXrXrXrXrXrXrXrXrXrXrXrXrXrXrXrXrXrXrX0X6XrXrXrXrXrXrXrXrXrXrXrXrXrXrXrXrXrXrX"
};
