/* XPM */
static char *_df8fa54044342eae1860c57145bc136YmiF8idBq2iTXQhz[] = {
/* columns rows colors chars-per-pixel */
"64 64 240 2 ",
"   c #061D2E",
".  c #102A39",
"X  c #570103",
"o  c #5A0204",
"O  c #5C0909",
"+  c #5E170C",
"@  c #5E1411",
"#  c #6B0F0E",
"$  c #681818",
"%  c #5E210E",
"&  c #583A1C",
"*  c #652714",
"=  c #6E331B",
"-  c #6D1F22",
";  c #5B3E21",
":  c #772827",
">  c #663C22",
",  c #75302F",
"<  c #66441D",
"1  c #5E4122",
"2  c #624423",
"3  c #6A4624",
"4  c #6A4926",
"5  c #6C4B29",
"6  c #6F502B",
"7  c #73532C",
"8  c #755636",
"9  c #766D2D",
"0  c #344350",
"q  c #03417F",
"w  c #1A487B",
"e  c #37556E",
"r  c #305076",
"t  c #3C6076",
"y  c #784446",
"u  c #745B43",
"i  c #7A6F53",
"p  c #4A5A6B",
"a  c #576768",
"s  c #667170",
"d  c #8C171B",
"f  c #98151A",
"g  c #94191D",
"h  c #9D1A1E",
"j  c #A01B1F",
"k  c #8D281C",
"l  c #9D1720",
"z  c #9F1B20",
"x  c #A11D21",
"c  c #B91E2C",
"v  c #8D2D2C",
"b  c #A52524",
"n  c #B02E2D",
"m  c #A93337",
"M  c #C42F2F",
"N  c #B6561C",
"B  c #8A532A",
"V  c #B74A25",
"C  c #9E6C2A",
"Z  c #996D39",
"A  c #A36E28",
"S  c #A8752B",
"D  c #AC752D",
"F  c #AE7835",
"G  c #B47E39",
"H  c #CC4E2E",
"J  c #CF6E2D",
"K  c #E27C30",
"L  c #8A5555",
"P  c #995656",
"I  c #B34F53",
"U  c #856A4B",
"Y  c #836E56",
"T  c #8B7357",
"R  c #AB5D62",
"E  c #8D7A6A",
"W  c #AE7274",
"Q  c #C3686B",
"!  c #C97174",
"~  c #7E953A",
"^  c #79817E",
"/  c #B68C36",
"(  c #D7A21D",
")  c #F2AF1C",
"_  c #F3B21E",
"`  c #D48F2A",
"'  c #D8A72C",
"]  c #DAB83C",
"[  c #F4B626",
"{  c #F6BA24",
"}  c #E9B231",
"|  c #F5BC37",
" . c #FAC72D",
".. c #ECC439",
"X. c #F5CA33",
"o. c #FBCC32",
"O. c #F7C939",
"+. c #FAD031",
"@. c #978F51",
"#. c #B88646",
"$. c #A79A4C",
"%. c #B19253",
"&. c #84AB45",
"*. c #87B84B",
"=. c #8BB953",
"-. c #ACA14C",
";. c #B6A346",
":. c #8F8674",
">. c #968878",
",. c #9E987D",
"<. c #AD9570",
"1. c #9ABA6B",
"2. c #B5AE7A",
"3. c #C48F59",
"4. c #CEB24C",
"5. c #F5BD42",
"6. c #C59C67",
"7. c #CBAE6E",
"8. c #8DC24E",
"9. c #8FC351",
"0. c #92C453",
"q. c #97C85C",
"w. c #9DCB64",
"e. c #9AC468",
"r. c #A2CE6B",
"t. c #A8CE78",
"y. c #ABD379",
"u. c #EBC548",
"i. c #F6C647",
"p. c #FBD249",
"a. c #EFC758",
"s. c #FCD557",
"d. c #DCC163",
"f. c #EECE69",
"g. c #FBD976",
"h. c #043D82",
"j. c #064584",
"k. c #2F5B8A",
"l. c #0363AB",
"z. c #577090",
"x. c #798488",
"c. c #6C93BA",
"v. c #318CC9",
"b. c #519CD1",
"n. c #6CA9D3",
"m. c #888A8B",
"M. c #9B9384",
"N. c #999791",
"B. c #B68E8E",
"V. c #A6978A",
"C. c #A69596",
"Z. c #AAA399",
"A. c #B3A992",
"S. c #95A3B3",
"D. c #AFB0AE",
"F. c #B4B3AE",
"G. c #B9B8B7",
"H. c #CE8F91",
"J. c #CDB38B",
"K. c #CBB1A9",
"L. c #D5B8B8",
"P. c #ADCA83",
"I. c #B4D887",
"U. c #BDDC97",
"Y. c #BFD2A3",
"T. c #DBC893",
"R. c #F9D88B",
"E. c #C2E19B",
"W. c #FCE392",
"Q. c #D9C8A7",
"!. c #C7DAA9",
"~. c #CECDB4",
"^. c #CAC4BB",
"/. c #CCD7B6",
"(. c #E9D2AB",
"). c #E7D3B9",
"_. c #CAE5A8",
"`. c #D1E7B6",
"'. c #FDE6A6",
"]. c #FCE9B5",
"[. c #8BB2CE",
"{. c #B4BAC2",
"}. c #C4BEC3",
"|. c #9AC0DB",
" X c #BBC8D0",
".X c #99C5E4",
"XX c #B3D2E9",
"oX c #CAC7C2",
"OX c #D2CBC4",
"+X c #D6CAC7",
"@X c #CED9C8",
"#X c #DAD4C4",
"$X c #D6D1CB",
"%X c #D9D2CE",
"&X c #CBCED3",
"*X c #CCD3D9",
"=X c #DBD8D6",
"-X c #D2D6DA",
";X c #D6DADE",
":X c #E9C8C9",
">X c #EDD5CD",
",X c #E4DAD7",
"<X c #E4DDDA",
"1X c #DCEDC7",
"2X c #FAEBC6",
"3X c #E5E1DD",
"4X c #E6E9D9",
"5X c #F5E7D3",
"6X c #E9F4DA",
"7X c #FCF3D8",
"8X c #C5DDED",
"9X c #D4DCE5",
"0X c #DBDEE2",
"qX c #E0DFE0",
"wX c #DDE1E4",
"eX c #DBE6EC",
"rX c #C9E1F1",
"tX c #E2E3E5",
"yX c #EAE4E2",
"uX c #EBEAE6",
"iX c #E3E6E9",
"pX c #E6E9EC",
"aX c #EBECED",
"sX c #F6ECE9",
"dX c #EDF5E3",
"fX c #F4F6E8",
"gX c #F9F3EC",
"hX c #F3FAEB",
"jX c #FEF9EB",
"kX c #E4ECF1",
"lX c #EDEFF1",
"zX c #F6EFF0",
"xX c #EDF1F3",
"cX c #F3F3F4",
"vX c #FBF6F5",
"bX c #F7F9F6",
"nX c #FCFBF5",
"mX c #F6F7F8",
"MX c #FEFEFD",
"NX c white",
/* pixels */
"NXNXNXNXNXNXNXNXNXNXNXNXNXNXNXNXNXNXNXNXNXNXNXNXNXNXNXNXNXNXNXNXNXNXNXNXNXNXNXNXNXNXNXNXNXNXNXNXNXNXNXNXNXNXNXNXNXNXNXNXNXNXNXNX",
"NXNXNXNXNXNXNXNXNXNXNXNXNXNXNXNXNXNXNXNXNXNXNXNXNXNXNXNXNXNXNXNXNXNXNXNXNXNXNXNXNXNXNXNXNXNXNXNXNXNXNXNXNXNXNXNXNXNXNXNXNXNXNXNX",
"NXNXNXNXNXNXNXNXNXNXNXNXNXNXNXNXNXNXNXNXNXNXNXNXNXNXNXNXNXNXNXNXNXNXNXNXNXNXNXNXNXNXNXNXNXNXNXNXNXNXNXNXNXNXNXNXNXNXNXNXNXNXNXNX",
"NXNXNXNXNXNXNXNXNXNXNXNXNXNXNXNXNXNXNXNXNXNXNXNXNXNXNXNXNXNXNXNXNXNXNXNXNXNXNXNXNXNXNXNXNXNXNXNXNXNXNXNXNXNXNXNXNXNXNXNXNXNXNXNX",
"NXNXNXNXNXNXNXNXNXNXNXNXNXNXNXNXNXNXNXNXNXNXNXNXNXNXNXNXNXNXNXNXNXNXNXNXNXNXNXNXNXNXNXNXNXNXNXNXNXNXNXNXNXNXNXNXNXNXNXNXNXNXNXNX",
"NXNXNXNXNXNXNXNXNXNXNXNXNXNXNXNXNXNXNXNXNXNXNXNXNXNXNXNXNXNXNXNXNXNXNXNXNXNXNXNXNXNXNXNXNXNXNXNXNXNXNXhX6X6X6XhXNXNXNXNXNXNXNXNX",
"NXNXNXNXNXNXNXNXNXNXNXNXNXNXNXNXNXNXNXNXNXNXNXNXNXNX2X'.jXNXNXNXNXNXNXNXNXNXNXNXNXNXNXNXNXNXNXNXNXhX_.t.w.q.q.I.hXNXNXNXNXNXNXNX",
"NXNXNXNXNXNXNXNXNXNXNXNXNXNXNXNXNXNXNXNXNXNXNXNXNXNX'.O.s.'.jXNXNXNXNXNXNXaXiXbXNXNXNXNXNXNXNXNX1Xt.0.*.8.*.q.y.hXNXNXNXNXNXNXNX",
"NXNXNXNXNXNXNXNXNXNXNXNXNXNXNXNXNXNXNXNXNXNXNXNXNXNXW.[  .o.g.jXNXNXNXNXmX0XtXpXNXNXNXNXNXNXNX`.q.8.q.r.*.e.1XdXNXNXNXNXNXNXNXNX",
"NXNXNXNXNXNXNXNXNXNXNXNXNXNXNXNXNXNXNXNXNXNXNXNXNX7Xi._ { o.o.g.jXNXNXNXpXiXiXwXbXNXNXNXNXNX1Xq.8.r.1X6Xe.1.fXNXNXNXNXNXNXNXNXNX",
"NXNXNXNXNXNXNXNXNXNXNXNXNXNXNXNXNXNXNXNXNXNXNXNX2Xi._ ) { o.o.o.W.NXNXNXiXxXcXwXtXiXmXNXNXbXy.8.r.6XNXNX_.1.dXNXNXNXNXNXNXNXNXNX",
"NXNXNXNXNXNXNXNXNXNXNXNXNXNXNXNXNXNXNXNXNXNXnX'.| _ _ _ { o.o.o.s.jXNXlXwXlXtXwXwXwX;XmXNX1X0.8.e.1XNXNXuX~.bXNXNXNXNXNXNXNXNXNX",
"NXNXNXNXNXNXNXNXNXNXNXNXNXNXNXNXNXNXNXNXNXjXR.[ [ _ _ _ { o.o.o.p.7XbX0XiX0X*X;X;X;X0XaXnXE.8.=.*.1./.nXuX,XNXNXNXNXNXNXNXNXNXNX",
"NXNXNXNXNXNXNXNXNXNXNXNXNXNXNXNXNXNXNXNXnXR.[ _ _ _ _ { o.o.o.o.p.7XbX0XaXxXaX*X&X*X;XpXhXy.0.y.!.P.Y.bXuX<XNXNXNXNXNXNXNXNXNXNX",
"NXNXNXNXNXNXNXNXNXNXNXNXNXNXNXNXNXNXNXNX].[ _ _ ' / i s i ] ] ] s.7XNXwXwX0X;X0XaXiX-XlXhXt.0._.NX4X%XNXyX3XNXNXNXNXNXNXNXNXNXNX",
"NXNXNXNXNXNXNXNXNXNXNXNXNXNXNXNXNXNXNXnXg._ ( T e j.h.w @.;.p @.s.2XNXmX0X0XiXcXmXlXiXbXhXt.0._.NXuX%XNX<XyXNXNXNXNXNXNXNXNXNXNX",
"NXNXNXNXNXNXNXNXNXNXNXNXNXNXNXNXNXNXNXjXi./ t j.q q w $.$.p @.X.o.p.'.NXiXtXcXcXpX0XbXNXbXI.0.I.nX1X~.cX=XuXNXNXNXdXlXNXdXU.1XNX",
"NXNXNXNXNXNXNXNXNXNXNXNXNXNXNXNXNXNXNXjX7.k.l.j.j.w $.$.e -.X.o.o.o.p.'.tX|.n..X8XwXNXNXNX_.0.w.I.e.1.dX=XaXNXNXbXU.r.`.U.0.y.hX",
"NXNXNXNXNXNXNXNXNXNXNXNXNXNXNXNXNXNXNX9Xk.j.j.q w -.$.p ;.X.o.u.7.O.o.p.~.n.n.b.v.eXNXNXNX1Xq.9.*.=./.cX$XuX4XNXbX!.=.&.9.8.U.NX",
"NXNXNXNXNXNXNXNXNXNXNXNXNXNXNXNXNXNXNXc.j.q w w $.4.S.G.u.o.o.4.N.7...o.Q.XXXX8XXXkXNXNX6XI.8.8.8.t.3XmX+X!.P.dXcXOXU.=.8.w.6XNX",
"NXNXNXNXNXNXNXNXNXNXNXNXNXNXNXNXNXNX9Xk.q k.x.%.$.z.iXkX~.O.u.:.0 p 2.O.D.v.v.v.[.lXbX`.w.8.q.w.8.0.!.6XOXy.w.4XuX~.I.0.0._.NXNX",
"NXNXNXNXNXNXNXNXNXNXNXNXNXnXjXjXnXnX[.j.q z.m.,.s ,.wXmX0Xa.7.a   . m.4.@XrXrXXX[.@Xy.0.8.t.1X1Xr.8.9.r.P.e.=.U.I.q.0.0.E.bXNXNX",
"NXNXNXNXNXNXNXNXNXNXnX2XW.s.p.p.s.g.x.q k.s . 0 M.d.3XmXiXT.4.m.p s N.d.[.v.v.n.*Xt.8.q.E.dXNXNX6XI.0.9.8.8.0.0.8.0.r._.nXNXNXNX",
"NXNXNXNXNXNXNXNXNXnXW.p.o.o.o.o.o.X.s j.z.s . . m.7.#XxXmX~...2.Z.Z.7.f. XXX.Xb.n.e.y.1XNXNXNXNXNX3X~.P.w.0.q.q.t._.6XNXNXNXNXNX",
"NXNXNXNXNXNXNXNXnXW.o.o.o.o.o.o.o.X.s w <.N.x.m.Z.u.Q.aXaXOXi.X.u...o.f.aXNXNXxX X`.hXNXNXNXNXNXNX%X<X$X4X~.4X/.4XNXNXNXNXNXNXNX",
"NXNXNXNXNXNXNXNX].O.o.o.o.o.o.o.o.X.i @.-.^ A.2.u.o.f.$X=XT.o.X.o.+.4.J.iXaXaXcXiXmXNXNXNXNXNXNXNX$XyXoXuXOXuXOXmXNXNXNXNXNXNXNX",
"NXNXNXNXNXNXNXjXs. . .{ { { {  .o.o.4.4.e ;.X.o.o.X.o.u.u.}  .;.i @.e S.mXNXbXcX0XmXNXNXNXNXNXNXNX$XuX+XyX=X3X=XNXNXNXNXNXNXNXNX",
"NXNXNXNXNXNXNX].o.{ _ _ _ _ _ _ _ { { a i X.4...] @.} H H M H } i e r {.cXmXbXbX0XmXNXNXNXNXNXNXNX%X3X%X3XyX$XuXNXNXNXNXNXNXNXNX",
"NXNXNXNXNXNXNXg.{ [ [ _ _ _ _ _ _ _ / a ..] r p e $.` c c c H | X.] 4.$XxXxXaXaX0XmXNXNXNXNXNXNXNX$X=X3X%XyXoXNXNXNXNXNXNXNXNXNX",
"NXNXNXNXNXNXNXW.].7X2XR.5.[ _ _ _ _ ' ] o...a e $.X.| K J K | o.o.o.u.=XNXNXbXcXwXbXNXNXNXNXNXNXNX^.%X3XOX%X3XNXNXNXNXNXNXNXNXNX",
"NXNXNXNXNXNXNXNXNXNXNXNX7XR.| _ _ _ _  .o.o.o.X.o.o.o.X.} ' ` J J J 3.tXNXNXNXmXpXNXNXNXNXNXNXNXmX^.$X=X$X$XbXNXNXNXNXNXNXNXNXNX",
"NXNXNXNXNXNXNXNXNXNXNXNXNXnX7X'.g.a.| O.o.o.o.o.} ` H n b x x h z f R eXaXaXlXlXiXNXNXNXNXNXNXNXaXOX$XOX$X3XNXNXNXNXNXNXNXNXNXNX",
"NXNXNXNXNXNXNXNXNXNXNXNXNXNXNXNXnXnXjX'.o.X.` V b x x x z g g g h f P xXNXbXcXiXwXNXNXNXNXNXNXNXzXoXOXoXOXcXNXNXNXNXNXNXNXNXNXNX",
"NXNXNXNXNXNXNXNXNXNXNXNXNXNXNXNXNXNXNX2X` V h h h x h g d g h h h x B #XNXNXNXcXtXNXNXNXNXNXNXNX4XA.^.^.=XNXNXNXNXNXNXNXNXNXNXNX",
"NXNXNXNXNXNXNXNXNXNXNXNXNXNXNXNXNXNXNX:Xb h h h h g d g h x h g h h B <.uXmXbXlXiXNXNXNXNXNXNXNX_.0.e.P.lXNXNXNXNXNXNXNXNXNXNXNX",
"NXNXNXNXNXNXNXNXNXNXNXNXNXNXNXmXcXcXNXyXI j h g d g h h x h d g x B B Z OXlXlXtX,XNXNXNXNXNXNXbXI.*.*.t.nXNXNXNXNXNXNXNXNXNXNXNX",
"NXNXNXNXNXNXNXNXNXNXNXNXNXNXaX0X0X0X0X0XK.x g g h h h h g d g h k 3 B 5 U ,XNXpXW :XNXNXNXNXNX_.0.*.*.U.NXNXNXNXNXNXNXNXNXNXNXNX",
"NXNXNXNXNXNXNXNXvXvXvXbXNXaXwXiXwXwX-X0X+Xm h h h h h h d g h b B.i & ; 4 U ^.qXR I sXNXNXNXdXw.8.8.8.y.nXNXNXNXNXNXNXNXNXNXNXNX",
"NXNXNXNXvX:XH.! Q Q Q W H.-XpXwXtX*X0X0XB.h z h h h h h h h d > V. XY < 2 5 8 E v b H.NXNXNX6X0.8.8.8.w.hXNXNXNXNXNXNXNXNXNXNXNX",
"NXNXNX>XQ m b x z h z h I -X;XiX&XpXaXiX}.W m h h h h h g : & & 7 M.G.E 1 5 5 5 * g m :XNXNXhXy.0.0.0.I.NXNXNXNXNXNXNXNXNXNXNXNX",
"NXNX>XI x x x j x h g b B.0X0X*X*X0X0X;XiXxXK., k k : = > 2 2 ; 5 5 >. X>.6 4 5 * # x ! vXNXNXdX_.U.U.6XNXNXNXNXNXNXNXNXNXNXNXNX",
"NXNX! x x h g d # # * ,.0X-X;X-XlXxX0X;XcXmX$X7 < & & & & 2 & & 2 1 ; E G.Z.8 5 * # h n >XNXNXNXNXnXNXNXNXNXNXNXNXNXNXNXNXNXNXNX",
"NX:Xm m I # o X + 4 &.q.oXD.C.&X0X;XpXcXcXNX;XV.M.,.>.:.E Y u u u i i u Y F.F.Y * o g x H.NXNXNXNXNXNXNXNXNXNXNXNXNXNXNXNXNXNXNX",
"NXH.! :X,X: X * ~ *.8.&.8 $ @ , L &XbX=XK.A.V.F.9XlXcXcXaXwX0X;X&XwXwX;XF.C.{.{.E = k l I NXNXNXNXNXNXNXNXNXNXNXNXNXNXNXNXNXNXNX",
"NXzXzXNXzXP < &.8.*.9 % o o o o O y C.U 5 3 4 6 U M.G.=XpXaXlXtX0XaXxXaX;XpXtX-XoXJ.` N I sXNXNXNXNXNXNXNXNXNXNXNXNXNXNXNXNXNXNX",
"NXNXNXNXcXP 9 *.~ < o X X X o X o o = 4 5 5 5 5 3 3 6 i :.Z.^.*XcXlXmXxX-X-X%XG.V.2.( ( J >XNXNXNXNXNXNXNXNXNXNXNXNXNXNXNXNXNXNX",
"NXNXNXNXcXP + * + o X o o X X o X + 3 4 4 4 4 4 5 5 4 4 5 5 Y -XNXbXNXNXoXU 8 7 4 7 S ( ' 2XNXNXNXNXNXNXNXNXNXNXNXNXNXNXNXNXNXNX",
"NXNXNXNXcXP o o o o X X o o o o X $ 5 4 5 5 5 5 2 3 4 5 5 5 V.cXNXNXNXNXG.5 5 5 4 5 5 B / (.NXNXNXNXNXNXNXNXNXNXNXNXNXNXNXNXNXNX",
"NXNXNXNXvXW o o o o X X X o o o X * 8 8 6 5 4 5 ; 2 5 4 4 7 G.;X0XmXbXNXF.5 5 4 4 5 5 5 7 J.NXNXNXNXNXNXNXNXNXNXNXNXNXNXNXNXNXNX",
"NXNXNXNXNXK.O o o o o X o o X X $ V.^.^.K.A.>.U 1 > 3 3 3 5 i u Y Z.Z.oXM.5 5 5 5 5 5 4 5 ,.3XbXNXNXNXNXNXNXNXNXNXNXNXNXNXNXNXNX",
"NXNXNXNXNXyXv o o o o o X o o o , =XNXNXNXbXzX+Xu O + + + + + * * = 3 8 7 5 5 5 5 5 4 5 ,.<XyX<XNXNXNXNXNXNXNXNXNXNXNXNXNXNXNXNX",
"NXNXNXNXNXNXL.: o o o o o o o o , oXmXvXbXbXbXuXL X o X X X o o o O + = 3 5 4 5 5 5 8 V.yXNXvX,XbXNXNXNXNXNXNXNXNXNXNXNXNXNXNXNX",
"NXNXNXNXNXNXNXL.P v , , , , - o O L K.%X%X%XoXZ.: X o o o X o o o X X X + > 4 5 5 5 ,.yXNXNXyX%XNXNXNXNXNXNXNXNXNXNXNXNXNXNXNXNX",
"NXNXNXNXNXNXNXNXvXyX,X,X<X<X+XW $ @ C.pXaXpXC.@ o o o o o o o o X X X o X o + > 6 U %XNXNXuX$X;X#XsXNXNXNXNXNXNXNXNXNXNXNXNXNXNX",
"NXNXNXNXNXNXNXNXNXNXNXNXNXNXNXvXK.B G 7.7.J.T O # $ - $ O o o o o o o o o O : B.#X,X,XzXyX$XtXK.#.3.5XnXnXNXNXNXNXNXNXNXNXNXNXNX",
"NXNXNXNXNXNXNXNXNXNXNXNXNXNXNXgX).J.A A A S F B.K.L.+XL.B.L $ o o o o o $ R +XNXNXNXsX<X=X-XK.D D S %.7.J.).NXNXNXNXNXNXNXNXNXNX",
"NXNXNXNXNXNXNXNXNXNXNXNXNXNXsX6.G F C C C C <.NXNXNXNXNXNXsX:XH.W R W H.:XzXNXNXNXNXNXbXbX3X%.D A C D D D #.).NXNXNXNXNXNXNXNXNX",
"NXNXNXNXNXNXNXNXNXNXNXNXNXNXQ.D D D D D D S 6.NXNXNXNXNXNXNXNXNXNXNXNXNXNXNXNXNXNXNXNXNXNXNXT.A A D D D S D J.NXNXNXNXNXNXNXNXNX",
"NXNXNXNXNXNXNXNXNXNXNXNXNXNXQ.G F F F G #.G J.NXNXNXNXNXNXNXNXNXNXNXNXNXNXNXNXNXNXNXNXNXNXNXgX6.#.7.#.#.#.%.).NXNXNXNXNXNXNXNXNX",
"NXNXNXNXNXNXNXNXNXNXNXNXNXNXvX).Q.Q.Q.5X5X>XgXNXNXNXNXNXNXNXNXNXNXNXNXNXNXNXNXNXNXNXNXNXNXNXNXgXgXvXgXsXgXgXNXNXNXNXNXNXNXNXNXNX",
"NXNXNXNXNXNXNXNXNXNXNXNXNXNXNXNXNXNXNXNXNXNXNXNXNXNXNXNXNXNXNXNXNXNXNXNXNXNXNXNXNXNXNXNXNXNXNXNXNXNXNXNXNXNXNXNXNXNXNXNXNXNXNXNX",
"NXNXNXNXNXNXNXNXNXNXNXNXNXNXNXNXNXNXNXNXNXNXNXNXNXNXNXNXNXNXNXNXNXNXNXNXNXNXNXNXNXNXNXNXNXNXNXNXNXNXNXNXNXNXNXNXNXNXNXNXNXNXNXNX",
"NXNXNXNXNXNXNXNXNXNXNXNXNXNXNXNXNXNXNXNXNXNXNXNXNXNXNXNXNXNXNXNXNXNXNXNXNXNXNXNXNXNXNXNXNXNXNXNXNXNXNXNXNXNXNXNXNXNXNXNXNXNXNXNX",
"NXNXNXNXNXNXNXNXNXNXNXNXNXNXNXNXNXNXNXNXNXNXNXNXNXNXNXNXNXNXNXNXNXNXNXNXNXNXNXNXNXNXNXNXNXNXNXNXNXNXNXNXNXNXNXNXNXNXNXNXNXNXNXNX"
};
