/* XPM */
static char *_a443a5835c44738ff186085105e176eqO4djj4X3FfRMuiz[] = {
/* columns rows colors chars-per-pixel */
"70 70 208 2 ",
"   c None",
".  c #010302",
"X  c #020B01",
"o  c #04030B",
"O  c #0A000C",
"+  c #000A0A",
"@  c #021301",
"#  c #021D03",
"$  c #081C00",
"%  c #031209",
"&  c #01190F",
"*  c #0E1A0D",
"=  c #012304",
"-  c #092202",
";  c #012C02",
":  c #012509",
">  c #002A0A",
",  c #0B210C",
"<  c #013304",
"1  c #0E3505",
"2  c #023902",
"3  c #083A00",
"4  c #003309",
"5  c #013B09",
"6  c #0D2614",
"7  c #132615",
"8  c #142B15",
"9  c #152D19",
"0  c #182F19",
"q  c #013C13",
"w  c #0E381A",
"e  c #163B15",
"r  c #193C15",
"t  c #1C3B19",
"y  c #00430C",
"u  c #0B4B08",
"i  c #17490E",
"p  c #105F0A",
"a  c #1C5909",
"s  c #004E13",
"d  c #094213",
"f  c #1A4218",
"g  c #1F4B19",
"h  c #175811",
"j  c #1D561F",
"k  c #1A5D1C",
"l  c #234C1D",
"z  c #23531C",
"x  c #295E36",
"c  c #1C652D",
"v  c #087836",
"b  c #1F7736",
"n  c #1A7936",
"m  c #1C773B",
"M  c #2C6D24",
"N  c #366B26",
"B  c #2D772D",
"V  c #34752E",
"C  c #377427",
"Z  c #246D36",
"A  c #236634",
"S  c #386831",
"D  c #247636",
"F  c #257339",
"G  c #3B7232",
"H  c #3D7C3D",
"J  c #347832",
"K  c #47793F",
"L  c #417D34",
"P  c #306C41",
"I  c #367E44",
"U  c #3E7A42",
"Y  c #3F7950",
"T  c #1F803D",
"R  c #12823C",
"E  c #1D973E",
"W  c #21893E",
"Q  c #3A8733",
"!  c #23953F",
"~  c #28993F",
"^  c #2B963C",
"/  c #32AA3E",
"(  c #3EB13F",
")  c #438C3B",
"_  c #439739",
"`  c #55973E",
"'  c #4CBF3E",
"]  c #57BC3F",
"[  c #1E8544",
"{  c #1D8A47",
"}  c #099846",
"|  c #0F974A",
" . c #0A984A",
".. c #079949",
"X. c #179742",
"o. c #1D9645",
"O. c #159843",
"+. c #1F9941",
"@. c #12974A",
"#. c #1C9649",
"$. c #1B984A",
"%. c #14984A",
"&. c #228444",
"*. c #2C8144",
"=. c #238D44",
"-. c #298B47",
";. c #2D8348",
":. c #2D8C4A",
">. c #3D8F47",
",. c #348E4C",
"<. c #3C8E4F",
"1. c #3E8546",
"2. c #239646",
"3. c #299545",
"4. c #229A43",
"5. c #2B9B44",
"6. c #24954A",
"7. c #2B944B",
"8. c #24984B",
"9. c #289C49",
"0. c #339345",
"q. c #32924C",
"w. c #35994B",
"e. c #3C914B",
"r. c #3B8C51",
"t. c #378C54",
"y. c #2D9352",
"u. c #339953",
"i. c #32AA43",
"p. c #3DA64A",
"a. c #3AAE4D",
"s. c #3FB44C",
"d. c #3CAE52",
"f. c #3EB252",
"g. c #458F40",
"h. c #458D4F",
"j. c #4F9E4F",
"k. c #559643",
"l. c #5A9C45",
"z. c #58954E",
"x. c #549D49",
"c. c #5A9B49",
"v. c #569E43",
"b. c #429654",
"n. c #409558",
"m. c #579851",
"M. c #42A44B",
"N. c #4AAF4F",
"B. c #56AD46",
"V. c #5CAC49",
"C. c #55A147",
"Z. c #48B247",
"A. c #46BB46",
"S. c #4DB945",
"D. c #41B44C",
"F. c #4DB74B",
"G. c #47BA48",
"H. c #4DB84B",
"J. c #45B244",
"K. c #53B746",
"L. c #58B747",
"P. c #55BC44",
"I. c #5BBB46",
"U. c #54B74C",
"Y. c #5CB54D",
"T. c #54BB4B",
"R. c #5CBD49",
"E. c #5EBC49",
"W. c #5BBA4D",
"Q. c #5EB94D",
"!. c #5CBA4B",
"~. c #43A452",
"^. c #46AE54",
"/. c #4FA853",
"(. c #51AF52",
"). c #41B352",
"_. c #4AB152",
"`. c #4CB154",
"'. c #4AB154",
"]. c #55B551",
"[. c #5BB453",
"{. c #55B952",
"}. c #5EBA51",
"|. c #5DB951",
" X c #5DB45A",
".X c #63B747",
"XX c #62B947",
"oX c #62B74D",
"OX c #60B949",
"+X c #61B94D",
"@X c #61B94C",
"#X c #64AF55",
"$X c #65AF54",
"%X c #69AD58",
"&X c #63B553",
"*X c #60B851",
"=X c #60B852",
"-X c #61B952",
";X c #6ABB54",
":X c #60B358",
">X c #6EB65D",
",X c #67BB5B",
"<X c #6BB95C",
"1X c #68B554",
"2X c #6CA964",
"3X c #6BBA61",
"4X c #6FB562",
"5X c #76B662",
/* pixels */
"                                                                                                                                            ",
"                                                                                                                                            ",
"                                                                                                                                            ",
"                                                                                                                                            ",
"                                                                                                                                            ",
"                                V.V.B.B.B.B.B.B.B.B.B.B.B.B.B.B.B.B.B.B.B.B.B.B.B.B.B.B.B./.0.,.:.,.,.,.,.6.,.,.&.                          ",
"                                Q.+XQ.R.I.I.I.I.I.I.I.I.I.I.I.I.I.I.I.I.I.I.I.I.I.I.I.I.I.N.~ 3.2.2.3.3.2.| 3.7.[                           ",
"                                Q.E.P.P.R.R.R.P.I.I.I.I.I.P.P.P.I.R.R.R.I.I.I.I.I.I.P.P.P.'.~ 2.2.o.4.2.o...3.7.[                           ",
"                                +XOXI.Q.Q.Q.Q.Q.Q.Q.Q.Q.Q.Q.Q.Q.Q.Q.Q.Q.Q.Q.Q.Q.Q.Q.Q.Q.Q._.3.6.6.3.3.6.6. .6.7.&.                          ",
"                                Q.OXW.Q.E.E.E.E.E.E.P.P.E.E.E.E.E.E.E.E.E.E.E.E.E.P.E.I.E._.3.6.6.2.6.6.3. .6.7.[                           ",
"                                I.Q.I.Q.I.I.I.I.I.I.W.P.I.I.I.I.I.I.I.I.I.I.I.I.I.I.P.R.I.'.3.2.#.o.2.2.3.} 2.7.[                           ",
"                                +X+XP.&XQ.&X&X*XQ.+X>X' +XQ.E.I.Q.Q.}.OX}.}.[.=X+X&X] Q.OX`.3.6.6.2.3.3.3.@.6.7.[                           ",
"                                +XQ.Q.Q S f r e e r l L.*XI.Q.I.Q.Q.g.M g r r t r l Y.W.P.'.3.6.6.2.3.3.3.@.6.7.[                           ",
"                                Q.}.+XB ; @ X . . . $ [.*XI.Q.I.Q.+XH < X X . . X @ #XW.P.'.3.6.6.2.3.3.3.@.6.7.[                           ",
"                                Q.*X*XV ; @ . . . . X =XQ.P.Q.P.P.+XH ; X X . . . X #XW.E.`.3.6.6.2.3.3.3.@.6.7.[                           ",
"                                Q.*X+XJ = + o o o o X [.I.I.oXI.I.}.U ; % X . . X @ &XI.OX`.3.6.6.2.3.3.3.@.6.7.[                           ",
"                                Q.+X+XV ; X . . . . @ [.W.Q.1XI.P.Q.H < X . . . . X &XP.+X`.3.6.6.2.3.3.3.@.6.7.[                           ",
"                                Q.Q.*XV ; X . . . . X oXQ.E.}.OXW.+XU = X o o . X @ #XR.Q._.3.6.8.2.6.6.7.@.6.7.[                           ",
"                                Q.OX*XB ; @ X . . . X :X|.Q.{.E.*X&XU ; @ X . O . X %XI.I._.3.6.8.2.6.6.7.@.6.7.[                           ",
"                                Q.Q.+XQ i - $ $ $ $ ; C.x.k.k.` k.k.J h 1 $ $ $ - ; &XP.I.'.3.6.8.2.6.6.7.@.6.7.[                           ",
"                                Q.OXQ.-X-X>X3X3X,X3X2Xu ; X . X X X i 4X,X<X<X,X<X,XR.I.Q.`.3.6.6.2.6.6.7.@.6.7.[                           ",
"                                }.Q.I.Q.Q.Q.}.W.W.Q.(.d = . . o . @ p *XQ.XX.XE.Q.Q.Q.Q.Q.`.3.6.6.2.6.6.7.@.6.7.[                           ",
"                                }.}.I.E.I.E.Q.P.I.+X].w = X . . . . a &XQ.I.Q..X*XQ.+XQ.E.'.3.6.6.2.6.6.7.@.6.7.[                           ",
"                                *XQ.P.E.Q.Q.Q._ ) G N * X . . o . . 1 G V C V.] P.P.I.E.P.'.3.6.6.2.3.6.7.@.6.7.[                           ",
"                                +XQ.P.E.Q.Q.Q.j = . . . . . . . . . . . . X x.P.I.I.I.I.I.`.3.6.6.2.3.3.3.@.6.7.[                           ",
"                                +XQ.P.E.Q.Q.Q.j = . . . . . . . . . . . . X x.P.I.I.I.I.I.'.3.6.6.2.3.3.3.@.6.7.[                           ",
"                                +XQ.P.E.Q.Q.Q.j = . . . . . . . . . . . . X x.P.P.I.P.P.I.'.3.6.6.2.3.3.3.@.6.7.[                           ",
"                                +XQ.P.E.OXE.Q.j = . . . . . . . . . . . . X x.P.P.P.P.P.I.'.3.6.6.2.3.3.3.@.6.7.[                           ",
"                                +XQ.P.E.OXE.Q.j = . . . . . . . . . . . . X x.P.P.P.P.P.P.'.3.6.6.2.3.3.3.@.6.7.[                           ",
"                                +XQ.P.E.Q.E.+Xj = . . . . . . . . . . . . X x.P.P.P.P.P.P.'.3.6.6.2.3.3.3.@.6.7.[                           ",
"                                &XQ.E.P.P.P.Q.z = X X . . X X X X + + X X X l.Q.Q.Q.Q.Q.Q.(.0.6.6.o.o.O.O.y.7.7.*.                          ",
"                                +XQ.I.L.T.P.I.z = X @ z.z.c.x.c.c.l.S - X + j.W.W.W.W.W.W.'.3.6.6.2.2.o.X.7.6.6.&.                          ",
"                                +XQ.OXQ.}.I.Q.k ; X X [.|.+XW.Q.*XoXK : @ X v.P.P.P.P.P.P.D.! 6.6.6.3.6.3.7.6.7.*.                          ",
"                                &XQ.Q.I.E.OXoXk : X . L.T.XXP.I.I.}.U > # X c.Q.Q.Q.Q.Q.Q.'.4.6.6.2.3.3.7.6.3.q.I                           ",
"                                >X<X;X-X;X>X5Xc q & : F._.U.H.H.U.Q.L 5 : - m.U.U.U.U.U.U.^.3.6.6.w.b.r.u.u.u.b.1.                          ",
"                                              =.q.7.,.+.3.4.2.^ E +.0.q.y.>.3.3.3.3.3.3.3.3.3.6.7.                                          ",
"                                              ! w.5.4.9.5.9.9.5.4.4.4.4.4.5.4.4.4.4.o.6.2.3.6.6.7.                                          ",
"                                              i.'.D.).).).f.f.f.f.).).).f.f.s.s.s.d.4.2.2.6.8.7.7.                                          ",
"                                              i.'.D.D.D.D.D.D.D.s.s.s.s.D.D.D.).f.d.4.2.2.6.#.7.7.                                          ",
"                                              i.'.D.D.s.s.s.s.s.s.s.s.s.s.s.s.D.D.f.4.2.2.6.#.6.7.                                          ",
"                                              i.'.D.s.s.s.s.s.s.s.s.s.s.s.s.s.s.D.a.4.2.2.6.8.6.7.                                          ",
"                                              i.'.D.s.s.s.s.s.s.s.s.s.s.s.s.s.s.D.a.4.2.2.6.#.6.7.                                          ",
"                                              i.'.D.s.s.s.s.s.s.s.s.s.s.s.s.s.s.D.a.4.2.2.6.8.7.7.                                          ",
"                                              / '.D.s.s.s.s.s.s.s.s.s.s.s.s.s.D.D.a.4.2.2.6.8.7.7.                                          ",
"                                              / '.D.s.s.s.s.s.s.s.s.s.s.s.s.s.D.D.a.4.2.2.6.8.7.7.                                          ",
"                                              / '.D.s.s.s.s.s.s.s.s.s.s.s.s.s.D.D.a.4.2.2.6.#.6.7.                                          ",
"                                              / '.D.s.s.s.s.s.s.s.s.s.s.s.s.s.D.s.s.4.2.2.6.#.6.7.                                          ",
"                                              / '.D.s.s.s.s.s.s.s.s.s.s.s.s.s.D.s.f.4.2.2.6.#.6.7.                                          ",
"                                              / '.D.s.s.s.s.s.s.s.s.s.s.s.s.s.D.s.s.4.2.2.6.8.7.7.                                          ",
"                                              / '.( D.D.D.D.D.D.J.Z.).f.f.f.)._.^.d.e.<.q.7.#.q.h.                                          ",
"                                 X[.U.K.I.W.W.U.U.Q.T.T.T.T.T.T.T.{.p.4.+.4.4.+.5.2.s y s < < 5 y v #.{ =.{ -.-.R                           ",
"                                [.[.H.T.H.].U.H.H.T.Q.E.E.E.E.E.P.W.p.3.6.6.6.o.7.-.2 ; ; ; 4 ; < n 7.3.7.%.7.q.T                           ",
"                                ].].U.[.Y.Q.Y.H.S.P.E.E.E.E.E.E.E.I.p.3.6.6.6.2.7.:.< ; ; ; < ; ; m 8.#.6.} o.7.[                           ",
"                                ].U.H.U.A.H.U.H.U.}.I.I.I.I.I.I.I.I.p.3.#.o.2.3.0.-.5 < 5 5 q ; ; D 7.3.0.X.3.7.[                           ",
"                                U.F.G.G.H.U.H.A.A.P.P.E.E.E.E.E.E.I.p.3.#.o.o.2.7.-.5 ; 4 : > ; ; n $.o.3...6.7.{                           ",
"                                [.Y.K.K.U.U.U.U.U.Q.P.P.P.P.E.P.P.|.~.3.6.2.2.o.3.-.2 ; ; ; ; ; < b 6.2.o. .6.7.&.                          ",
"                                [.U.S.K.U.U.U.U.U.I.I.I.Q.Q.Q.Q.P.I.M.3.3.3.3.2.3.-.2 ; ; ; ; ; ; D 7.3.7.@.6.7.[                           ",
"                                U.U.S.H.S.S.S.S.S.P.L.W.W.W.W.W.E.E.p.4.%.#.6.7.7.:.< ; ; ; < < < b 6.4.7.@.6.7.[                           ",
"                                Q.L.S.S.S.S.S.S.S.P.P.E.E.E.E.E.+X&X~.6.6.7.7.7.7.-.2 ; < ; 4 < ; m 6.o.7.@.6.7.[                           ",
"                                [.U.A.G.U.U.U.U.U.Q.OXoXoXOXOXOXE.L.p.2.#.6.6.o.3.=.5 ; < = ; : ; F 7.7.7.@.6.7.[                           ",
"                                 X[.U.U.].].].].].}.Q.Q.Q.Q.Q.Q.I.W.M.7.#.$.} 4.3.-.< = = ; 4 < ; D 3.3.7.@.6.7.[                           ",
"                                2 < 2 3 2 2 2 2 2 3 2 2 2 2 2 2 2 < 4 q D 7.X.3.7.;.# @ @ X % X X : q Z 7.@.6.7.[                           ",
"                                @ # # # # # # # # # = = = = = = : > # # F #.4.o.#.I % O . . . . . @ = c 4.3.O.O.W                           ",
"                                @ # # # # # # # = = = = = = = = = # @ $ Z 7.3.o.o.;.@ . . . . . . X # A 6.q.6.7.*.                          ",
"                                7 8 8 8 7 7 7 9 9 9 0 0 0 0 0 0 9 9 6 , P t.r.r.r.Y % o o o o o o * 7 x q.r.,.<.I                           ",
"                                                                                                                                            ",
"                                                                                                                                            ",
"                                                                                                                                            ",
"                                                                                                                                            ",
"                                                                                                                                            "
};
