/* XPM */
static char *_2f379d414f5477ad8166a60ae3ad3bc22PoKWufqLRlLxlY[] = {
/* columns rows colors chars-per-pixel */
"40 40 175 2 ",
"   c #17562D",
".  c #2E1B5B",
"X  c #2B375A",
"o  c #2B3B5A",
"O  c #2B3E67",
"+  c #215B56",
"@  c #35525B",
"#  c #1D6F54",
"$  c #1B7754",
"%  c #377F5A",
"&  c #2A4469",
"*  c #2A4D6A",
"=  c #29556F",
"-  c #275C6C",
";  c #28586C",
":  c #2A5976",
">  c #3B7266",
",  c #404F48",
"<  c #4E635A",
"1  c #4E6E62",
"2  c #447961",
"3  c #507065",
"4  c #009200",
"5  c #0BAE3E",
"6  c #7FAF17",
"7  c #76A41E",
"8  c #79A71D",
"9  c #7CAB1A",
"0  c #6D9926",
"q  c #679728",
"w  c #729E22",
"e  c #719D2B",
"r  c #6FA029",
"t  c #7BAA22",
"y  c #74A32D",
"u  c #7FB02E",
"i  c #74A332",
"p  c #75AA3A",
"a  c #7EB03C",
"s  c #05C338",
"d  c #149651",
"f  c #149A51",
"g  c #31835B",
"h  c #09BF43",
"j  c #0DBB4F",
"k  c #11A750",
"l  c #2FA65A",
"z  c #2DB259",
"x  c #1EAB7E",
"c  c #7CB342",
"v  c #4C8A67",
"b  c #618D6A",
"n  c #6C9F63",
"m  c #719E6F",
"M  c #73A96F",
"N  c #67B46B",
"B  c #70B066",
"V  c #7ABE72",
"C  c #0AC54E",
"Z  c #02E344",
"A  c #03E74A",
"S  c #02F74E",
"D  c #00FB4A",
"F  c #09FB4D",
"G  c #06EF56",
"H  c #09E75F",
"J  c #06ED59",
"K  c #09E95D",
"L  c #04F352",
"P  c #17FB51",
"I  c #1AFB52",
"U  c #27FB56",
"Y  c #28FC57",
"T  c #2EFC59",
"R  c #32FC5A",
"E  c #3BFC5C",
"W  c #0FDD6A",
"Q  c #11D76F",
"!  c #11D96E",
"~  c #16CD7A",
"^  c #13D374",
"/  c #0BE363",
"(  c #41FC5F",
")  c #7EC573",
"_  c #45FC60",
"`  c #4FFC63",
"'  c #55FC65",
"]  c #5CFD67",
"[  c #69FD6C",
"{  c #72FD6F",
"}  c #8BBD0F",
"|  c #83B414",
" . c #86BA11",
".. c #8ABE13",
"X. c #86B81A",
"o. c #86B91B",
"O. c #85B825",
"+. c #83B535",
"@. c #80B33E",
"#. c #8EC20B",
"$. c #91C609",
"%. c #93C808",
"&. c #8CC217",
"*. c #94CA16",
"=. c #99D11D",
"-. c #8BC325",
";. c #92CA23",
":. c #92CC2C",
">. c #9BD422",
",. c #9AD32B",
"<. c #89C838",
"1. c #95CD31",
"2. c #94CC3D",
"3. c #97D33A",
"4. c #A1DC37",
"5. c #84B743",
"6. c #8AC347",
"7. c #8DC44B",
"8. c #91CA4A",
"9. c #99D744",
"0. c #9EDD4B",
"q. c #92CB55",
"w. c #9AD658",
"e. c #9EDA5B",
"r. c #A0DD43",
"t. c #A2DF4F",
"y. c #A1DE52",
"u. c #A5E244",
"i. c #A3E04D",
"p. c #A4E452",
"a. c #A9E854",
"s. c #ABEC5C",
"d. c #9AD761",
"f. c #84CC75",
"g. c #92DF79",
"h. c #95E27A",
"j. c #83FE74",
"k. c #8CFE77",
"l. c #9DFE7C",
"z. c #A6E667",
"x. c #ACED61",
"c. c #A4E46C",
"v. c #AFF267",
"b. c #B0F36C",
"n. c #A5EE7F",
"m. c #ABF277",
"M. c #A1FE7D",
"N. c #B2F679",
"B. c #B4FA7B",
"V. c #2D5E82",
"C. c #2D6787",
"Z. c #2D6887",
"A. c #2D6F8C",
"S. c #2B7486",
"D. c #2D738F",
"F. c #2B7B8C",
"G. c #2D7791",
"H. c #2D7D94",
"J. c #2D8498",
"K. c #2D8C9C",
"L. c #2D919F",
"P. c #1EAA80",
"I. c #1DBE88",
"U. c #22A687",
"Y. c #25AC97",
"T. c #22B693",
"R. c #21B890",
"E. c #2D96A2",
"W. c #2D9DA6",
"Q. c #2DA1A9",
"!. c #1CC385",
"~. c #A9F380",
"^. c #ADFD81",
"/. c #B5FB81",
"(. c #B8FF85",
/* pixels */
"(.(.(.(.(.(.(.(.(.(.(.(.(.(.(.(.(.(.(.(.(.(.(.(.(.(.(.(.(.(.(.(.(.(.(.(.(.(.(.(.",
"(.(.(.(.(.(.(.(.(.(.(.(.(.(.(.(.(.(.(.(.(.(.(.(.(.(.(.(.(.(.(.(.(.(.(.(.(.(.(.(.",
"(.(.(.(.(.(.(.(.(.(.(.(.(.(.(.(.(.(.(.(.(.(.(.(.(.(.(.(.(.(.(.(.(.(.(.(.(.(.(.(.",
"(.(.(.(.(.(.(.(.(.(.(.(.(.(.(.(.(.(.(.(.(.(.(.(.(.(.(.(.(.(.(.(.(.(.(.(.(.(.(.(.",
"(.(.(.(.(.(.(.(.(.(.(.(.(.(.(.(.(.(.(.(.(.(.(.(.(.(.(.(.(.(.(.(.(.(.(.(.(.(.(.(.",
"(.(.(.(.(.(.(.(.(.(.(.(.(.(.(.(.(.(.(.(.(.(.(.(.(.(.(.(.(.(.(.(.(.(.(.(.(.(.(.(.",
"(.(.(.(.(.(.(.(.(.(.(.(.(.(.(.(.(.(.(.(.(.(.(.(.(.(.(.(.(.(.(.(.(.(.(.(.(.(.(.(.",
"(.(.(.(.(.(.(.(.(.(.(.(.(.(.(.f.@ g l l z U U Y k.(.(.(.(.(.(.(.(.(.(.(.(.(.(.(.",
"(.(.(.(.(.(.(.(.(.(.~.g.h.h.h.N X $ d d k D D D { M.M.M.M.^.(.(.(.(.(.(.(.(.(.(.",
"(.(.(.(.(.(.(.(.(.(.m . . . . + D D D D D D D D D D D D D [ (.(.(.(.(.(.(.(.(.(.",
"(.(.(.(.(.(.(.(.m.M v # # # # f D D D D F _ U D R _ _ R D ( { ^.(.(.(.(.(.(.(.(.",
"(.(.(.(.(.(.(.(.h.. $ F D D D D D D D D I (.[ D j.(.(.j.D D D l.(.(.(.(.(.(.(.(.",
"(.(.(.(.(.(.(.v 2 k C D D D D D D D D D F _ U D R ( ( ` { R D E ' (.(.(.(.(.(.(.",
"(.(.(.(.(.(.(.X o D D D D D D D D D D D D D D D D D D R (.` D D I (.(.(.(.(.(.(.",
"(.(.(.(.(.b X Y.Y.D D D D D D D D D D D D D D D D D D F I F D D D P ] (.(.(.(.(.",
"(.(.(.n.) v = I.!.D D D D D D A j A D D D D A C A D D D D D D U U F E k.M.(.(.(.",
"(.(.(.V . S.Q.G D D D D D D D h . f D D D D k . h D D D D D D l.l.D D D j.(.(.(.",
"(.(.(.V . F.Q.J D D D D D D D C   5 D D D D 5   h D D D D R ] ] ] ] R D j.(.(.(.",
"(.(.(.V . S.Q.G D D D D D D D s 4 5 D D D D 5 4 5 D D D D [ B.I I (.[ D j.(.(.(.",
"(.(.(.V . S.Q.J D D D D D D D A s Z D D D D Z s Z D D D D I R F F T I D j.(.(.(.",
"(.(.(.V . S.Q.G D D D D D D D D D D D D D D D D D D D D D D D D D D D D j.(.(.(.",
"(.(.. - Q.Q D Y.Y.D D D D D D D D D D D D D D D D D D D D D D D D D ^ Q./ D (.(.",
"(.(.. - Q.Q D !.I.D S G S D D D D D D D D G S D D D D D D D D D D D W R.W L (.(.",
"(.(.. - Q.Q D D D D H ~ G D D D D D D D D ~ / D D D D D D D D D D D D D ^ ~ (.(.",
"(.(.. - Q.! D / / D L K L D ~ ! / L D / / / L D D D ~ Q D D D K / D D D G / (.(.",
"(.(.. - Q.! D ! ^ D D D D D Q.T.~ K D ^ ^ D D S D D Q.R.D D D ^ ^ D D D D D (.(.",
"(.(.. - Q.!.! G J T.!.^ L D !.!.T.T.R.T.T.R.T.R.^ Q / / ^ J D L G ! ~ R.K D (.(.",
"(./.. - Q.!.~ L G Q.R.~ L S ^ ~ Q.Q.Q.W.W.W.W.Q.~ ^ D L ^ K S D L ~ !.Q./ D (.(.",
"(.d.. * : J.Q.~ ~ ~ !.W.Q.W.. O Q.W.Q.Z.V.V.H.Q.Q.Q.W.W.Q.!.~ ~ ~ Q.!.D + . (.(.",
"(.@.1 > : J.K.I.I.I.U.D.L.W.V.V.K.K.K.G.D.D.D.A.E.Q.K.E.Q.R.!.x P.Q.U.k % 3 (.(.",
"/.e v.V . : : W.W.Q.A.. H.Q.W.L.V.V.V.E.Q.Q.D.. H.Q.V.D.Q.W.Q.C.: Q.J.. B N.(.c.",
"y.y N.<.n @ O = = = O . & : = = O O O = = = O . & = O & = = = & & ; > < 5.c.N.8.",
"2.../.B.,., . . . . . . . . . . . . . . . . . . . . . . . . . . . . < u 5.7.a.2.",
"7.X...q.9.9 8.2.p /.p.&.#.q 6.q 9. .#.m.i X.m.c 0 -.:.d.0.r 9.:.;.y m.t 0 7.*.@.",
"e 8 %.t 0  .| 1.5.4.>.%. .0 u 0 %.8 %.p.0 %.c.e 7 >.*.8.p.8 i.%.6 w.B.O.0 &.3.a ",
"8 e %.,.e | }  .X.u.=.$. .6  .| %.0 $.,.9 %.y 0 9 %.%.u r.6 w.%.t N.y.&.9 $.=.X.",
"| 0 } =.y w %.} >.x.%.%.6 9 | ..%.w #.$.| %.7.5. .%.%.u &.} -.%.2.s.X.#.#.*.0.O.",
"| 0 $.%.%.| %.%.1.%.%.%.w 8 | #.} e $.%.| %.b.8.$.%.$.#.9 $.$.%.:.&.#. .%.;.w.+.",
"} 0 $.%.X.%.%.%.#.$.%.%.w 9 } #.$.0 %.$.X.%.u.i.%.%.%.%.7 %.%.%.#.$.8 ;.%.X.+.#.",
"t.y.t.t.z.t.t.t.y.p.a.p.e.e.i.t.i.d.a.t.y.i.x.x.i.i.i.i.w.i.i.i.i.i.z.x.i.i.i.i."
};
