/* XPM */
static char *_dd169ed5bb444ca815cc6e8feb22befpU5yDjyBtoFgy8U2[] = {
/* columns rows colors chars-per-pixel */
"64 64 249 2 ",
"   c #314448",
".  c #026A9B",
"X  c #026DA5",
"o  c #0273A9",
"O  c #067CB4",
"+  c #017EDA",
"@  c #0589AA",
"#  c #0689B8",
"$  c #0D92B6",
"%  c #0FA5BD",
"&  c #25A9BF",
"*  c #0497C4",
"=  c #0183DD",
"-  c #028DDD",
";  c #0497DA",
":  c #07A9C9",
">  c #19AAC5",
",  c #05B4CA",
"<  c #17B5CC",
"1  c #03A5D7",
"2  c #1BBAD2",
"3  c #23ABC3",
"4  c #34AEC5",
"5  c #28B6CB",
"6  c #39B8CD",
"7  c #27BBD5",
"8  c #3ABCD1",
"9  c #0186E0",
"0  c #018CE3",
"q  c #0193E5",
"w  c #0299E6",
"e  c #0A9BE4",
"r  c #0195EB",
"t  c #019BED",
"y  c #119EE6",
"u  c #019CF1",
"i  c #01A3EE",
"p  c #0BA6ED",
"a  c #01AAEE",
"s  c #18A8EB",
"d  c #08B5EE",
"f  c #13B7EF",
"g  c #00A4F1",
"h  c #01ABF2",
"j  c #0BABF2",
"k  c #19ACF1",
"l  c #01B3F3",
"z  c #03BBF5",
"x  c #0ABBF6",
"c  c #14B5F2",
"v  c #13BCF4",
"b  c #1BBAF4",
"n  c #25A6E8",
"m  c #36AEEA",
"M  c #2BB2EF",
"N  c #3BB6E6",
"B  c #23ADF2",
"V  c #23B3F4",
"C  c #2AB6F4",
"Z  c #2DBCF2",
"A  c #38B8F4",
"S  c #45BDD4",
"D  c #58BDD6",
"F  c #68B5DF",
"G  c #45B6E5",
"H  c #4BBAE6",
"J  c #43B6EB",
"K  c #4CBCEC",
"L  c #59B9E7",
"P  c #53BDEC",
"I  c #46BAF4",
"U  c #57BCF3",
"Y  c #63BAE5",
"T  c #64BDE8",
"R  c #64BFF3",
"E  c #18C3D4",
"W  c #24C5D6",
"Q  c #39C5D7",
"!  c #3ED1DE",
"~  c #0AC2F6",
"^  c #19C2F8",
"/  c #25C1F6",
"(  c #2CC3F6",
")  c #23C1F8",
"_  c #2DC3F9",
"`  c #33C4F7",
"'  c #3AC5F6",
"]  c #3CC6F9",
"[  c #4CC5D9",
"{  c #55C7DC",
"}  c #4BD2DE",
"|  c #66C7D9",
" . c #6BCBDC",
".. c #74CBDA",
"X. c #77D0DE",
"o. c #56CBE1",
"O. c #52C1EE",
"+. c #5BC4EF",
"@. c #48C7F7",
"#. c #4CC4F4",
"$. c #54C4F3",
"%. c #5CC5F3",
"&. c #54CAF6",
"*. c #5CCBF5",
"=. c #54C5F9",
"-. c #5AC4F9",
";. c #55CCF9",
":. c #5BCBF8",
">. c #5DD1F7",
",. c #66CEE3",
"<. c #63C3ED",
"1. c #6CC3EC",
"2. c #76C7EE",
"3. c #65D4E5",
"4. c #73D5E3",
"5. c #79D9E6",
"6. c #7BD9E6",
"7. c #63C6F2",
"8. c #6DC5F4",
"9. c #64C9F4",
"0. c #6BCCF4",
"q. c #68C8F9",
"w. c #77C9F7",
"e. c #73CDF4",
"r. c #7BCCF3",
"t. c #6DD2F5",
"y. c #65D2F8",
"u. c #73D2F6",
"i. c #73D3FA",
"p. c #7BD2F8",
"a. c #8BC2BE",
"s. c #97C3BA",
"d. c #A4CABA",
"f. c #B6CEBC",
"g. c #DACCB2",
"h. c #DCD2BF",
"j. c #E5D3BA",
"k. c #8AC6CB",
"l. c #94CCC9",
"z. c #9DD4CD",
"x. c #8CCCD5",
"c. c #88CCD9",
"v. c #93CED5",
"b. c #88D1DA",
"n. c #8DD3DC",
"m. c #8DD9DE",
"M. c #99D6D6",
"N. c #93D5DB",
"B. c #94D9DE",
"V. c #9CDBDE",
"C. c #AECEC1",
"Z. c #ADD3C6",
"A. c #B7D9CA",
"S. c #A5DCD6",
"D. c #A8DCD6",
"F. c #A4DCDA",
"G. c #BCDED3",
"H. c #B9DED9",
"J. c #ABE1D7",
"K. c #BCE0D5",
"L. c #BDE2D9",
"P. c #83D4E1",
"I. c #86DAE4",
"U. c #8CDBE3",
"Y. c #8BDEE9",
"T. c #94DCE2",
"R. c #99DDE2",
"E. c #85CDF7",
"W. c #91CFF8",
"Q. c #84D3F5",
"!. c #8CD5F6",
"~. c #89D4FA",
"^. c #96D6FA",
"/. c #9CDAFC",
"(. c #A1DCE0",
"). c #A4DBFC",
"_. c #AADCFC",
"`. c #B3DEFC",
"'. c #95E0E6",
"]. c #A7E1E1",
"[. c #AAE0FC",
"{. c #B5E2FC",
"}. c #BCE5FD",
"|. c #C7D7C8",
" X c #CAD5C8",
".X c #DAD5C9",
"XX c #D8DBD3",
"oX c #E3DBCD",
"OX c #E8DAC8",
"+X c #F0DFCD",
"@X c #E4DDD2",
"#X c #E4DEDB",
"$X c #C9E2CD",
"%X c #C4E3D5",
"&X c #C9E5D8",
"*X c #CAE5DB",
"=X c #D3E4D3",
"-X c #D6E7D9",
";X c #DDE5DD",
":X c #DAEADD",
">X c #EDE3CE",
",X c #E5E3D4",
"<X c #EDE4D3",
"1X c #E4E4DB",
"2X c #EAE5DC",
"3X c #E6EADA",
"4X c #EDEBDD",
"5X c #F3E5D3",
"6X c #F4E6D7",
"7X c #F5E9D6",
"8X c #FBECD6",
"9X c #F4EBDB",
"0X c #FCEDDB",
"qX c #F7F0DE",
"wX c #FEF1DE",
"eX c #DDE7E2",
"rX c #DBEBE3",
"tX c #DFF0EA",
"yX c #C4E8FD",
"uX c #CBEBFD",
"iX c #D4EDFC",
"pX c #DDF2FD",
"aX c #E6E6E3",
"sX c #E3EBE4",
"dX c #ECECE4",
"fX c #E5EBEA",
"gX c #EBEDEB",
"hX c #F2EBE3",
"jX c #FBEFE1",
"kX c #F1EEEB",
"lX c #E7F1E9",
"zX c #ECF1EC",
"xX c #F2F0E6",
"cX c #FDF4E3",
"vX c #FFF8E6",
"bX c #F3F1ED",
"nX c #FDF6EA",
"mX c #FFF9EC",
"MX c #EBEDF2",
"NX c #F3EFF4",
"BX c #EDF2F3",
"VX c #E2F4FD",
"CX c #EDF4FA",
"ZX c #F4F4F4",
"AX c #F8F6F6",
"SX c #FEFAF2",
"DX c #F3F6FA",
"FX c #F5F9FC",
"GX c #FAFBFD",
/* pixels */
"y n n n L L n H L K E.E./.{.yXuXpXiX{.^.).`.`.yXuXyX}.`.{._.)./.`.`.}.{.uXuXuXuXyX_.).`.iXVXpXpXiX`.E.U C A J R 8.J U E.^.~.U B ",
"- q y e y y e w e n s s n J R R r._.).).w./._.}.^.).W.^.r.W.~.E.^.`.{.{.}.}.{.{.}./._.yXuXVXpXpXpXuXE.%.A I I U U B p U E.8.U k ",
"= - ; - - q q q e n s n m K U w.8.8.r.W./.p.E.E.8.I q.7.%.8.8.w.w.W./.)./.W.^.^./.W.{.yXuXiXpXpXiX_.~.I j A I j A V k q.w.w.I V ",
"+ = ; w e e ; - 0 0 q t e s s U `.M s m q.w.R A B p G =.p A I A I I 7.7.8.q.=.-.%.E._.yXuXuXpXpXyX~.I k k q.I j n V j I U k u t ",
"+ + = - s J J G q q q t M E.[.}.uXW.p q q q y w t t e e r r i t g V C C V A U -.7.p./.`.uXiXpXuX}.^.w.^.-.I B p k i t k g w w q ",
"= = = 9 9 0 ; m m m q q p m 7.e.w.~.A t w q q q q r r r q r u r u t u u h M J I $.8./.}.uXuXuXuXyXp.i.~.V g j B j u r g u r q r ",
"9 = = 9 0 0 0 0 0 0 0 0 q q t w w M k t q q q q q r r r r r r r r r r u r g j b I q./.).{.}.uXuX[.I A $.g g g p j u u u u r r q ",
"0 0 0 0 0 0 0 0 0 0 0 0 q q t w q w w w w w w w r r r r r r t r r r r r r g h C -.r.~.).[.{.yX}.p.V C j g g h j g u u u r r r r ",
"q q 0 0 0 q q q q q q q q q q w w r r r r r r r r r r r u r u u u u r u u u u j I $.~.^._.{.}.[.V u t g h h h g t r r r r r r r ",
"n q q q q q q q q q q q q q q r r r r r r r r r r u u u u u u u u u u u u u u g j Z p./.)._.i.A p u u g a a h g u u t u t t t u ",
"A s i w w w q q q q q q q q q t r r r t r r t t u t t u u t u u u u t t t u g i g g A q.-.k g i g g g g g g i i g g g i i g i g ",
"R K A k i i i w w t t t t t t t t t t i t t i i g i i g g g g g g g g g g g g a h h h j h g g g g g g g g a g g g g g g g g a g ",
"8.r.r.8.B a i t t i a t t t t t g g i g i i i g g g g g g g g g g g g g g h h h h h h h h h h h h h h h h h g g h h h h h h h h ",
"a a h h h a a i i a h i i i i a g g h g h h h h g h h h h h h h h h h h h h h h h h h h h h h h h h h h h h h h h h h h h h h h ",
"a a a a a a b c h h h a a g a h h h h h h h h h h h h h h h h h h h h h h h h h h h h h h h h l l h h h h h h h h h h h h h h h ",
"j a a a h h h a a h a a h h h h h h l l h h h h h h l l l l l l l l l l l l l l l l l l l l l l l l l l l l l l l l l l l l l l ",
"I V d h l l c l a l l l a a l l l l l l l l l l l l l l l l l l l l l l l l l l l l l z z z z l l l l l l l l l l l l l l l l z ",
"I V f c c c c c l l l l l l l l l l l l l l z l l l l l l l l z z z z z z z z z z z z z z z v x z z z z z z z z z z z z z z z z ",
"Z Z C b c c c d d f d b f c f f f f b v z v v z z z z z z z z z z z z z x z z v ^ ~ ~ x ~ b ^ ~ v z x z z ~ z ~ ~ z v ~ z z v ^ ",
"$.#.I -.$.' Z Z Z Z Z Z Z Z Z Z Z A Z ` ` ` ( ` ( ( ( / / ) ) ^ ) ) / / / _ _ ( _ _ _ _ ( _ _ _ / ^ ) ^ ^ ^ ^ ^ ( ( ( @.] _ ] ` ",
"r.r.Q.e.+.9.e.w.0.$.#.#.#.@.@.#.#.#.$.:.-.=.=.=.&.#.=.@.] ' ' ' ' ' ' ] ] @.' ] ] ] ] ] ] ' ] ] ] ' ` ` ( _ _ ] @.=.@.@.@.@.@.@.",
"#.$.$.$.$.$.$.#.#.#.$.%.*.9.9.9.%.$.-.$.$.&.&.&.&.:.-.=.:.;.&.&.&.&.;.;.&.&.&.;.&.=.=.=.=.@.@.@.@.@.@.@.@.@.@.0.Q.Q.0.9.=.&.&.&.",
"Q.W.W.!.E.r.r.0.9.9.7.9.%.$.$.=.$.&.$.%.%.*.*.:.&.%.*.9.9.&.&.&.;.;.;.;.;.q.p.e.i.y.>.>.;.;.;.;.;.;.;.;.;.;.;.:.9.0.9.*.:.:.:.;.",
"8.9.<.7.7.9.9.9.q.9.9.9.0.0.w.p.Q.Q.p.p.Q.Q.Q.~.Q.!.^.^.!./././.[./.^.p.i.0.0.0.0.y.y.y.y.>.y.>.>.y.>.>.>.>.:.:.:.:.:.y.y.y.>.y.",
"1.2.2.r.r.E.Q.Q.r.p.p.r.e.e.0.0.0.9.9.0.t.p.p.p.i.i.u.0.0.0.0.0.0.t.t.0.0.t.t.i.i.i.i.p.p.t.0.t.t.t.t.u.Q.!.p.u.t.t.t.y.t.t.t.t.",
"2.2.2.2.2.2.2.r.r.r.r.r.r.r.e.e.0.0.0.0.e.e.p.p.Q.!.!.!.!.!.Q.9.p.r.e.i.u.t.t.0.9.0.0.0.t.i.t.t.t.e.Q.!.Q.0.t.t.t.t.u.t.i.i.u.0.",
"2.1.1.1.1.1.1.1.1.1.1.2.r.W.E.r.8.7.9.9.9.7.+.%.7.9.%.7.9.0.0.9.7.7.*.%.%.*.7.0.0.0.e.u.u.0.0.0.0.0.0.0.u.u.0.9.*.%.0.0.0.e.e.0.",
"T T T 1.1.1.1.1.1.<.1.<.1.<.9.1.<.<.<.<.+.+.P P P P P P +.+.%.%.+.$.O.%.+.+.%.7.%.%.7.7.7.9.7.7.7.7.9.9.9.9.7.%.7.9.7.%.7.%.%.%.",
"T T T T T T T T T Y <.T T T L <.L L L P H H H H G G G G K K G K K K K K K K K K K K P O.O.$.O.P O.K O.O.$.O.K K K K K K K K K K ",
"F L Y Y Y Y Y T T Y Y Y Y Y Y L L L L L H H G G G N N m N m N N N G N N G G G G H H H H H P H H G J N N G G G N N N N N J N N J ",
"    X X X X . o o X o o O O O O O # @ @ # $ * * * * * * # # @ O O # * # * : 1 : 1 1 * * ; 1 : * * * * * ; ; 1 1 1 1 1 1 ; 1 1 1 ",
"@ @ @ @ $ $ % > > % % : : : : : : < 7 < < < < 2 W 7 W W W E 2 E E < < E E 2 7 5 2 5 5 4 5 4 3 5 > > > : : , : , , , , , , , , , ",
"4 3 % > 3 5 2 2 7 7 2 2 7 7 > 5 7 Q 7 7 7 E W E 2 7 < < E W W Q ! } } ! } } Q 7 Q Q 8 Q Q S 8 6 6 8 7 > > < > < > < 7 7 7 7 7 Q ",
"D S 4 & 3 3 6 6 8 & 3 6 6 8 S 8 3 8 8 [ [ { o.3.{ S { o.[ [ { o.8 o.3.3.3.3.,.3.[ { 3.,.{ | ,.,.o.o.{ [ S { o.[ o.o.o.o.o.3.3.3.",
"| |  . .|  .| |  .| | |  .| | |  . .4.4.4.4.4.4.6.6.6.6.6.6.6.6.6.6.6.6.I.6.6.6.6.6.4.4.6.4.,.,. . .4.|  .4.6.6.6.6.6.6.6.6.6.6.",
"..............X...X...X.X.P.X.P.P.P.P.P.P.I.b.I.P.I.U.I.Y.Y.I.I.Y.I.Y.U.U.Y.Y.U.Y.Y.Y.Y.Y.Y.Y.I.Y.I.I.Y.I.Y.I.Y.Y.I.Y.Y.Y.Y.Y.Y.",
"c.c.c.c.c.c.c.c.b.b.b.b.b.b.b.m.n.n.U.n.m.T.U.T.T.m.U.U.U.T.U.T.U.T.U.'.U.'.T.'.U.T.T.U.U.'.U.U.U.U.U.U.U.P.U.U.U.U.U.U.U.U.U.U.",
"k.c.c.x.v.x.x.b.x.n.N.n.N.N.N.N.T.N.B.B.B.T.T.T.T.T.T.R.T.R.T.T.T.R.R.T.R.m.'.T.m.m.m.B.B.m.T.U.U.U.m.m.m.m.m.U.U.R.R.T.T.T.m.T.",
"x.x.x.x.x.c.N.x.b.n.n.n.n.N.n.N.n.N.B.B.N.n.B.B.B.B.B.B.R.B.R.T.R.B.T.R.B.B.B.B.V.B.B.B.R.R.R.B.R.m.'.R.R.R.R.R.R.T.R.R.T.R.R.R.",
"k.k.k.k.k.k.x.x.x.x.x.x.x.x.x.v.N.v.v.N.N.N.N.B.N.N.N.B.M.M.M.M.V.V.M.V.V.V.V.V.F.V.F.V.V.V.(.V.V.V.M.V.V.B.V.V.V.V.V.(.V.V.V.R.",
"a.a.a.a.s.a.l.l.k.k.l.l.l.k.l.v.z.l.l.z.z.z.z.z.z.z.S.S.S.M.z.D.S.S.D.S.D.D.D.S.S.S.J.D.J.J.D.D.D.D.J.D.J.D.F.S.F.F.S.S.].F.F.S.",
"d.d.d.d.d.s.d.d.d.d.C.C.C.Z.Z.A.Z.Z.A.A.G.A.A.A.Z.G.A.A.G.G.G.A.A.G.K.K.K.K.L.K.G.G.%XG.H.%XK.%X%XG.&X&X%XG.L.L.L.L.L.L.L.L.%XL.",
"C.C.f.f.f.f.f.|.f.|.A.A.A.$X=X$X|.$X|.$X$X$X$X=X$X%X%XG.G.A.%XG.%X%X%X&X%X%X&X&X-X&X&X&X&X-X&X&X&X&X-X=X&X&X&X&X%X&X&X%X&X&X&X&X",
" XXX:X X|. X|.=XXX|.f.|.=X=X=X=XrX=X$X-X=X$X=X=X:XrX=X-X-X=X-X:X-X-X=X:X:X-X:XrXrX-XlXlXlXrXtXrXrXrX-X:XlX:XrXrXrX-XrXrX:XrX:X:X",
"XXsXeX;XsXfX XXXsX;X;XXX1X;XsXsXfXsX;XsXeX:X;X;XeXeXsXzXzXfXsXeXlXfX;XsXfXlXfXgXsXsXlXfXlX3XlXsXxXlXBXfXzXlXdXlXfXfXsXsX;XfX;XsX",
"XXXX.XXX;X1XaXzXsX XlX XfX X1XsXXX3X1XgXsXsX1X1XsXXXsX3X,X3XdXlX,X4XzXBXgXlXlX4X3XxXbXsXzXdX4XdXZXGXsXgXsXdXBXCXfXgXBXgXzXzXBXBX",
".X@X@X.X.XoX@X.XaX.XoX@X3XXX3XdXdXdXdX,X3XdXgXzXdXsX,X2X1XdX,X3XbXlXdX4X4XBXBXgX1XzXdXdXdXdXZXzXDXdX4XxXgXzXCXaX1X2X4XzXBXCXsXfX",
"@X.Xh..XXX.X1X.XoX.X.X1X1Xh.,XoX,X,X,X,XgX@XdX<XaXgX2X4XzXdXoXdX2XxX<X<X<XxXzXdXgX<X<X6XjXxX9XbXkXBX3X<X9XbX9XbXBX2XdX<X5X2XBXMX",
".Xg.oXOXh.@XOXOXoX.X<X.XoX@XdXdX2X3X@X3X<XoXOX>X2X<X>XoXoX>X5X5X<XkXgXoX9XhXFX4X4XZXbX9X7X4XbXZXbXFXBXZXZXkXkXgXZX3XhX<X5X6XdXgX",
"@X.XXX.XoX.X#X@XOXj.j.@X#XkX#XoXoXOXj.OX+X<XhXdX<XdX2X@X9X2X<X<XZXZX<XdXdXbXZXDX2XAXbXxXbXMXDXCXDXDXDXZXDXCXZXDXBXDXDXgXdXZXCXCX",
"#XgXfXMXMXMXMX#X@XNX.XOXaXhX.X2X.X1XhXgXCXMXfXOXBX#XsXCXgXhXZXCX2XDXBXGXDXDXgXDXDXFXFXFXGXGXFXDXDXDXDXFXDXDXDXGXGXFXFXDXDXBXGXDX",
"FXDXZXgXfXgXMX#XfXsX#XkXgXaXMXCXFXGXGXDXDXgXZXFXZXgXBXDXDXDXFXDXGXFXFXGXGXDXFXGXGXGXGXGXGXGXGXGXGXGXGXFXGXGXFXFXFXGXGXGXFXFXFXGX",
"ZXgXZXGXZXDX1XdXZXZXSXAXGXGXGXnXZXAXAXGXGXZXGXZXZXDXnXDXZXGXDXZXAXGXGXDXZXDXGXGXGXGXFXGXFXGXDXGXGXGXFXGXDXFXZXFXGXAXAXGXFXDXDXDX",
"fX#XdXkXkXkX3XhXZXZXZXZXNXbXbXgXhXkXDXZXZXgXDXAXZXZXZXFXFXDXDXZXbXZXGXDXGXGXFXAXAXGXFXGXDXDXGXFXFXGXGXGXGXGXFXGXGXGXAXGXGXGXGXGX",
"2XaXaX2XaXaXkXgXZXDXDXDXBXgXkXkXkXbXAXDXZXZXbXkXkXbXZXZXZXDXFXFXDXZXDXGXZXGXGXFXGXAXSXSXSXSXSXSXcXcXnXvXcXnXcXwXwXwXwXwXwX0X8XwX",
"6XjXcXcXcXjX0X5X5X0XSXGXGXGXGXFXDXFXGXGXGXGXGXGXGXGXnXSXGXSXSXSXSXSXSXcXwX8XwXwXwXcX0XwXwXqXwX0XwXwXwXcXwXwXwXcX0XwXwXwX0XwX0X0X",
"+X>X<X<X<X5X+X5X5X5X6X7X7X7X5X7X0X9X0X0X0X8X8X7X8X8X0X0X0XwXwXwXwX0X0XwXwXwXcXwXwXcXwXcXwXwXwXwXwXcXwXwXcXwXcXcXwXwXwXwXwX0XwX0X",
"<X<X<X5X5X<X6X6X7X7X7X5X5X5X7X8X8X0X0X0X8X7X8X0X0X0X0X0XwXcXwXwXcXcXwXcXcXcXcXcXcXcXcXcXcXcXcXcXcXcXcXwXcXcXcXwXwXwXwXwXwXwXwXcX",
"<X5X5X5X5X9X9X7X6X6X5X7X7X7X9X0X9X9X0X0X0X0X0X0X0XcXcXcXcXcXcXcXcXcXcXcXcXcXmXcXcXvXcXcXcXcXnXvXcXcXcXcXcXcXcXcXcXcXwXwXwXwXcXcX",
"6X7X6X6X9X9X9X7X7X7X9X9X9X9X0X0X0XqXqXcXcXcX0XwXcXcXcXcXcXcXcXcXcXcXcXcXcXvXmXnXnXvXcXvXvXmXmXvXcXvXcXcXvXcXcXvXcXcXcXcXcXcXcXcX",
"9X9X9X9X9X9X9X9X9X9XjX0XqXcX0XcXcXcXcXcXcXcXcXcXcXcXcXcXcXnXnXcXcXvXnXcXvXmXmXnXmXmXvXmXmXSXmXmXvXmXvXvXvXvXcXvXvXcXvXcXcXcXcXvX",
"9XcXcXqXqXqXcXcXcXcXcXcXcXcXcXcXcXcXcXcXcXcXcXcXcXcXcXvXvXmXvXvXvXmXmXmXmXmXmXnXmXmXmXSXmXSXmXmXmXmXvXmXmXmXvXmXmXmXmXmXmXvXvXnX",
"9XqXcXcXcXqXcXcXcXcXcXcXcXcXcXnXmXmXmXmXvXmXvXvXvXvXmXmXmXmXvXmXmXmXmXmXmXmXmXvXmXmXSXSXmXSXSXSXmXSXSXSXmXmXmXvXmXmXmXmXmXmXmXvX",
"qXqXcXcXcXcXcXcXcXcXcXvXvXnXvXvXmXmXmXmXmXmXmXmXmXSXSXSXSXmXSXmXmXmXmXSXSXmXmXmXmXmXSXSXSXSXSXSXmXSXSXSXmXmXSXvXmXSXSXmXmXmXmXmX"
};
